{"glyphs":{"0":{"ha":814,"x_min":213,"x_max":772,"o":"m 582 842 q 686 816 644 842 q 745 746 728 789 q 767 672 762 703 q 772 609 772 642 q 762 479 772 552 q 726 317 753 407 q 661 153 700 227 q 554 31 621 80 q 404 -19 487 -19 q 300 7 342 -19 q 241 75 258 33 q 218 148 224 117 q 213 213 213 179 q 222 340 213 269 q 258 503 232 412 q 323 668 283 594 q 430 792 362 742 q 582 842 498 842 m 574 781 q 437 715 496 781 q 347 551 377 648 q 301 368 316 454 q 286 220 286 282 q 410 42 286 42 q 526 88 473 42 q 610 202 579 134 q 661 351 640 270 q 690 494 682 431 q 699 602 699 557 q 574 781 699 781 z "},"1":{"ha":814,"x_min":148,"x_max":699,"o":"m 294 723 l 586 842 l 631 842 l 465 64 l 699 64 l 685 0 l 148 0 l 161 64 l 397 64 l 545 764 l 309 663 l 294 723 z "},"2":{"ha":814,"x_min":110,"x_max":772,"o":"m 617 198 l 681 198 l 639 0 l 110 0 l 125 73 q 392 273 210 134 q 624 465 574 412 q 699 640 699 544 q 653 736 699 697 q 545 776 608 776 q 503 770 529 776 q 441 751 477 765 q 378 707 406 738 q 342 633 350 677 l 270 633 l 290 723 q 563 842 416 842 q 709 786 647 842 q 772 643 772 730 q 686 438 772 541 q 507 281 643 388 q 216 66 372 174 l 216 64 l 590 64 l 617 198 z "},"3":{"ha":814,"x_min":122,"x_max":728,"o":"m 122 47 l 159 106 q 368 43 277 43 q 541 110 467 43 q 614 277 614 176 q 549 387 614 351 q 403 404 510 408 l 416 468 q 473 471 453 469 q 527 486 494 473 q 587 522 560 498 q 655 663 655 582 q 616 747 655 718 q 526 777 576 777 q 454 765 492 777 q 397 744 415 753 q 339 713 380 735 q 324 707 336 713 q 311 699 312 700 l 288 753 q 422 819 366 798 q 536 841 477 841 q 673 793 617 841 q 728 674 728 746 q 726 640 728 658 q 711 586 723 623 q 665 512 699 549 q 581 446 632 475 q 659 378 631 423 q 688 278 688 332 q 592 71 688 163 q 357 -20 496 -20 q 152 34 273 -20 q 137 41 149 35 q 122 47 125 46 z "},"4":{"ha":814,"x_min":140,"x_max":705,"o":"m 705 842 l 583 263 l 705 263 l 692 198 l 568 198 l 540 64 l 662 64 l 650 0 l 278 0 l 290 64 l 473 64 l 503 198 l 140 198 l 157 278 l 612 842 l 705 842 m 222 263 l 517 263 l 621 755 l 618 758 l 222 263 z "},"5":{"ha":814,"x_min":130,"x_max":798,"o":"m 343 822 l 798 822 l 784 758 l 391 758 l 332 483 q 503 521 429 521 q 659 469 595 521 q 722 313 722 416 q 700 205 722 262 q 638 98 678 149 q 529 14 598 47 q 374 -19 460 -19 q 262 -5 309 -19 q 130 43 214 8 l 165 103 q 377 47 278 47 q 500 73 446 47 q 586 137 555 98 q 633 220 617 176 q 648 305 648 263 q 604 416 648 374 q 486 457 559 457 q 289 392 387 457 l 256 412 l 343 822 z "},"6":{"ha":814,"x_min":197,"x_max":837,"o":"m 837 841 l 823 776 q 705 776 762 774 q 589 758 647 777 q 479 703 530 738 q 379 591 427 667 q 294 406 331 515 l 297 403 q 514 502 399 502 q 648 450 591 502 q 705 294 705 397 q 614 77 705 174 q 407 -19 524 -19 q 256 46 315 -19 q 197 222 197 111 q 218 381 197 296 q 281 553 240 467 q 397 711 323 640 q 563 814 471 783 q 837 841 648 844 m 271 285 q 267 225 267 236 q 311 94 267 138 q 414 49 355 49 q 569 124 507 49 q 631 290 631 199 q 598 393 631 351 q 509 434 566 434 q 375 393 437 434 q 271 285 313 353 z "},"7":{"ha":814,"x_min":277,"x_max":850,"o":"m 317 822 l 850 822 l 836 757 l 414 0 l 334 0 l 769 758 l 370 758 l 345 633 l 277 633 l 317 822 z "},"8":{"ha":814,"x_min":184,"x_max":788,"o":"m 370 419 q 336 445 353 429 q 302 497 319 461 q 285 575 285 533 q 375 762 285 682 q 582 842 465 842 q 734 787 680 842 q 788 662 788 732 q 736 516 788 582 q 618 419 684 450 q 716 254 716 366 q 627 69 716 157 q 401 -19 537 -19 q 241 37 298 -19 q 184 175 184 92 q 239 319 184 251 q 370 419 294 388 m 574 779 q 422 720 486 779 q 358 581 358 661 q 393 492 358 534 q 499 450 429 450 q 646 512 578 450 q 715 655 715 574 q 678 741 715 704 q 574 779 642 779 m 488 382 q 323 317 388 382 q 258 179 258 251 q 300 83 258 122 q 410 45 342 45 q 570 102 496 45 q 643 245 643 160 q 598 347 643 312 q 488 382 553 382 z "},"9":{"ha":814,"x_min":141,"x_max":783,"o":"m 141 -18 l 160 47 q 227 43 217 43 q 507 127 399 43 q 685 418 616 210 l 682 420 q 465 321 581 321 q 332 373 389 321 q 274 528 274 425 q 365 746 274 650 q 571 842 456 842 q 723 777 663 842 q 783 600 783 712 q 707 288 783 449 q 507 50 631 127 q 385 -2 452 15 q 262 -19 319 -19 q 141 -18 205 -19 m 707 538 q 712 598 712 571 q 667 730 712 686 q 566 774 623 774 q 410 699 472 774 q 347 533 347 624 q 380 431 347 472 q 471 389 414 389 q 604 430 543 389 q 707 538 665 471 z "}," ":{"ha":864,"x_min":0,"x_max":0,"o":""},"!":{"ha":814,"x_min":313,"x_max":500,"o":"m 464 774 l 438 262 l 376 262 l 351 774 l 464 774 m 407 144 q 474 119 448 144 q 500 60 500 95 q 473 1 500 26 q 407 -23 446 -23 q 340 1 368 -23 q 313 61 313 26 q 340 119 313 95 q 407 144 368 144 z "},"\"":{"ha":814,"x_min":323,"x_max":776,"o":"m 389 764 l 518 764 l 423 382 l 323 382 l 389 764 m 647 764 l 776 764 l 681 382 l 581 382 l 647 764 z "},"#":{"ha":814,"x_min":148,"x_max":838,"o":"m 460 894 l 524 894 l 449 616 l 646 616 l 720 894 l 785 894 l 709 616 l 838 616 l 819 528 l 686 528 l 625 301 l 769 301 l 751 213 l 602 213 l 524 -77 l 460 -77 l 537 213 l 342 213 l 263 -77 l 199 -77 l 277 213 l 148 213 l 167 301 l 301 301 l 361 528 l 217 528 l 236 616 l 385 616 l 460 894 m 623 528 l 426 528 l 365 301 l 562 301 l 623 528 z "},"$":{"ha":814,"x_min":149,"x_max":807,"o":"m 560 890 l 625 890 l 595 749 q 692 700 643 749 q 697 696 692 700 q 704 692 701 692 q 757 772 713 692 l 807 764 q 749 576 762 681 l 696 567 q 693 608 696 593 q 680 640 690 623 q 645 667 669 656 q 582 685 621 678 l 524 406 q 596 383 571 392 q 654 355 621 374 q 701 309 686 336 q 715 241 715 281 q 631 85 715 148 q 441 22 548 22 l 397 -182 l 332 -182 l 376 22 q 274 57 319 27 q 248 72 259 72 q 198 8 235 72 l 149 22 q 198 213 180 88 l 252 222 q 252 176 248 201 q 266 132 256 152 q 307 99 275 113 q 389 85 338 85 l 448 357 q 387 376 408 368 q 332 404 365 385 q 284 450 300 422 q 269 517 269 479 q 338 670 269 600 q 530 749 408 741 l 560 890 m 461 423 l 517 685 q 392 635 442 674 q 342 529 342 597 q 359 475 342 496 q 396 446 377 454 q 461 423 415 438 m 509 339 l 456 87 q 593 136 544 90 q 643 232 643 182 q 635 273 643 256 q 604 302 627 290 q 565 321 582 315 q 509 339 548 327 z "},"%":{"ha":814,"x_min":191,"x_max":807,"o":"m 620 343 q 736 298 696 343 q 777 195 777 254 q 709 48 777 115 q 545 -19 642 -19 q 427 26 468 -19 q 387 127 387 71 q 454 275 387 206 q 620 343 521 343 m 610 282 q 503 234 547 282 q 458 133 458 186 q 488 64 458 85 q 553 42 517 42 q 661 87 617 42 q 705 187 705 133 q 677 258 705 233 q 610 282 648 282 m 433 833 q 549 788 509 833 q 590 685 590 743 q 522 538 590 605 q 358 471 454 471 q 240 515 281 471 q 199 617 199 560 q 267 764 199 696 q 433 833 334 833 m 423 772 q 315 724 359 772 q 271 623 271 675 q 300 553 271 575 q 366 532 330 532 q 474 577 430 532 q 518 677 518 623 q 490 747 518 723 q 423 772 461 772 m 792 578 l 807 514 l 205 254 l 191 319 l 792 578 z "},"&":{"ha":814,"x_min":168,"x_max":746,"o":"m 667 381 l 746 381 l 732 316 l 701 316 q 586 138 642 205 l 621 64 l 667 64 l 659 0 l 574 0 l 534 79 q 528 80 532 81 q 515 72 524 79 q 501 59 507 65 q 488 46 495 53 q 479 38 480 39 q 410 4 460 18 q 324 -9 361 -9 q 215 31 262 -9 q 168 148 168 72 q 174 195 168 170 q 199 262 180 221 q 264 342 217 302 q 381 410 312 382 q 336 555 336 500 q 401 685 336 635 q 541 735 467 735 q 632 718 574 735 q 663 712 648 712 q 708 723 684 712 l 667 604 q 639 634 651 623 q 598 658 627 646 q 534 670 570 670 q 440 634 476 670 q 404 563 404 598 q 446 431 404 518 l 557 197 q 656 358 633 312 l 665 376 q 667 381 667 380 m 509 138 l 407 357 q 290 276 339 330 q 241 159 241 222 q 265 87 241 119 q 346 56 289 56 q 509 138 427 56 z "},"'":{"ha":814,"x_min":450,"x_max":659,"o":"m 505 764 l 659 764 l 551 381 l 450 381 l 505 764 z "},"(":{"ha":814,"x_min":389,"x_max":628,"o":"m 559 880 l 628 880 q 577 780 595 819 q 530 668 559 741 q 486 522 500 595 q 471 374 471 448 q 502 171 471 279 q 559 7 533 62 q 628 -130 585 -47 l 559 -130 q 436 123 483 -16 q 389 374 389 262 q 435 625 389 486 q 559 880 481 765 z "},")":{"ha":814,"x_min":186,"x_max":426,"o":"m 256 -130 l 186 -130 q 345 374 345 160 q 329 523 345 448 q 284 671 313 598 q 236 783 255 743 q 186 880 217 822 l 256 880 q 382 619 338 755 q 426 374 426 483 q 380 125 426 263 q 256 -130 335 -12 z "},"*":{"ha":814,"x_min":260,"x_max":773,"o":"m 518 764 l 612 764 l 559 564 l 764 633 l 773 547 l 566 492 l 659 335 l 575 281 l 498 449 l 350 281 l 285 335 l 445 492 l 260 547 l 307 633 l 483 564 l 518 764 z "},"+":{"ha":814,"x_min":178,"x_max":812,"o":"m 461 723 l 529 723 l 529 445 l 812 445 l 812 377 l 529 377 l 529 99 l 461 99 l 461 377 l 178 377 l 178 445 l 461 445 l 461 723 z "},",":{"ha":814,"x_min":206,"x_max":522,"o":"m 380 180 l 522 180 l 304 -148 l 206 -148 l 380 180 z "},"-":{"ha":814,"x_min":351,"x_max":639,"o":"m 351 430 l 639 430 l 639 355 l 351 355 l 351 430 z "},".":{"ha":814,"x_min":313,"x_max":525,"o":"m 437 161 q 499 140 473 161 q 525 85 525 118 q 487 8 525 39 q 403 -23 449 -23 q 340 -2 366 -23 q 313 53 313 19 q 352 130 313 98 q 437 161 391 161 z "},"/":{"ha":814,"x_min":87,"x_max":884,"o":"m 829 952 l 884 926 l 142 -180 l 87 -152 l 829 952 z "},":":{"ha":814,"x_min":313,"x_max":604,"o":"m 517 529 q 578 507 552 529 q 604 453 604 486 q 565 376 604 407 q 481 345 526 345 q 418 366 445 345 q 392 420 392 387 q 431 497 392 465 q 517 529 469 529 m 438 161 q 499 140 473 161 q 525 85 525 118 q 486 8 525 39 q 403 -23 448 -23 q 340 -2 366 -23 q 313 53 313 19 q 352 130 313 98 q 438 161 391 161 z "},";":{"ha":814,"x_min":212,"x_max":604,"o":"m 387 182 l 528 182 l 311 -146 l 212 -146 l 387 182 m 517 529 q 578 507 552 529 q 604 453 604 486 q 565 376 604 407 q 481 345 526 345 q 418 366 445 345 q 392 420 392 387 q 431 497 392 465 q 517 529 469 529 z "},"<":{"ha":814,"x_min":145,"x_max":812,"o":"m 785 121 l 145 418 l 785 722 l 812 661 l 296 418 l 812 180 l 785 121 z "},"=":{"ha":814,"x_min":175,"x_max":815,"o":"m 175 568 l 815 568 l 815 500 l 175 500 l 175 568 m 175 323 l 815 323 l 815 255 l 175 255 l 175 323 z "},">":{"ha":814,"x_min":191,"x_max":859,"o":"m 218 715 l 859 418 l 218 114 l 191 175 l 708 418 l 191 655 l 218 715 z "},"?":{"ha":814,"x_min":277,"x_max":764,"o":"m 286 590 l 316 730 q 543 776 463 776 q 712 722 661 776 q 764 600 764 667 q 464 323 764 395 l 446 241 l 380 241 l 408 374 q 421 377 411 374 q 435 380 431 380 q 520 401 495 395 q 581 427 545 408 q 642 472 616 445 q 693 590 693 524 q 673 658 693 631 q 621 694 654 685 q 571 707 589 704 q 536 709 553 709 q 373 675 453 709 l 354 590 l 286 590 m 388 144 q 446 124 423 144 q 468 75 468 104 q 434 7 468 37 q 357 -23 400 -23 q 299 -3 321 -23 q 277 47 277 18 q 310 115 277 85 q 388 144 343 144 z "},"@":{"ha":814,"x_min":106,"x_max":861,"o":"m 719 134 l 738 76 q 387 -19 551 -19 q 178 56 250 -19 q 106 258 106 132 q 136 424 106 340 q 224 579 167 507 q 372 696 281 651 q 572 741 463 741 q 783 672 704 741 q 861 487 861 604 q 783 245 861 346 q 614 144 704 144 q 552 157 593 144 q 528 172 536 163 q 509 209 521 182 l 480 187 q 363 141 429 141 q 309 165 335 141 q 283 235 283 190 q 367 440 283 332 q 543 548 450 548 q 609 494 590 548 l 632 541 l 703 541 l 600 327 q 571 251 571 270 q 585 220 571 232 q 618 208 598 208 q 741 293 684 208 q 798 479 798 378 q 773 582 798 540 q 708 643 749 624 q 633 669 667 662 q 562 677 598 677 q 392 637 468 677 q 271 534 316 597 q 203 400 227 471 q 179 262 179 330 q 241 97 179 149 q 399 45 302 45 q 709 130 530 45 q 715 133 711 130 l 719 134 m 381 208 q 498 292 438 208 q 559 437 559 377 q 549 468 559 456 q 525 480 540 480 q 412 393 472 480 q 353 247 353 307 q 381 208 353 208 z "},"A":{"ha":814,"x_min":12,"x_max":812,"o":"m 313 764 l 605 764 l 743 64 l 812 64 l 799 0 l 521 0 l 534 64 l 673 64 l 635 252 l 283 252 l 165 64 l 302 64 l 290 0 l 12 0 l 26 64 l 96 64 l 494 700 l 302 700 l 313 764 m 625 312 l 552 684 l 320 312 l 625 312 z "},"B":{"ha":814,"x_min":58,"x_max":812,"o":"m 220 764 l 589 764 q 812 605 812 764 q 666 399 812 475 q 699 384 686 391 q 736 360 712 377 q 772 314 760 343 q 784 247 784 285 q 759 148 784 197 q 693 66 734 99 q 602 21 656 37 q 511 3 548 5 q 419 0 475 0 l 58 0 l 72 64 l 184 64 l 317 700 l 206 700 l 220 764 m 578 700 l 388 700 l 330 430 l 509 430 q 618 447 571 430 q 687 485 665 464 q 723 533 709 506 q 739 574 736 560 q 742 595 742 587 q 578 700 742 700 m 490 366 l 317 366 l 252 64 l 426 64 q 648 111 589 64 q 713 243 713 163 q 490 366 713 366 z "},"C":{"ha":814,"x_min":159,"x_max":916,"o":"m 861 764 l 916 753 q 909 731 916 751 q 895 689 905 719 q 882 652 884 659 q 873 623 880 644 q 865 592 867 601 q 859 566 863 583 q 852 533 854 548 q 848 499 850 518 l 788 499 q 792 553 792 528 q 771 640 792 604 q 718 691 750 675 q 659 713 685 707 q 610 719 633 719 q 343 590 454 719 q 232 281 232 461 q 287 112 232 179 q 471 45 342 45 q 741 136 613 45 q 749 141 746 141 l 788 84 q 717 38 747 56 q 615 -1 686 20 q 467 -23 544 -23 q 233 62 308 -23 q 159 282 159 146 q 295 638 159 490 q 613 787 431 787 q 777 723 711 787 q 789 709 779 722 q 809 688 800 697 q 819 680 818 680 q 849 730 829 680 q 857 750 853 741 q 861 764 860 760 z "},"D":{"ha":814,"x_min":43,"x_max":841,"o":"m 206 764 l 543 764 q 747 722 688 764 q 816 632 791 690 q 841 509 841 574 q 833 413 841 465 q 790 275 825 361 q 697 123 755 189 q 380 0 589 0 l 43 0 l 57 64 l 164 64 l 300 700 l 193 700 l 206 764 m 534 700 l 369 700 l 233 64 l 389 64 q 647 165 560 64 q 740 332 712 241 q 768 488 768 422 q 700 663 768 609 q 534 700 656 700 z "},"E":{"ha":814,"x_min":75,"x_max":883,"o":"m 237 764 l 883 764 l 836 514 l 773 514 l 799 700 l 408 700 l 351 435 l 571 435 l 593 534 l 655 534 l 600 274 l 537 274 l 557 372 l 339 372 l 273 64 l 677 64 l 723 250 l 787 250 l 734 0 l 75 0 l 88 64 l 205 64 l 339 700 l 224 700 l 237 764 z "},"F":{"ha":814,"x_min":98,"x_max":894,"o":"m 260 764 l 894 764 l 849 519 l 788 519 l 811 700 l 423 700 l 366 435 l 586 435 l 608 536 l 669 536 l 614 277 l 552 277 l 572 372 l 355 372 l 288 64 l 464 64 l 450 0 l 98 0 l 111 64 l 222 64 l 355 700 l 247 700 l 260 764 z "},"G":{"ha":814,"x_min":133,"x_max":894,"o":"m 518 335 l 853 335 l 840 273 l 774 273 l 726 42 q 434 -23 559 -23 q 212 58 290 -23 q 133 277 133 138 q 191 518 133 401 q 355 711 250 635 q 585 787 460 787 q 696 761 646 787 q 776 692 747 735 l 789 678 q 799 687 793 678 q 810 708 804 696 q 820 732 815 720 q 827 754 825 745 l 831 764 l 894 753 q 831 505 842 610 l 766 494 q 747 631 772 583 q 578 719 701 719 q 317 586 427 719 q 206 278 206 453 q 265 109 206 172 q 448 45 324 45 q 667 90 532 45 l 707 273 l 505 273 l 518 335 z "},"H":{"ha":814,"x_min":50,"x_max":922,"o":"m 213 764 l 487 764 l 471 700 l 369 700 l 311 426 l 681 426 l 738 700 l 637 700 l 651 764 l 922 764 l 909 700 l 807 700 l 670 64 l 773 64 l 760 0 l 487 0 l 502 64 l 604 64 l 670 362 l 300 362 l 235 64 l 336 64 l 321 0 l 50 0 l 64 64 l 165 64 l 300 700 l 199 700 l 213 764 z "},"I":{"ha":814,"x_min":133,"x_max":838,"o":"m 296 764 l 838 764 l 825 700 l 587 700 l 453 64 l 689 64 l 675 0 l 133 0 l 146 64 l 384 64 l 518 700 l 282 700 l 296 764 z "},"J":{"ha":814,"x_min":103,"x_max":947,"o":"m 438 764 l 947 764 l 933 700 l 760 700 l 670 277 q 604 90 640 142 q 509 7 568 37 q 382 -23 450 -23 q 103 64 267 -23 l 153 357 l 220 357 l 197 224 q 195 207 197 220 q 191 180 193 194 q 190 156 190 167 q 250 74 190 103 q 376 45 311 45 q 463 59 426 45 q 522 92 500 73 q 561 146 544 111 q 585 206 578 180 q 601 277 591 232 l 690 700 l 425 700 l 438 764 z "},"K":{"ha":814,"x_min":79,"x_max":918,"o":"m 241 764 l 538 764 l 525 700 l 412 700 l 345 393 l 749 697 l 749 700 l 639 700 l 652 764 l 918 764 l 905 700 l 846 700 l 498 434 q 682 64 590 292 l 810 64 l 795 0 l 629 0 q 618 33 629 0 q 441 393 537 251 l 328 308 l 277 64 l 391 64 l 377 0 l 79 0 l 92 64 l 208 64 l 345 700 l 228 700 l 241 764 z "},"L":{"ha":814,"x_min":77,"x_max":821,"o":"m 240 764 l 610 764 l 597 700 l 430 700 l 294 64 l 678 64 l 755 338 l 821 338 l 732 0 l 77 0 l 91 64 l 227 64 l 362 700 l 227 700 l 240 764 z "},"M":{"ha":814,"x_min":0,"x_max":959,"o":"m 172 764 l 393 764 l 457 304 l 480 304 l 746 764 l 959 764 l 945 700 l 861 700 l 736 64 l 826 64 l 817 0 l 509 0 l 522 64 l 671 64 l 795 700 l 772 700 l 480 195 l 411 195 l 338 700 l 313 700 l 159 64 l 307 64 l 293 0 l 0 0 l 14 64 l 96 64 l 252 700 l 159 700 l 172 764 z "},"N":{"ha":814,"x_min":35,"x_max":962,"o":"m 198 764 l 429 764 l 637 57 l 661 57 l 792 700 l 646 700 l 661 764 l 962 764 l 948 700 l 856 700 l 712 -18 l 589 -18 l 378 700 l 357 700 l 225 64 l 372 64 l 357 0 l 35 0 l 49 64 l 161 64 l 293 700 l 184 700 l 198 764 z "},"O":{"ha":814,"x_min":125,"x_max":846,"o":"m 125 286 q 157 457 125 369 q 246 618 190 545 q 388 739 302 692 q 568 787 473 787 q 690 763 637 787 q 772 705 743 739 q 818 628 800 671 q 841 552 836 585 q 846 490 846 519 q 716 135 846 293 q 403 -23 586 -23 q 275 3 330 -23 q 193 66 221 30 q 149 149 165 102 q 129 227 133 197 q 125 286 125 258 m 198 292 q 208 213 198 252 q 238 133 217 174 q 304 66 259 92 q 410 41 349 41 q 593 106 509 41 q 726 273 678 172 q 773 481 773 374 q 756 587 773 536 q 689 680 739 637 q 562 723 639 723 q 375 654 461 723 q 243 488 289 586 q 198 292 198 389 z "},"P":{"ha":814,"x_min":123,"x_max":868,"o":"m 286 764 l 594 764 q 806 715 750 764 q 868 570 868 659 q 841 463 868 515 q 772 372 814 410 q 679 321 734 338 q 580 302 624 305 q 442 300 536 300 l 363 300 l 313 64 l 514 64 l 500 0 l 123 0 l 137 64 l 248 64 l 384 700 l 273 700 l 286 764 m 585 700 l 450 700 l 377 363 l 450 363 q 567 365 532 363 q 648 378 602 366 q 722 414 694 389 q 798 566 798 483 q 782 631 798 604 q 747 671 766 658 q 694 691 728 684 q 640 699 659 699 q 585 700 620 700 z "},"Q":{"ha":814,"x_min":125,"x_max":846,"o":"m 682 -71 l 713 -122 q 570 -172 633 -172 q 460 -140 525 -172 q 362 -114 407 -114 q 302 -121 332 -114 q 252 -138 273 -129 q 187 -171 232 -148 l 167 -115 q 307 -8 228 -81 q 177 90 229 14 q 125 267 125 167 q 256 631 125 475 q 572 787 388 787 q 662 772 617 787 q 750 725 707 757 q 820 632 793 693 q 846 490 846 571 q 829 357 846 426 q 773 220 811 289 q 682 96 735 151 q 549 9 628 42 q 378 -23 471 -24 q 347 -49 373 -30 l 350 -52 q 486 -77 414 -45 q 572 -106 551 -106 q 682 -71 617 -106 m 198 292 q 208 213 198 252 q 238 133 217 174 q 304 66 259 92 q 410 41 349 41 q 593 106 509 41 q 726 273 678 172 q 773 481 773 374 q 756 587 773 536 q 689 680 739 637 q 562 723 639 723 q 375 654 461 723 q 243 488 289 586 q 198 292 198 389 z "},"R":{"ha":814,"x_min":60,"x_max":796,"o":"m 221 764 l 567 764 q 628 762 606 764 q 686 753 650 761 q 743 728 723 745 q 780 680 764 712 q 796 600 796 647 q 729 437 796 511 q 547 351 662 363 q 560 321 552 338 q 643 137 566 309 l 674 64 l 795 64 l 781 0 l 610 0 q 511 262 583 110 q 473 345 487 311 l 472 347 q 471 351 471 350 l 312 351 l 251 64 l 373 64 l 359 0 l 60 0 l 73 64 l 184 64 l 319 700 l 208 700 l 221 764 m 559 700 l 385 700 l 324 411 l 453 411 q 648 453 590 411 q 726 597 726 509 q 713 656 726 633 q 671 687 700 678 q 622 698 643 696 q 559 700 601 700 z "},"S":{"ha":814,"x_min":91,"x_max":856,"o":"m 800 788 l 856 773 q 783 519 799 632 l 726 530 q 731 578 731 557 q 682 686 731 650 q 551 723 632 723 q 387 671 450 723 q 323 549 323 618 q 340 479 323 507 q 391 439 358 452 q 445 424 425 427 q 499 418 465 420 q 739 235 739 401 q 659 56 739 136 q 438 -23 578 -23 q 213 57 283 -23 q 198 69 205 69 q 149 -26 187 69 l 91 -16 q 129 110 118 66 q 149 228 140 153 l 209 228 q 216 169 208 198 q 245 109 224 140 q 315 60 267 79 q 430 41 362 41 q 605 98 544 41 q 666 229 666 156 q 654 281 666 259 q 627 314 642 302 q 581 334 612 326 q 532 345 551 342 q 476 350 514 347 q 324 396 373 359 q 270 463 290 422 q 250 548 250 505 q 330 711 250 636 q 545 787 411 787 q 726 715 669 787 q 741 703 738 703 q 795 779 760 703 l 798 783 q 800 788 800 787 z "},"T":{"ha":814,"x_min":160,"x_max":892,"o":"m 241 764 l 892 764 l 852 479 l 787 479 l 818 700 l 586 700 l 452 64 l 617 64 l 604 0 l 208 0 l 222 64 l 385 64 l 521 700 l 290 700 l 227 479 l 160 479 l 241 764 z "},"U":{"ha":814,"x_min":186,"x_max":947,"o":"m 201 764 l 506 764 l 492 700 l 355 700 l 273 317 q 255 176 255 229 q 260 142 255 160 q 279 100 264 125 q 330 61 294 76 q 419 46 366 46 q 528 63 481 46 q 600 101 574 80 q 645 163 625 122 q 671 231 665 205 q 689 308 678 258 l 773 700 l 633 700 l 647 764 l 947 764 l 933 700 l 837 700 l 751 300 q 703 138 728 190 q 639 54 678 87 q 408 -23 544 -23 q 252 23 319 -23 q 186 167 186 69 q 206 317 186 222 l 288 700 l 187 700 l 201 764 z "},"V":{"ha":814,"x_min":156,"x_max":966,"o":"m 170 764 l 460 764 l 449 700 l 317 700 l 425 76 l 802 700 l 663 700 l 677 764 l 966 764 l 952 700 l 869 700 l 449 0 l 366 0 l 250 700 l 156 700 l 170 764 z "},"W":{"ha":814,"x_min":151,"x_max":971,"o":"m 163 764 l 431 764 l 418 700 l 279 700 l 236 133 l 239 130 l 517 624 l 563 624 l 629 130 l 632 130 l 831 700 l 693 700 l 707 764 l 971 764 l 958 700 l 895 700 l 647 0 l 578 0 l 511 494 l 509 494 l 228 0 l 163 0 l 214 700 l 151 700 l 163 764 z "},"X":{"ha":814,"x_min":42,"x_max":905,"o":"m 231 764 l 494 764 l 480 700 l 369 700 l 505 452 l 743 700 l 642 700 l 655 764 l 905 764 l 891 700 l 822 700 l 529 401 l 709 64 l 781 64 l 768 0 l 494 0 l 505 64 l 631 64 l 480 351 l 202 64 l 346 64 l 331 0 l 42 0 l 56 64 l 123 64 l 453 401 l 290 700 l 217 700 l 231 764 z "},"Y":{"ha":814,"x_min":190,"x_max":932,"o":"m 203 764 l 471 764 l 456 700 l 353 700 l 486 363 l 758 700 l 654 700 l 667 764 l 932 764 l 918 700 l 834 700 l 503 296 l 456 64 l 614 64 l 601 0 l 212 0 l 225 64 l 387 64 l 437 296 l 277 700 l 190 700 l 203 764 z "},"Z":{"ha":814,"x_min":113,"x_max":830,"o":"m 283 764 l 830 764 l 818 707 l 209 64 l 648 64 l 697 283 l 758 283 l 697 0 l 113 0 l 126 64 l 727 700 l 334 700 l 292 502 l 228 502 l 283 764 z "},"[":{"ha":814,"x_min":419,"x_max":658,"o":"m 419 887 l 658 887 l 658 819 l 487 819 l 487 -60 l 658 -60 l 658 -127 l 419 -127 l 419 887 z "},"\\":{"ha":814,"x_min":321,"x_max":656,"o":"m 385 958 l 656 -161 l 593 -189 l 321 932 l 385 958 z "},"]":{"ha":814,"x_min":156,"x_max":395,"o":"m 395 -127 l 156 -127 l 156 -60 l 327 -60 l 327 819 l 156 819 l 156 887 l 395 887 l 395 -127 z "},"^":{"ha":814,"x_min":187,"x_max":803,"o":"m 495 650 l 290 209 l 187 209 l 445 764 l 545 764 l 803 209 l 700 209 l 495 650 z "},"_":{"ha":814,"x_min":-65,"x_max":879,"o":"m -65 -102 l 879 -102 l 879 -170 l -65 -170 l -65 -102 z "},"`":{"ha":814,"x_min":433,"x_max":658,"o":"m 433 838 l 575 838 l 658 682 l 590 682 l 433 838 z "},"a":{"ha":814,"x_min":111,"x_max":758,"o":"m 709 401 l 640 64 l 758 64 l 745 0 l 556 0 l 572 77 q 486 31 518 47 q 399 -2 454 15 q 290 -19 343 -19 q 161 26 212 -19 q 111 140 111 72 q 199 302 111 227 q 449 377 288 377 q 633 359 536 377 l 640 401 q 647 460 647 435 q 614 519 647 492 q 509 545 582 545 q 264 488 416 545 l 251 551 q 525 610 412 610 q 663 574 608 610 q 719 471 719 538 q 709 401 719 458 m 590 161 l 620 297 q 450 312 530 312 q 319 294 374 312 q 236 249 263 277 q 197 195 209 221 q 184 146 184 170 q 220 73 184 100 q 300 46 256 46 q 448 82 363 46 q 590 161 533 118 z "},"b":{"ha":814,"x_min":20,"x_max":802,"o":"m 183 841 l 377 853 l 296 475 l 298 472 q 552 587 414 587 q 729 523 656 587 q 802 345 802 458 q 688 98 802 209 q 434 -14 575 -14 q 218 106 289 -14 l 195 0 l 20 0 l 34 64 l 144 64 l 296 783 l 174 777 l 183 841 m 552 521 q 340 431 429 521 q 252 236 252 342 q 307 102 252 152 q 442 53 362 53 q 642 141 556 53 q 728 339 728 229 q 675 472 728 423 q 552 521 623 521 z "},"c":{"ha":814,"x_min":144,"x_max":818,"o":"m 769 606 l 818 595 q 769 378 777 491 l 711 370 q 711 413 709 391 q 703 458 712 435 q 678 498 694 480 q 626 526 662 515 q 538 537 590 537 q 305 442 393 537 q 217 235 217 347 q 243 130 217 172 q 309 73 269 88 q 373 52 349 57 q 420 47 397 47 q 700 149 528 47 l 727 94 q 640 43 675 62 q 535 3 605 24 q 401 -19 465 -19 q 317 -7 359 -19 q 235 33 275 5 q 169 110 194 60 q 144 228 144 160 q 257 488 144 372 q 536 604 370 604 q 712 536 644 604 q 724 529 719 529 q 769 606 742 529 z "},"d":{"ha":814,"x_min":127,"x_max":853,"o":"m 566 825 l 853 850 l 686 64 l 800 64 l 787 0 l 606 0 l 627 96 l 624 99 q 373 -14 514 -14 q 193 58 259 -14 q 127 228 127 129 q 241 477 127 369 q 492 586 355 586 q 615 556 557 586 q 700 472 673 526 l 703 472 l 770 777 l 544 764 l 566 825 m 376 53 q 584 141 498 53 q 670 338 670 229 q 620 469 670 419 q 491 519 570 519 q 288 433 373 519 q 203 232 203 346 q 256 99 203 145 q 376 53 309 53 z "},"e":{"ha":814,"x_min":152,"x_max":803,"o":"m 734 130 l 753 69 q 745 65 753 69 l 726 56 q 578 2 662 23 q 426 -19 494 -19 q 226 45 300 -19 q 152 221 152 109 q 266 487 152 370 q 544 604 380 604 q 737 538 671 604 q 803 381 803 472 q 784 282 803 339 l 783 275 l 227 275 q 225 236 225 263 q 245 141 225 180 q 298 83 264 102 q 363 56 331 64 q 434 47 396 47 q 542 62 483 47 q 636 90 601 77 q 734 130 671 103 m 244 336 l 727 336 q 730 373 730 355 q 682 489 730 441 q 536 537 633 537 q 349 475 422 537 q 244 336 275 412 z "},"f":{"ha":814,"x_min":129,"x_max":863,"o":"m 250 567 l 392 567 l 408 647 q 431 726 418 694 q 470 787 444 757 q 544 833 496 818 q 662 848 591 848 q 848 831 724 848 l 854 830 q 863 829 861 829 l 821 764 q 635 784 705 784 q 570 775 597 784 q 528 755 543 766 q 501 722 513 745 q 486 684 490 699 q 475 639 481 669 l 460 567 l 712 567 l 699 503 l 446 503 l 353 64 l 601 64 l 587 0 l 129 0 l 142 64 l 285 64 l 378 503 l 236 503 l 250 567 z "},"g":{"ha":814,"x_min":121,"x_max":872,"o":"m 693 583 l 872 583 l 859 519 l 747 519 l 646 35 q 547 -152 620 -91 q 320 -213 475 -213 q 205 -210 270 -213 l 221 -138 q 347 -146 300 -146 q 507 -102 453 -146 q 579 35 562 -57 l 594 114 l 591 117 q 357 15 484 15 q 185 81 250 15 q 121 245 121 148 q 229 482 121 376 q 480 589 338 589 q 587 564 533 589 q 671 483 642 538 l 693 583 m 363 81 q 558 165 477 81 q 639 355 639 248 q 591 477 639 431 q 475 522 543 522 q 278 439 362 522 q 194 252 194 357 q 249 123 194 165 q 363 81 304 81 z "},"h":{"ha":814,"x_min":49,"x_max":792,"o":"m 209 837 l 412 853 l 340 505 q 585 602 487 602 q 700 559 648 602 q 751 442 751 517 q 743 370 751 419 l 677 64 l 792 64 l 777 0 l 480 0 l 492 64 l 610 64 l 677 370 q 685 445 685 403 q 654 508 685 483 q 581 533 623 533 q 320 420 479 533 l 244 64 l 355 64 l 340 0 l 49 0 l 61 64 l 176 64 l 330 783 l 201 773 l 209 837 z "},"i":{"ha":814,"x_min":133,"x_max":689,"o":"m 296 583 l 564 583 l 454 64 l 689 64 l 675 0 l 133 0 l 146 64 l 385 64 l 481 519 l 282 519 l 296 583 m 496 728 l 530 890 l 629 890 l 595 728 l 496 728 z "},"j":{"ha":814,"x_min":50,"x_max":688,"o":"m 236 583 l 652 583 l 538 53 q 525 -3 532 20 q 496 -68 518 -26 q 445 -136 475 -110 q 359 -184 415 -163 q 232 -205 304 -205 q 50 -182 168 -205 l 80 -118 q 247 -138 182 -138 q 326 -130 290 -138 q 384 -102 361 -121 q 422 -66 407 -83 q 448 -21 438 -49 q 463 22 458 7 q 473 64 468 37 l 570 519 l 222 519 l 236 583 m 555 728 l 589 890 l 688 890 l 654 728 l 555 728 z "},"k":{"ha":814,"x_min":71,"x_max":836,"o":"m 225 836 l 431 853 l 319 327 l 612 517 l 612 519 l 537 519 l 551 583 l 836 583 l 822 519 l 716 519 l 449 343 q 661 64 581 198 l 776 64 l 762 0 l 480 0 l 494 64 l 582 64 q 392 305 534 141 l 302 247 l 250 0 l 71 0 l 83 64 l 195 64 l 349 783 l 218 772 l 225 836 z "},"l":{"ha":814,"x_min":136,"x_max":688,"o":"m 316 810 l 613 829 l 450 64 l 688 64 l 674 0 l 136 0 l 149 64 l 387 64 l 534 764 l 309 747 l 316 810 z "},"m":{"ha":814,"x_min":-7,"x_max":830,"o":"m 117 583 l 278 583 l 269 537 q 414 598 349 598 q 477 582 450 598 q 511 552 503 566 q 530 514 519 538 q 578 554 560 540 q 633 583 597 568 q 704 598 669 598 q 791 566 755 598 q 826 481 826 533 q 811 369 826 450 l 745 64 l 830 64 l 817 0 l 665 0 l 745 369 q 760 469 760 437 q 756 490 760 479 q 736 515 753 502 q 696 529 720 529 q 538 439 623 529 l 460 64 l 544 64 l 530 0 l 380 0 l 460 377 q 472 463 472 426 q 469 482 472 471 q 450 511 467 494 q 403 529 433 529 q 255 453 335 529 l 172 64 l 269 64 l 255 0 l -7 0 l 7 64 l 104 64 l 202 519 l 104 519 l 117 583 z "},"n":{"ha":814,"x_min":43,"x_max":787,"o":"m 168 583 l 350 583 l 331 503 q 578 602 477 602 q 695 559 643 602 q 747 441 747 517 q 738 370 747 427 l 671 64 l 787 64 l 773 0 l 475 0 l 487 64 l 605 64 l 671 370 q 681 445 681 408 q 650 507 681 481 q 572 533 618 533 q 455 506 513 533 q 313 423 397 479 l 237 64 l 350 64 l 338 0 l 43 0 l 57 64 l 168 64 l 266 519 l 153 519 l 168 583 z "},"o":{"ha":814,"x_min":123,"x_max":810,"o":"m 534 610 q 733 546 656 610 q 810 362 810 481 q 763 186 810 271 q 621 41 716 100 q 401 -19 525 -19 q 202 44 281 -19 q 123 229 123 107 q 236 491 123 372 q 534 610 349 610 m 525 547 q 288 450 380 547 q 197 237 197 354 q 250 101 197 157 q 412 45 304 45 q 646 142 555 45 q 736 353 736 240 q 681 492 736 438 q 525 547 625 547 z "},"p":{"ha":814,"x_min":-22,"x_max":811,"o":"m 148 583 l 327 583 l 307 491 l 309 488 q 566 601 416 601 q 747 530 682 601 q 811 361 811 458 q 694 102 811 213 q 442 -9 576 -9 q 409 -7 426 -9 q 355 5 392 -4 q 284 41 319 14 q 225 109 250 68 l 171 -149 l 373 -149 l 359 -213 l -22 -213 l -8 -149 l 103 -149 l 245 519 l 134 519 l 148 583 m 562 534 q 346 446 437 534 q 255 240 255 358 q 313 107 255 157 q 445 57 372 57 q 648 148 559 57 q 738 354 738 239 q 690 486 738 437 q 562 534 642 534 z "},"q":{"ha":814,"x_min":122,"x_max":909,"o":"m 731 583 l 909 583 l 895 519 l 784 519 l 643 -144 l 755 -144 l 742 -208 l 361 -208 l 374 -144 l 576 -144 l 628 99 l 625 102 q 518 24 585 58 q 370 -11 452 -11 q 188 62 254 -11 q 122 233 122 134 q 235 484 122 370 q 499 598 347 598 q 625 565 568 598 q 708 480 681 532 l 731 583 m 370 56 q 585 141 492 56 q 677 347 677 227 q 621 482 677 433 q 484 532 564 532 q 282 439 369 532 q 195 243 195 346 q 243 110 195 164 q 370 56 292 56 z "},"r":{"ha":814,"x_min":99,"x_max":857,"o":"m 235 583 l 461 583 l 434 461 l 437 458 q 505 524 476 499 q 589 573 534 548 q 700 598 643 598 q 730 595 715 598 q 773 581 745 593 q 825 538 802 570 q 857 458 848 507 l 781 450 q 768 489 774 475 q 741 517 761 503 q 690 532 720 532 q 543 471 620 532 q 410 339 465 411 l 351 64 l 608 64 l 594 0 l 99 0 l 113 64 l 282 64 l 380 519 l 221 519 l 235 583 z "},"s":{"ha":814,"x_min":138,"x_max":781,"o":"m 734 608 l 781 601 q 742 397 750 505 l 685 397 q 682 442 685 426 q 663 484 678 458 q 608 524 648 510 q 505 537 568 537 q 360 499 416 537 q 304 412 304 461 q 311 379 304 393 q 334 356 317 365 q 366 341 351 347 q 413 332 381 335 q 466 327 445 328 q 529 323 487 326 q 730 190 730 313 q 648 45 730 109 q 430 -19 567 -19 q 312 0 358 -19 q 247 38 266 19 q 233 49 240 49 q 190 -20 221 49 l 138 -12 q 144 4 138 -7 q 151 30 145 8 q 163 70 157 52 q 168 92 168 88 q 175 180 175 153 q 177 191 176 183 q 178 201 178 198 l 237 209 q 248 117 236 141 q 313 67 264 87 q 427 47 361 47 q 590 85 522 47 q 658 186 658 122 q 621 240 658 228 q 487 258 585 252 q 483 258 484 258 q 439 260 454 259 q 393 266 423 262 q 344 275 362 270 q 301 292 326 281 q 263 318 277 304 q 240 355 250 332 q 231 404 231 377 q 307 541 231 480 q 509 601 382 601 q 675 547 616 601 q 689 538 684 538 q 727 594 701 538 q 731 602 728 597 l 734 608 z "},"t":{"ha":814,"x_min":248,"x_max":739,"o":"m 396 764 l 461 764 l 419 564 l 722 564 l 708 500 l 407 500 l 353 244 q 336 129 336 171 q 338 116 336 123 q 345 96 339 109 q 362 73 351 83 q 395 55 373 62 q 449 47 418 47 q 739 125 548 47 l 739 57 q 444 -19 556 -19 q 311 23 355 -19 q 266 113 266 65 q 286 244 266 142 l 340 500 l 248 500 l 262 564 l 353 564 l 396 764 z "},"u":{"ha":814,"x_min":153,"x_max":765,"o":"m 167 583 l 345 583 l 269 224 q 259 148 259 157 q 284 81 259 115 q 363 47 309 47 q 610 168 483 47 l 685 519 l 570 519 l 583 583 l 765 583 l 656 64 l 765 64 l 751 0 l 575 0 l 590 71 q 527 28 551 43 q 456 -3 503 14 q 359 -19 408 -19 q 273 1 309 -19 q 220 50 236 20 q 198 104 205 80 q 191 151 191 129 q 201 224 191 176 l 263 519 l 153 519 l 167 583 z "},"v":{"ha":814,"x_min":137,"x_max":907,"o":"m 151 583 l 439 583 l 426 519 l 316 519 l 426 79 l 724 519 l 618 519 l 632 583 l 907 583 l 894 519 l 795 519 l 439 0 l 374 0 l 239 519 l 137 519 l 151 583 z "},"w":{"ha":814,"x_min":113,"x_max":933,"o":"m 126 583 l 368 583 l 354 519 l 241 519 l 274 109 l 277 109 l 487 477 l 534 477 l 590 103 l 593 103 l 803 519 l 689 519 l 703 583 l 933 583 l 920 519 l 868 519 l 606 0 l 534 0 l 483 350 l 480 350 l 279 0 l 213 0 l 171 519 l 113 519 l 126 583 z "},"x":{"ha":814,"x_min":33,"x_max":867,"o":"m 176 583 l 439 583 l 426 519 l 342 519 l 476 350 l 681 517 l 681 519 l 604 519 l 617 583 l 867 583 l 853 519 l 772 519 l 513 305 l 703 64 l 791 64 l 777 0 l 500 0 l 513 64 l 612 64 l 457 262 l 221 66 l 221 64 l 315 64 l 301 0 l 33 0 l 46 64 l 129 64 l 422 305 l 252 519 l 163 519 l 176 583 z "},"y":{"ha":814,"x_min":153,"x_max":888,"o":"m 594 583 l 888 583 l 875 519 l 764 519 l 665 54 q 653 2 658 20 q 636 -50 648 -16 q 610 -102 624 -83 q 570 -148 595 -122 q 512 -187 544 -174 q 433 -211 480 -201 q 327 -221 385 -221 q 198 -209 277 -221 l 213 -136 q 342 -155 286 -155 q 443 -142 400 -155 q 510 -113 486 -129 q 552 -64 534 -96 q 576 -9 570 -31 q 594 54 583 12 l 610 122 l 608 125 q 385 20 494 20 q 249 74 300 20 q 198 220 198 127 q 206 279 198 243 l 256 519 l 153 519 l 165 583 l 461 583 l 449 519 l 326 519 l 274 274 q 269 222 269 244 q 307 120 269 153 q 397 87 345 87 q 632 222 495 87 l 694 519 l 579 519 l 594 583 z "},"z":{"ha":814,"x_min":138,"x_max":796,"o":"m 277 583 l 796 583 l 783 524 l 247 64 l 620 64 l 646 189 l 712 189 l 671 0 l 138 0 l 152 64 l 684 519 l 328 519 l 302 399 l 237 399 l 277 583 z "},"{":{"ha":814,"x_min":319,"x_max":625,"o":"m 625 884 l 625 819 q 572 817 593 819 q 525 805 551 814 q 486 774 499 796 q 472 718 472 753 q 488 608 472 678 l 499 560 q 506 500 506 513 q 493 444 506 469 q 467 406 480 418 q 431 377 454 395 q 466 349 453 361 q 492 311 479 336 q 506 255 506 285 q 499 195 506 243 l 488 148 q 472 37 472 77 q 486 -20 472 1 q 528 -51 500 -42 q 576 -62 556 -60 q 625 -64 595 -64 l 625 -129 q 514 -118 548 -129 q 431 -58 461 -100 q 401 39 401 -15 q 410 107 401 69 q 422 163 416 145 q 434 258 434 227 q 319 343 434 331 l 319 412 q 434 500 434 423 q 422 593 434 532 q 401 712 401 696 q 625 884 401 884 z "},"|":{"ha":814,"x_min":458,"x_max":530,"o":"m 530 913 l 530 -251 l 458 -251 l 458 913 l 530 913 z "},"}":{"ha":814,"x_min":189,"x_max":495,"o":"m 189 -129 l 189 -64 q 242 -61 221 -64 q 289 -50 263 -58 q 328 -19 315 -41 q 342 38 342 3 q 326 148 342 77 l 315 195 q 308 255 308 243 q 321 312 308 286 q 347 349 334 338 q 382 378 359 361 q 348 407 361 395 q 321 445 335 419 q 308 500 308 471 q 315 560 308 513 l 326 608 q 342 719 342 678 q 328 776 342 754 q 286 806 313 798 q 238 817 258 815 q 189 819 218 819 l 189 884 q 300 873 266 884 q 382 813 353 856 q 412 716 412 770 q 404 648 412 686 q 392 593 397 610 q 380 498 380 529 q 495 412 380 423 l 495 343 q 380 255 380 332 q 392 163 380 224 q 412 43 412 60 q 189 -129 412 -129 z "},"~":{"ha":814,"x_min":203,"x_max":785,"o":"m 741 525 l 785 473 q 620 345 716 345 q 492 382 587 345 q 370 423 397 423 q 321 406 345 423 q 286 371 298 389 q 250 311 274 353 l 203 363 q 234 412 222 396 q 267 453 245 429 q 315 489 289 477 q 370 500 340 500 q 513 457 410 500 q 618 422 598 422 q 734 513 682 422 q 741 525 734 518 z "},"¡":{"ha":814,"x_min":345,"x_max":648,"o":"m 345 -187 l 477 326 l 540 326 l 457 -187 l 345 -187 m 537 444 q 479 464 500 444 q 457 513 457 484 q 490 581 457 551 q 568 610 524 610 q 625 591 602 610 q 648 541 648 571 q 615 473 648 502 q 537 444 582 444 z "},"¢":{"ha":814,"x_min":222,"x_max":807,"o":"m 556 831 l 621 831 l 582 646 q 684 604 655 633 q 703 590 697 590 q 751 666 716 590 l 807 652 q 765 467 769 560 l 709 454 q 703 504 707 488 q 686 539 699 519 q 644 569 673 559 q 568 583 616 579 l 484 184 q 709 270 578 194 l 731 213 q 471 119 581 119 l 429 -76 l 365 -76 l 406 119 q 222 327 222 153 q 306 535 222 441 q 517 646 389 629 l 556 831 m 420 187 l 503 583 q 377 518 427 566 q 311 425 327 471 q 296 336 296 380 q 420 187 296 206 z "},"£":{"ha":814,"x_min":179,"x_max":804,"o":"m 227 471 l 345 471 q 339 567 339 530 q 403 749 339 670 q 593 827 467 827 q 709 798 670 827 q 726 789 722 789 q 742 810 734 789 q 743 814 742 811 q 745 818 745 817 q 747 826 747 823 l 804 818 q 789 684 789 750 q 791 631 789 658 l 730 631 q 727 661 728 650 q 718 694 726 671 q 696 729 709 716 q 654 753 682 742 q 589 764 627 764 q 500 745 537 764 q 446 704 464 727 q 419 646 429 681 q 408 595 410 612 q 407 557 407 578 q 414 471 407 515 l 709 471 l 696 410 l 420 410 q 423 361 423 380 q 414 290 423 321 q 361 156 404 259 q 319 94 347 125 l 300 76 l 302 73 q 380 91 347 91 q 492 66 430 91 q 568 47 538 47 q 623 60 598 47 q 656 83 648 73 q 680 111 665 92 l 730 64 q 566 -19 666 -19 q 472 1 525 -19 q 382 27 412 27 q 212 -27 316 27 l 179 33 q 309 191 263 102 q 355 370 355 279 q 355 393 355 381 q 354 410 354 406 l 212 410 l 227 471 z "},"¤":{"ha":814,"x_min":190,"x_max":800,"o":"m 689 236 l 800 127 l 753 81 l 643 190 q 495 140 581 140 q 347 190 412 140 l 237 81 l 190 127 l 301 236 q 254 372 254 305 q 301 528 254 460 l 190 637 l 237 682 l 347 574 q 495 624 411 624 q 643 574 575 624 l 753 682 l 800 637 l 689 528 q 738 392 738 460 q 689 236 738 304 m 623 257 q 649 284 623 257 q 674 382 674 311 q 624 507 674 454 q 495 560 574 560 q 366 507 415 560 q 317 382 317 453 q 366 257 317 311 q 494 203 415 203 q 623 257 572 203 z "},"¥":{"ha":814,"x_min":209,"x_max":911,"o":"m 391 64 l 414 178 l 225 178 l 240 241 l 427 241 l 444 312 l 255 312 l 269 376 l 457 376 l 457 388 l 289 700 l 209 700 l 225 764 l 476 764 l 463 700 l 365 700 l 503 450 l 739 700 l 648 700 l 662 764 l 911 764 l 898 700 l 827 700 l 526 388 l 526 376 l 711 376 l 697 312 l 511 312 l 496 241 l 682 241 l 669 178 l 483 178 l 457 64 l 609 64 l 595 0 l 225 0 l 240 64 l 391 64 z "},"¦":{"ha":814,"x_min":458,"x_max":530,"o":"m 530 913 l 530 407 l 458 407 l 458 913 l 530 913 m 530 255 l 530 -251 l 458 -251 l 458 255 l 530 255 z "},"§":{"ha":814,"x_min":156,"x_max":804,"o":"m 804 764 l 765 581 l 696 581 l 720 697 l 574 697 q 507 686 534 697 q 469 656 480 674 q 455 625 458 637 q 452 602 452 613 q 481 537 452 567 l 642 392 q 685 350 671 365 q 711 311 699 335 q 724 262 724 288 q 682 163 724 209 q 574 109 640 118 q 591 46 591 80 q 581 -3 591 23 q 547 -58 570 -30 q 479 -105 525 -87 q 373 -123 434 -123 l 156 -123 l 197 71 l 266 71 l 239 -57 l 389 -57 q 484 -28 449 -57 q 518 39 518 1 q 481 109 518 77 l 328 250 q 270 313 286 288 q 254 372 254 338 q 290 466 254 420 q 396 529 327 511 q 378 589 378 564 q 380 614 378 601 q 393 657 381 628 q 427 708 406 686 q 494 747 449 730 q 601 764 538 764 l 804 764 m 589 345 l 444 477 q 358 441 389 472 q 327 378 327 411 q 374 302 327 346 l 529 161 q 621 193 590 164 q 651 254 651 222 q 589 345 651 286 z "},"¨":{"ha":814,"x_min":415,"x_max":720,"o":"m 415 696 l 445 842 l 544 842 l 513 696 l 415 696 m 591 696 l 623 842 l 720 842 l 689 696 l 591 696 z "},"©":{"ha":814,"x_min":90,"x_max":882,"o":"m 705 591 l 678 463 l 639 463 q 647 530 647 511 q 616 572 647 559 q 552 585 586 585 q 395 509 456 585 q 334 342 334 434 q 369 237 334 275 q 461 199 404 199 q 614 289 551 199 l 620 296 l 651 282 q 646 273 646 277 q 553 187 610 217 q 438 157 496 157 q 313 203 363 157 q 263 336 263 248 q 342 534 263 446 q 551 623 422 623 q 697 595 632 623 l 705 591 m 205 671 q 263 729 205 671 q 486 787 321 787 q 766 671 650 787 q 882 389 882 555 q 766 109 882 225 q 486 -7 650 -7 q 205 109 321 -7 q 90 389 90 225 q 205 671 90 555 m 486 735 q 243 634 345 735 q 141 389 141 533 q 242 146 141 248 q 486 45 343 45 q 729 146 628 45 q 830 389 830 247 q 729 634 830 533 q 486 735 628 735 z "},"ª":{"ha":814,"x_min":294,"x_max":689,"o":"m 429 707 l 419 753 q 564 787 510 787 q 640 767 613 787 q 667 712 667 747 l 663 677 l 629 518 l 689 518 l 678 469 l 568 469 l 576 507 q 446 460 506 460 q 378 484 406 460 q 351 543 351 507 q 402 634 351 597 q 528 671 453 671 q 609 665 562 671 l 610 675 l 614 700 q 553 738 614 738 q 429 707 507 738 m 590 574 l 600 616 q 524 623 552 623 q 438 603 472 623 q 404 553 404 583 q 420 522 404 536 q 457 509 435 509 q 587 571 517 509 l 590 574 m 305 410 l 680 410 l 669 361 l 294 361 l 305 410 z "},"«":{"ha":814,"x_min":136,"x_max":807,"o":"m 397 35 l 136 312 l 507 583 l 547 528 l 237 301 l 448 80 l 397 35 m 658 35 l 397 312 l 766 583 l 807 528 l 498 301 l 707 80 l 658 35 z "},"¬":{"ha":814,"x_min":175,"x_max":757,"o":"m 175 594 l 757 594 l 757 229 l 686 229 l 686 524 l 175 524 l 175 594 z "},"®":{"ha":814,"x_min":91,"x_max":882,"o":"m 340 598 l 347 629 l 534 629 q 671 538 671 629 q 668 511 671 525 q 654 472 665 496 q 614 427 643 448 q 540 397 585 407 q 578 320 566 372 l 589 275 q 609 219 600 228 q 656 212 618 210 l 650 182 l 597 182 q 547 205 560 182 q 524 286 533 229 q 498 370 510 357 q 439 384 487 384 l 412 384 l 381 235 q 397 216 376 217 q 412 214 400 216 q 433 212 423 213 l 426 182 l 255 182 l 262 212 q 283 214 263 212 q 307 218 304 217 q 320 236 317 221 q 321 243 320 239 q 323 248 323 247 l 391 567 q 393 576 391 568 l 395 585 q 377 595 395 595 q 358 597 373 595 q 340 598 343 598 m 452 567 l 419 418 q 610 537 610 412 q 583 585 610 574 q 495 601 545 601 q 468 595 477 601 q 456 583 458 589 q 452 567 453 576 m 207 671 q 265 729 207 671 q 486 787 323 787 q 765 672 648 787 q 882 391 882 557 q 766 111 882 227 q 486 -5 650 -5 q 207 111 323 -5 q 91 391 91 227 q 207 671 91 556 m 487 735 q 243 634 345 735 q 142 391 142 533 q 243 147 142 248 q 487 46 345 46 q 730 147 629 46 q 830 391 830 248 q 729 634 830 533 q 487 735 628 735 z "},"¯":{"ha":814,"x_min":327,"x_max":803,"o":"m 342 803 l 803 803 l 788 735 l 327 735 l 342 803 z "},"°":{"ha":814,"x_min":288,"x_max":703,"o":"m 348 487 q 318 517 348 487 q 288 633 288 547 q 348 781 288 720 q 495 842 408 842 q 642 781 582 842 q 703 633 703 719 q 642 488 703 548 q 495 427 582 427 q 348 487 408 427 m 362 635 q 401 541 362 581 q 495 502 439 502 q 589 541 551 502 q 628 635 628 579 q 589 729 628 690 q 495 768 551 768 q 401 729 439 768 q 362 635 362 690 z "},"±":{"ha":814,"x_min":179,"x_max":811,"o":"m 461 781 l 529 781 l 529 517 l 811 517 l 811 449 l 529 449 l 529 183 l 461 183 l 461 449 l 179 449 l 179 517 l 461 517 l 461 781 m 179 109 l 811 109 l 811 41 l 179 41 l 179 109 z "},"²":{"ha":814,"x_min":298,"x_max":699,"o":"m 602 461 l 646 461 l 618 336 l 298 336 l 308 384 l 319 393 l 456 496 q 595 609 560 574 q 648 719 648 662 q 623 774 648 751 q 562 796 597 796 q 479 772 514 796 q 438 712 445 749 l 393 712 l 407 774 q 484 823 438 804 q 570 842 530 842 q 662 808 625 842 q 699 722 699 773 q 671 629 699 673 q 621 571 654 601 q 500 476 551 513 l 376 385 l 376 382 l 586 382 l 602 461 z "},"³":{"ha":814,"x_min":304,"x_max":673,"o":"m 420 750 l 403 789 q 555 842 498 842 q 639 813 605 842 q 673 741 673 784 q 589 605 673 658 q 648 506 648 567 q 589 378 648 433 q 449 324 529 324 q 304 368 387 324 l 330 408 q 456 370 407 370 q 574 427 528 370 q 597 503 593 450 q 499 579 595 578 q 472 578 483 579 l 481 621 l 488 621 q 583 653 545 621 q 621 732 621 685 q 602 779 621 761 q 548 796 582 796 q 420 750 499 796 z "},"´":{"ha":814,"x_min":426,"x_max":724,"o":"m 724 838 l 499 682 l 426 682 l 575 838 l 724 838 z "},"µ":{"ha":814,"x_min":113,"x_max":773,"o":"m 170 583 l 350 583 l 282 263 q 269 172 269 195 q 306 84 269 122 q 403 46 343 46 q 434 47 419 46 q 483 60 449 49 q 543 93 517 72 q 595 158 568 114 q 636 263 623 202 l 690 519 l 579 519 l 591 583 l 773 583 l 662 64 l 773 64 l 761 0 l 579 0 l 600 90 l 597 92 q 395 -20 519 -20 q 247 85 275 -20 l 244 85 l 182 -212 l 113 -212 l 269 519 l 156 519 l 170 583 z "},"¶":{"ha":814,"x_min":250,"x_max":829,"o":"m 754 723 l 587 -64 l 659 -64 l 650 -104 l 491 -104 l 500 -64 l 526 -64 l 693 723 l 582 723 l 415 -64 l 442 -64 l 433 -104 l 260 -104 l 269 -64 l 353 -64 l 442 354 q 355 361 395 351 q 283 406 316 370 q 250 503 250 442 q 326 705 250 625 q 391 746 351 732 q 459 762 430 760 q 545 764 488 764 l 829 764 l 821 723 l 754 723 m 449 395 l 521 723 q 476 720 491 722 q 437 707 461 718 q 398 669 414 696 q 373 598 382 642 l 355 513 q 351 484 351 500 q 374 411 351 433 q 449 395 396 389 z "},"·":{"ha":814,"x_min":389,"x_max":601,"o":"m 513 503 q 575 481 549 503 q 601 427 601 460 q 563 350 601 381 q 479 319 525 319 q 416 340 442 319 q 389 395 389 361 q 428 471 389 439 q 513 503 467 503 z "},"¸":{"ha":814,"x_min":248,"x_max":521,"o":"m 453 1 l 444 -30 q 521 -106 521 -42 q 490 -168 521 -142 q 399 -193 460 -193 q 259 -174 338 -193 l 248 -172 l 271 -113 q 279 -115 274 -115 q 403 -132 346 -132 q 457 -106 457 -132 q 454 -96 457 -99 q 434 -87 452 -92 q 381 -81 416 -83 l 365 -81 l 392 1 l 453 1 z "},"¹":{"ha":814,"x_min":320,"x_max":655,"o":"m 408 770 l 585 842 l 616 842 l 518 381 l 655 381 l 646 336 l 320 336 l 330 381 l 471 381 l 556 784 l 418 728 l 408 770 z "},"º":{"ha":814,"x_min":296,"x_max":716,"o":"m 574 787 q 678 753 640 787 q 716 659 716 719 q 654 518 716 576 q 505 460 591 460 q 401 494 439 460 q 362 586 362 528 q 424 728 362 669 q 574 787 486 787 m 564 738 q 459 696 503 738 q 415 597 415 655 q 442 532 415 556 q 515 509 469 509 q 619 550 575 509 q 663 650 663 591 q 636 714 663 690 q 564 738 609 738 m 307 410 l 681 410 l 670 361 l 296 361 l 307 410 z "},"»":{"ha":814,"x_min":122,"x_max":793,"o":"m 271 583 l 532 307 l 161 35 l 122 90 l 431 316 l 221 537 l 271 583 m 532 583 l 793 307 l 422 35 l 382 90 l 692 316 l 481 537 l 532 583 z "},"¼":{"ha":814,"x_min":38,"x_max":964,"o":"m 658 374 l 746 374 l 678 52 l 779 52 l 769 7 l 669 7 l 652 -66 l 753 -66 l 743 -109 l 473 -109 l 481 -66 l 606 -66 l 623 7 l 370 7 l 382 61 l 658 374 m 692 332 l 673 332 l 427 52 l 632 52 l 692 332 m 231 848 l 388 848 l 302 448 l 406 448 l 396 403 l 136 403 l 145 448 l 254 448 l 330 806 l 221 806 l 231 848 m 930 859 l 964 831 l 69 -122 l 38 -92 l 930 859 z "},"½":{"ha":814,"x_min":38,"x_max":964,"o":"m 175 780 l 327 844 l 362 844 l 264 389 l 376 389 l 365 338 l 87 338 l 98 389 l 212 389 l 296 779 l 186 731 l 175 780 m 930 859 l 964 831 l 69 -122 l 38 -92 l 930 859 m 761 20 l 811 20 l 783 -109 l 456 -109 l 468 -56 l 480 -46 q 689 110 562 11 q 795 214 779 179 q 808 271 808 241 q 783 325 808 302 q 723 347 758 347 q 629 308 671 347 q 606 262 613 294 l 552 262 l 566 324 q 734 397 643 397 q 826 361 788 397 q 864 274 864 326 q 785 125 864 193 q 625 -1 742 85 q 547 -56 586 -31 l 547 -58 l 745 -58 l 761 20 z "},"¾":{"ha":814,"x_min":71,"x_max":997,"o":"m 840 397 l 766 58 l 840 58 l 829 8 l 755 8 l 741 -60 l 814 -60 l 803 -109 l 570 -109 l 581 -60 l 689 -60 l 704 8 l 488 8 l 500 64 l 773 397 l 840 397 m 715 58 l 770 316 l 768 319 l 557 58 l 715 58 m 212 745 l 193 789 q 349 844 293 844 q 434 814 400 844 q 468 741 468 785 q 388 606 468 658 q 444 509 444 570 q 384 381 444 435 q 241 327 324 327 q 118 359 194 327 l 92 370 l 122 416 q 248 377 197 377 q 347 415 307 377 q 388 507 388 453 q 364 558 388 540 q 298 576 340 576 l 277 575 l 262 575 l 273 625 q 376 656 340 627 q 412 732 412 689 q 393 777 412 760 q 340 793 373 793 q 235 757 304 793 l 212 745 m 963 859 l 997 831 l 102 -122 l 71 -92 l 963 859 z "},"¿":{"ha":814,"x_min":199,"x_max":686,"o":"m 677 -3 l 647 -142 q 420 -189 500 -189 q 251 -134 302 -189 q 199 -12 199 -80 q 499 264 199 193 l 517 346 l 583 346 l 555 213 q 542 210 552 213 q 528 208 532 208 q 443 186 468 193 q 382 161 418 179 q 321 115 347 142 q 270 -3 270 60 q 290 -71 270 -43 q 342 -107 309 -98 q 392 -119 374 -117 q 427 -122 410 -122 q 590 -88 510 -122 l 609 -3 l 677 -3 m 575 444 q 517 463 540 444 q 495 513 495 483 q 529 581 495 551 q 606 610 563 610 q 664 590 642 610 q 686 540 686 570 q 653 473 686 502 q 575 444 620 444 z "},"À":{"ha":814,"x_min":12,"x_max":812,"o":"m 313 764 l 605 764 l 743 64 l 812 64 l 799 0 l 521 0 l 534 64 l 673 64 l 635 252 l 283 252 l 165 64 l 302 64 l 290 0 l 12 0 l 26 64 l 96 64 l 494 700 l 302 700 l 313 764 m 625 312 l 552 684 l 320 312 l 625 312 m 433 1019 l 575 1019 l 658 863 l 590 863 l 433 1019 z "},"Á":{"ha":814,"x_min":12,"x_max":812,"o":"m 313 764 l 605 764 l 743 64 l 812 64 l 799 0 l 521 0 l 534 64 l 673 64 l 635 252 l 283 252 l 165 64 l 302 64 l 290 0 l 12 0 l 26 64 l 96 64 l 494 700 l 302 700 l 313 764 m 625 312 l 552 684 l 320 312 l 625 312 m 724 1019 l 499 863 l 426 863 l 575 1019 l 724 1019 z "},"Â":{"ha":814,"x_min":12,"x_max":812,"o":"m 313 764 l 605 764 l 743 64 l 812 64 l 799 0 l 521 0 l 534 64 l 673 64 l 635 252 l 283 252 l 165 64 l 302 64 l 290 0 l 12 0 l 26 64 l 96 64 l 494 700 l 302 700 l 313 764 m 625 312 l 552 684 l 320 312 l 625 312 m 534 1021 l 637 1021 l 739 894 l 692 863 l 571 949 l 433 863 l 395 897 l 534 1021 z "},"Ã":{"ha":814,"x_min":12,"x_max":812,"o":"m 313 764 l 605 764 l 743 64 l 812 64 l 799 0 l 521 0 l 534 64 l 673 64 l 635 252 l 283 252 l 165 64 l 302 64 l 290 0 l 12 0 l 26 64 l 96 64 l 494 700 l 302 700 l 313 764 m 625 312 l 552 684 l 320 312 l 625 312 m 742 1019 l 793 1001 q 636 878 731 878 q 547 921 594 878 q 484 960 505 960 q 396 888 437 960 q 391 882 395 886 l 340 902 q 490 1021 403 1021 q 582 975 533 1021 q 647 939 621 939 q 742 1019 700 939 z "},"Ä":{"ha":814,"x_min":12,"x_max":812,"o":"m 313 764 l 605 764 l 743 64 l 812 64 l 799 0 l 521 0 l 534 64 l 673 64 l 635 252 l 283 252 l 165 64 l 302 64 l 290 0 l 12 0 l 26 64 l 96 64 l 494 700 l 302 700 l 313 764 m 625 312 l 552 684 l 320 312 l 625 312 m 415 876 l 445 1023 l 544 1023 l 513 876 l 415 876 m 591 876 l 623 1023 l 720 1023 l 689 876 l 591 876 z "},"Å":{"ha":814,"x_min":12,"x_max":812,"o":"m 313 764 l 605 764 l 743 64 l 812 64 l 799 0 l 521 0 l 534 64 l 673 64 l 635 252 l 283 252 l 165 64 l 302 64 l 290 0 l 12 0 l 26 64 l 96 64 l 494 700 l 302 700 l 313 764 m 625 312 l 552 684 l 320 312 l 625 312 m 496 1021 q 511 1036 496 1021 q 568 1051 526 1051 q 641 1021 610 1051 q 671 948 671 991 q 641 875 671 905 q 568 845 610 845 q 496 875 526 845 q 465 948 465 905 q 496 1021 465 991 m 606 985 q 598 992 606 985 q 570 1000 591 1000 q 532 985 548 1000 q 517 948 517 971 q 532 911 517 926 q 570 897 548 897 q 606 911 591 897 q 620 948 620 926 q 606 985 620 970 z "},"Æ":{"ha":814,"x_min":23,"x_max":903,"o":"m 373 764 l 903 764 l 859 519 l 796 519 l 818 700 l 624 700 l 568 438 l 663 438 l 682 536 l 743 536 l 693 275 l 629 275 l 650 374 l 552 374 l 488 64 l 693 64 l 743 250 l 804 250 l 751 0 l 407 0 l 460 250 l 297 250 l 178 64 l 297 64 l 283 0 l 23 0 l 37 64 l 109 64 l 499 700 l 359 700 l 373 764 m 472 309 l 552 670 l 549 673 l 330 309 l 472 309 z "},"Ç":{"ha":814,"x_min":159,"x_max":917,"o":"m 483 -22 l 483 -31 q 560 -106 560 -46 q 528 -168 560 -144 q 438 -193 496 -193 q 288 -172 369 -193 l 309 -113 q 441 -132 378 -132 q 495 -107 495 -132 q 492 -95 495 -99 q 468 -87 488 -91 q 404 -81 448 -83 l 425 -22 q 372 -14 395 -19 q 306 9 350 -9 q 233 58 262 28 q 182 146 205 88 q 159 282 159 205 q 295 637 159 488 q 613 787 431 787 q 779 723 712 787 q 790 709 780 722 q 809 688 800 697 q 821 680 818 680 q 844 712 830 680 l 863 764 l 917 753 q 869 610 880 651 q 849 499 857 570 l 789 499 q 793 553 793 528 q 772 640 793 604 q 719 691 751 675 q 660 713 686 707 q 610 719 633 719 q 343 590 454 719 q 232 281 232 461 q 287 112 232 179 q 471 45 342 45 q 595 63 534 45 q 682 97 655 81 q 750 141 709 113 l 789 84 q 650 9 718 35 q 483 -22 583 -18 z "},"È":{"ha":814,"x_min":75,"x_max":883,"o":"m 237 764 l 883 764 l 836 514 l 773 514 l 799 700 l 408 700 l 351 435 l 571 435 l 593 534 l 655 534 l 600 274 l 537 274 l 557 372 l 339 372 l 273 64 l 677 64 l 723 250 l 787 250 l 734 0 l 75 0 l 88 64 l 205 64 l 339 700 l 224 700 l 237 764 m 505 1019 l 647 1019 l 730 863 l 662 863 l 505 1019 z "},"É":{"ha":814,"x_min":75,"x_max":883,"o":"m 237 764 l 883 764 l 836 514 l 773 514 l 799 700 l 408 700 l 351 435 l 571 435 l 593 534 l 655 534 l 600 274 l 537 274 l 557 372 l 339 372 l 273 64 l 677 64 l 723 250 l 787 250 l 734 0 l 75 0 l 88 64 l 205 64 l 339 700 l 224 700 l 237 764 m 796 1019 l 571 863 l 498 863 l 647 1019 l 796 1019 z "},"Ê":{"ha":814,"x_min":75,"x_max":883,"o":"m 237 764 l 883 764 l 836 514 l 773 514 l 799 700 l 408 700 l 351 435 l 571 435 l 593 534 l 655 534 l 600 274 l 537 274 l 557 372 l 339 372 l 273 64 l 677 64 l 723 250 l 787 250 l 734 0 l 75 0 l 88 64 l 205 64 l 339 700 l 224 700 l 237 764 m 606 1021 l 709 1021 l 811 894 l 764 863 l 643 949 l 505 863 l 467 897 l 606 1021 z "},"Ë":{"ha":814,"x_min":75,"x_max":883,"o":"m 237 764 l 883 764 l 836 514 l 773 514 l 799 700 l 408 700 l 351 435 l 571 435 l 593 534 l 655 534 l 600 274 l 537 274 l 557 372 l 339 372 l 273 64 l 677 64 l 723 250 l 787 250 l 734 0 l 75 0 l 88 64 l 205 64 l 339 700 l 224 700 l 237 764 m 487 876 l 517 1023 l 616 1023 l 585 876 l 487 876 m 663 876 l 694 1023 l 792 1023 l 761 876 l 663 876 z "},"Ì":{"ha":814,"x_min":133,"x_max":838,"o":"m 296 764 l 838 764 l 825 700 l 587 700 l 453 64 l 689 64 l 675 0 l 133 0 l 146 64 l 384 64 l 518 700 l 282 700 l 296 764 m 473 1019 l 616 1019 l 699 863 l 631 863 l 473 1019 z "},"Í":{"ha":814,"x_min":133,"x_max":838,"o":"m 296 764 l 838 764 l 825 700 l 587 700 l 453 64 l 689 64 l 675 0 l 133 0 l 146 64 l 384 64 l 518 700 l 282 700 l 296 764 m 765 1019 l 540 863 l 467 863 l 616 1019 l 765 1019 z "},"Î":{"ha":814,"x_min":133,"x_max":838,"o":"m 296 764 l 838 764 l 825 700 l 587 700 l 453 64 l 689 64 l 675 0 l 133 0 l 146 64 l 384 64 l 518 700 l 282 700 l 296 764 m 575 1021 l 678 1021 l 780 894 l 732 863 l 612 949 l 473 863 l 435 897 l 575 1021 z "},"Ï":{"ha":814,"x_min":133,"x_max":838,"o":"m 296 764 l 838 764 l 825 700 l 587 700 l 453 64 l 689 64 l 675 0 l 133 0 l 146 64 l 384 64 l 518 700 l 282 700 l 296 764 m 456 876 l 486 1023 l 585 1023 l 553 876 l 456 876 m 632 876 l 663 1023 l 761 1023 l 730 876 l 632 876 z "},"Ð":{"ha":814,"x_min":43,"x_max":841,"o":"m 231 372 l 122 372 l 136 435 l 244 435 l 298 700 l 193 700 l 206 764 l 543 764 q 747 722 689 764 q 816 632 791 690 q 841 509 841 574 q 833 417 841 468 q 791 278 826 366 q 699 123 757 190 q 380 0 590 0 l 43 0 l 57 64 l 164 64 l 231 372 m 522 372 l 298 372 l 231 64 l 389 64 q 647 165 560 64 q 740 333 712 243 q 768 488 768 423 q 700 663 768 608 q 536 700 656 700 l 369 700 l 313 435 l 536 435 l 522 372 z "},"Ñ":{"ha":814,"x_min":35,"x_max":962,"o":"m 198 764 l 429 764 l 637 57 l 661 57 l 792 700 l 646 700 l 661 764 l 962 764 l 948 700 l 856 700 l 712 -18 l 589 -18 l 378 700 l 357 700 l 225 64 l 372 64 l 357 0 l 35 0 l 49 64 l 161 64 l 293 700 l 184 700 l 198 764 m 814 1019 l 865 1001 q 708 878 803 878 q 618 921 666 878 q 556 960 576 960 q 468 888 509 960 q 463 882 467 886 l 412 902 q 562 1021 475 1021 q 654 975 605 1021 q 719 939 693 939 q 814 1019 772 939 z "},"Ò":{"ha":814,"x_min":125,"x_max":846,"o":"m 125 286 q 157 457 125 369 q 246 618 190 545 q 388 739 302 692 q 568 787 473 787 q 690 763 637 787 q 772 705 743 739 q 818 628 800 671 q 841 552 836 585 q 846 490 846 519 q 716 135 846 293 q 403 -23 586 -23 q 275 3 330 -23 q 193 66 221 30 q 149 149 165 102 q 129 227 133 197 q 125 286 125 258 m 198 292 q 208 213 198 252 q 238 133 217 174 q 304 66 259 92 q 410 41 349 41 q 593 106 509 41 q 726 273 678 172 q 773 481 773 374 q 756 587 773 536 q 689 680 739 637 q 562 723 639 723 q 375 654 461 723 q 243 488 289 586 q 198 292 198 389 m 505 1019 l 647 1019 l 730 863 l 662 863 l 505 1019 z "},"Ó":{"ha":814,"x_min":125,"x_max":846,"o":"m 125 286 q 157 457 125 369 q 246 618 190 545 q 388 739 302 692 q 568 787 473 787 q 690 763 637 787 q 772 705 743 739 q 818 628 800 671 q 841 552 836 585 q 846 490 846 519 q 716 135 846 293 q 403 -23 586 -23 q 275 3 330 -23 q 193 66 221 30 q 149 149 165 102 q 129 227 133 197 q 125 286 125 258 m 198 292 q 208 213 198 252 q 238 133 217 174 q 304 66 259 92 q 410 41 349 41 q 593 106 509 41 q 726 273 678 172 q 773 481 773 374 q 756 587 773 536 q 689 680 739 637 q 562 723 639 723 q 375 654 461 723 q 243 488 289 586 q 198 292 198 389 m 796 1019 l 571 863 l 498 863 l 647 1019 l 796 1019 z "},"Ô":{"ha":814,"x_min":125,"x_max":846,"o":"m 125 286 q 157 457 125 369 q 246 618 190 545 q 388 739 302 692 q 568 787 473 787 q 690 763 637 787 q 772 705 743 739 q 818 628 800 671 q 841 552 836 585 q 846 490 846 519 q 716 135 846 293 q 403 -23 586 -23 q 275 3 330 -23 q 193 66 221 30 q 149 149 165 102 q 129 227 133 197 q 125 286 125 258 m 198 292 q 208 213 198 252 q 238 133 217 174 q 304 66 259 92 q 410 41 349 41 q 593 106 509 41 q 726 273 678 172 q 773 481 773 374 q 756 587 773 536 q 689 680 739 637 q 562 723 639 723 q 375 654 461 723 q 243 488 289 586 q 198 292 198 389 m 606 1021 l 709 1021 l 811 894 l 764 863 l 643 949 l 505 863 l 467 897 l 606 1021 z "},"Õ":{"ha":814,"x_min":125,"x_max":865,"o":"m 125 286 q 157 457 125 369 q 246 618 190 545 q 388 739 302 692 q 568 787 473 787 q 690 763 637 787 q 772 705 743 739 q 818 628 800 671 q 841 552 836 585 q 846 490 846 519 q 716 135 846 293 q 403 -23 586 -23 q 275 3 330 -23 q 193 66 221 30 q 149 149 165 102 q 129 227 133 197 q 125 286 125 258 m 198 292 q 208 213 198 252 q 238 133 217 174 q 304 66 259 92 q 410 41 349 41 q 593 106 509 41 q 726 273 678 172 q 773 481 773 374 q 756 587 773 536 q 689 680 739 637 q 562 723 639 723 q 375 654 461 723 q 243 488 289 586 q 198 292 198 389 m 814 1019 l 865 1001 q 708 878 803 878 q 618 921 666 878 q 556 960 576 960 q 468 888 509 960 q 463 882 467 886 l 412 902 q 562 1021 475 1021 q 654 975 605 1021 q 719 939 693 939 q 814 1019 772 939 z "},"Ö":{"ha":814,"x_min":125,"x_max":846,"o":"m 125 286 q 157 457 125 369 q 246 618 190 545 q 388 739 302 692 q 568 787 473 787 q 690 763 637 787 q 772 705 743 739 q 818 628 800 671 q 841 552 836 585 q 846 490 846 519 q 716 135 846 293 q 403 -23 586 -23 q 275 3 330 -23 q 193 66 221 30 q 149 149 165 102 q 129 227 133 197 q 125 286 125 258 m 198 292 q 208 213 198 252 q 238 133 217 174 q 304 66 259 92 q 410 41 349 41 q 593 106 509 41 q 726 273 678 172 q 773 481 773 374 q 756 587 773 536 q 689 680 739 637 q 562 723 639 723 q 375 654 461 723 q 243 488 289 586 q 198 292 198 389 m 487 876 l 517 1023 l 616 1023 l 585 876 l 487 876 m 663 876 l 694 1023 l 792 1023 l 761 876 l 663 876 z "},"×":{"ha":814,"x_min":248,"x_max":742,"o":"m 448 415 l 248 614 l 297 662 l 495 464 l 693 662 l 742 614 l 543 415 l 742 217 l 693 168 l 495 368 l 297 168 l 248 217 l 448 415 z "},"Ø":{"ha":814,"x_min":90,"x_max":880,"o":"m 209 50 l 129 -30 l 90 9 l 174 96 q 125 285 125 174 q 156 451 125 365 q 242 613 187 537 q 383 738 297 689 q 570 787 469 787 q 773 704 690 787 l 841 773 l 880 732 l 806 656 q 846 488 846 575 q 789 245 846 362 q 629 52 732 127 q 404 -23 526 -23 q 209 50 282 -23 m 749 598 l 262 103 q 414 41 311 41 q 664 175 555 41 q 773 484 773 309 q 749 598 773 533 m 229 152 l 719 650 q 560 723 665 723 q 305 588 412 723 q 198 289 198 453 q 229 152 198 227 z "},"Ù":{"ha":814,"x_min":186,"x_max":947,"o":"m 201 764 l 506 764 l 492 700 l 355 700 l 273 317 q 255 176 255 229 q 260 142 255 160 q 279 100 264 125 q 330 61 294 76 q 419 46 366 46 q 528 63 481 46 q 600 101 574 80 q 645 163 625 122 q 671 231 665 205 q 689 308 678 258 l 773 700 l 633 700 l 647 764 l 947 764 l 933 700 l 837 700 l 751 300 q 703 138 728 190 q 639 54 678 87 q 408 -23 544 -23 q 252 23 319 -23 q 186 167 186 69 q 206 317 186 222 l 288 700 l 187 700 l 201 764 m 505 1019 l 647 1019 l 730 863 l 662 863 l 505 1019 z "},"Ú":{"ha":814,"x_min":186,"x_max":947,"o":"m 201 764 l 506 764 l 492 700 l 355 700 l 273 317 q 255 176 255 229 q 260 142 255 160 q 279 100 264 125 q 330 61 294 76 q 419 46 366 46 q 528 63 481 46 q 600 101 574 80 q 645 163 625 122 q 671 231 665 205 q 689 308 678 258 l 773 700 l 633 700 l 647 764 l 947 764 l 933 700 l 837 700 l 751 300 q 703 138 728 190 q 639 54 678 87 q 408 -23 544 -23 q 252 23 319 -23 q 186 167 186 69 q 206 317 186 222 l 288 700 l 187 700 l 201 764 m 796 1019 l 571 863 l 498 863 l 647 1019 l 796 1019 z "},"Û":{"ha":814,"x_min":186,"x_max":947,"o":"m 201 764 l 506 764 l 492 700 l 355 700 l 273 317 q 255 176 255 229 q 260 142 255 160 q 279 100 264 125 q 330 61 294 76 q 419 46 366 46 q 528 63 481 46 q 600 101 574 80 q 645 163 625 122 q 671 231 665 205 q 689 308 678 258 l 773 700 l 633 700 l 647 764 l 947 764 l 933 700 l 837 700 l 751 300 q 703 138 728 190 q 639 54 678 87 q 408 -23 544 -23 q 252 23 319 -23 q 186 167 186 69 q 206 317 186 222 l 288 700 l 187 700 l 201 764 m 606 1021 l 709 1021 l 811 894 l 764 863 l 643 949 l 505 863 l 467 897 l 606 1021 z "},"Ü":{"ha":814,"x_min":186,"x_max":947,"o":"m 201 764 l 506 764 l 492 700 l 355 700 l 273 317 q 255 176 255 229 q 260 142 255 160 q 279 100 264 125 q 330 61 294 76 q 419 46 366 46 q 528 63 481 46 q 600 101 574 80 q 645 163 625 122 q 671 231 665 205 q 689 308 678 258 l 773 700 l 633 700 l 647 764 l 947 764 l 933 700 l 837 700 l 751 300 q 703 138 728 190 q 639 54 678 87 q 408 -23 544 -23 q 252 23 319 -23 q 186 167 186 69 q 206 317 186 222 l 288 700 l 187 700 l 201 764 m 487 876 l 517 1023 l 616 1023 l 585 876 l 487 876 m 663 876 l 694 1023 l 792 1023 l 761 876 l 663 876 z "},"Ý":{"ha":814,"x_min":190,"x_max":932,"o":"m 203 764 l 471 764 l 456 700 l 353 700 l 486 363 l 758 700 l 654 700 l 667 764 l 932 764 l 918 700 l 834 700 l 503 296 l 456 64 l 614 64 l 601 0 l 212 0 l 225 64 l 387 64 l 437 296 l 277 700 l 190 700 l 203 764 m 796 1019 l 571 863 l 498 863 l 647 1019 l 796 1019 z "},"Þ":{"ha":814,"x_min":123,"x_max":841,"o":"m 313 64 l 469 64 l 456 0 l 123 0 l 137 64 l 248 64 l 382 700 l 273 700 l 286 764 l 617 764 l 604 700 l 449 700 l 434 631 l 509 631 q 696 621 637 631 q 793 574 755 612 q 841 448 841 526 q 812 330 841 385 q 742 239 784 275 q 616 179 685 191 q 414 167 547 167 l 335 167 l 313 64 m 556 567 l 420 567 l 349 231 l 420 231 q 536 232 500 231 q 618 245 571 233 q 693 281 665 256 q 768 433 768 346 q 753 498 768 471 q 719 538 738 525 q 665 558 700 551 q 611 566 631 566 q 556 567 591 567 z "},"ß":{"ha":814,"x_min":81,"x_max":760,"o":"m 95 64 l 179 64 l 290 583 q 570 867 351 867 q 707 821 654 867 q 760 697 760 776 q 560 476 760 544 l 560 473 q 741 259 741 416 q 652 60 741 138 q 454 -18 563 -18 q 357 0 410 -18 l 370 64 q 416 53 380 62 q 467 49 441 49 q 606 106 540 49 q 673 254 673 164 q 654 329 673 296 q 614 380 636 362 q 554 413 593 399 q 497 431 515 427 q 446 441 479 435 l 460 509 q 630 577 568 525 q 692 696 692 629 q 654 776 692 751 q 568 800 617 800 q 357 583 404 800 l 232 0 l 81 0 l 95 64 z "},"à":{"ha":814,"x_min":111,"x_max":758,"o":"m 709 401 l 640 64 l 758 64 l 745 0 l 556 0 l 572 77 q 486 31 518 47 q 399 -2 454 15 q 290 -19 343 -19 q 161 26 212 -19 q 111 140 111 72 q 199 302 111 227 q 449 377 288 377 q 633 359 536 377 l 640 401 q 647 460 647 435 q 614 519 647 492 q 509 545 582 545 q 264 488 416 545 l 251 551 q 525 610 412 610 q 663 574 608 610 q 719 471 719 538 q 709 401 719 458 m 590 161 l 620 297 q 450 312 530 312 q 319 294 374 312 q 236 249 263 277 q 197 195 209 221 q 184 146 184 170 q 220 73 184 100 q 300 46 256 46 q 448 82 363 46 q 590 161 533 118 m 433 838 l 575 838 l 658 682 l 590 682 l 433 838 z "},"á":{"ha":814,"x_min":111,"x_max":758,"o":"m 709 401 l 640 64 l 758 64 l 745 0 l 556 0 l 572 77 q 486 31 518 47 q 399 -2 454 15 q 290 -19 343 -19 q 161 26 212 -19 q 111 140 111 72 q 199 302 111 227 q 449 377 288 377 q 633 359 536 377 l 640 401 q 647 460 647 435 q 614 519 647 492 q 509 545 582 545 q 264 488 416 545 l 251 551 q 525 610 412 610 q 663 574 608 610 q 719 471 719 538 q 709 401 719 458 m 590 161 l 620 297 q 450 312 530 312 q 319 294 374 312 q 236 249 263 277 q 197 195 209 221 q 184 146 184 170 q 220 73 184 100 q 300 46 256 46 q 448 82 363 46 q 590 161 533 118 m 724 838 l 499 682 l 426 682 l 575 838 l 724 838 z "},"â":{"ha":814,"x_min":111,"x_max":758,"o":"m 709 401 l 640 64 l 758 64 l 745 0 l 556 0 l 572 77 q 486 31 518 47 q 399 -2 454 15 q 290 -19 343 -19 q 161 26 212 -19 q 111 140 111 72 q 199 302 111 227 q 449 377 288 377 q 633 359 536 377 l 640 401 q 647 460 647 435 q 614 519 647 492 q 509 545 582 545 q 264 488 416 545 l 251 551 q 525 610 412 610 q 663 574 608 610 q 719 471 719 538 q 709 401 719 458 m 590 161 l 620 297 q 450 312 530 312 q 319 294 374 312 q 236 249 263 277 q 197 195 209 221 q 184 146 184 170 q 220 73 184 100 q 300 46 256 46 q 448 82 363 46 q 590 161 533 118 m 534 841 l 637 841 l 739 713 l 692 682 l 571 769 l 433 682 l 395 716 l 534 841 z "},"ã":{"ha":814,"x_min":111,"x_max":793,"o":"m 709 401 l 640 64 l 758 64 l 745 0 l 556 0 l 572 77 q 486 31 518 47 q 399 -2 454 15 q 290 -19 343 -19 q 161 26 212 -19 q 111 140 111 72 q 199 302 111 227 q 449 377 288 377 q 633 359 536 377 l 640 401 q 647 460 647 435 q 614 519 647 492 q 509 545 582 545 q 264 488 416 545 l 251 551 q 525 610 412 610 q 663 574 608 610 q 719 471 719 538 q 709 401 719 458 m 590 161 l 620 297 q 450 312 530 312 q 319 294 374 312 q 236 249 263 277 q 197 195 209 221 q 184 146 184 170 q 220 73 184 100 q 300 46 256 46 q 448 82 363 46 q 590 161 533 118 m 742 838 l 793 821 q 636 697 731 697 q 547 741 594 697 q 484 780 505 780 q 396 708 437 780 q 391 701 395 705 l 340 722 q 490 841 403 841 q 582 795 533 841 q 647 758 621 758 q 742 838 700 758 z "},"ä":{"ha":814,"x_min":111,"x_max":758,"o":"m 709 401 l 640 64 l 758 64 l 745 0 l 556 0 l 572 77 q 486 31 518 47 q 399 -2 454 15 q 290 -19 343 -19 q 161 26 212 -19 q 111 140 111 72 q 199 302 111 227 q 449 377 288 377 q 633 359 536 377 l 640 401 q 647 460 647 435 q 614 519 647 492 q 509 545 582 545 q 264 488 416 545 l 251 551 q 525 610 412 610 q 663 574 608 610 q 719 471 719 538 q 709 401 719 458 m 590 161 l 620 297 q 450 312 530 312 q 319 294 374 312 q 236 249 263 277 q 197 195 209 221 q 184 146 184 170 q 220 73 184 100 q 300 46 256 46 q 448 82 363 46 q 590 161 533 118 m 415 696 l 445 842 l 544 842 l 513 696 l 415 696 m 591 696 l 623 842 l 720 842 l 689 696 l 591 696 z "},"å":{"ha":814,"x_min":111,"x_max":758,"o":"m 709 401 l 640 64 l 758 64 l 745 0 l 556 0 l 572 77 q 486 31 518 47 q 399 -2 454 15 q 290 -19 343 -19 q 161 26 212 -19 q 111 140 111 72 q 199 302 111 227 q 449 377 288 377 q 633 359 536 377 l 640 401 q 647 460 647 435 q 614 519 647 492 q 509 545 582 545 q 264 488 416 545 l 251 551 q 525 610 412 610 q 663 574 608 610 q 719 471 719 538 q 709 401 719 458 m 590 161 l 620 297 q 450 312 530 312 q 319 294 374 312 q 236 249 263 277 q 197 195 209 221 q 184 146 184 170 q 220 73 184 100 q 300 46 256 46 q 448 82 363 46 q 590 161 533 118 m 496 841 q 511 856 496 841 q 568 871 526 871 q 641 841 610 871 q 671 768 671 811 q 641 694 671 724 q 568 665 610 665 q 496 694 526 665 q 465 768 465 724 q 496 841 465 811 m 606 804 q 598 812 606 804 q 570 819 591 819 q 532 805 548 819 q 517 768 517 791 q 532 731 517 746 q 570 716 548 716 q 606 731 591 716 q 620 768 620 746 q 606 804 620 789 z "},"æ":{"ha":814,"x_min":73,"x_max":844,"o":"m 819 278 l 492 278 q 481 182 481 224 q 512 81 481 121 q 597 42 543 42 q 760 75 655 42 l 772 15 q 583 -19 670 -19 q 515 -8 536 -19 q 446 52 495 3 q 425 106 425 73 q 313 18 377 54 q 202 -19 250 -19 q 113 15 153 -19 q 73 118 73 49 q 146 281 73 205 q 338 358 220 358 q 438 347 389 358 l 449 397 q 458 471 458 439 q 441 530 458 514 q 385 547 423 547 q 210 509 330 547 l 205 570 q 396 610 321 610 q 488 583 461 610 q 521 509 514 555 q 568 555 549 538 q 625 591 586 571 q 705 610 665 610 q 804 566 764 610 q 844 419 844 521 q 819 278 844 349 m 397 160 l 425 285 q 330 297 373 297 q 190 241 237 297 q 142 126 142 184 q 162 67 142 90 q 209 45 182 45 q 302 81 248 45 q 397 160 357 117 m 502 338 l 768 338 q 777 422 777 377 q 775 452 777 437 q 767 492 773 467 q 742 534 761 518 q 696 549 723 549 q 635 534 669 549 q 562 469 602 519 q 502 338 521 418 z "},"ç":{"ha":814,"x_min":145,"x_max":818,"o":"m 425 -19 l 425 -31 q 456 -40 444 -35 q 483 -62 468 -45 q 498 -106 498 -79 q 466 -169 498 -145 q 376 -193 434 -193 q 225 -172 311 -193 l 247 -113 q 380 -132 320 -132 q 434 -106 434 -132 q 431 -94 434 -98 q 406 -87 427 -91 q 342 -81 385 -83 l 363 -18 q 206 57 267 -4 q 145 227 145 118 q 258 487 145 370 q 536 604 372 604 q 690 556 629 604 q 700 547 692 555 q 715 534 708 540 q 724 529 722 529 q 750 559 735 529 q 769 606 765 590 l 818 595 q 769 378 777 460 l 711 370 q 711 413 709 391 q 703 458 712 435 q 678 498 694 480 q 626 526 662 515 q 538 537 590 537 q 306 443 393 537 q 218 235 218 349 q 237 146 218 183 q 279 90 255 109 q 336 61 304 72 q 387 49 369 50 q 420 47 404 47 q 700 149 528 47 l 727 94 q 425 -19 553 -14 z "},"è":{"ha":814,"x_min":152,"x_max":803,"o":"m 734 130 l 753 69 q 745 65 753 69 l 726 56 q 578 2 662 23 q 426 -19 494 -19 q 226 45 300 -19 q 152 221 152 109 q 266 487 152 370 q 544 604 380 604 q 737 538 671 604 q 803 381 803 472 q 784 282 803 339 l 783 275 l 227 275 q 225 236 225 263 q 245 141 225 180 q 298 83 264 102 q 363 56 331 64 q 434 47 396 47 q 542 62 483 47 q 636 90 601 77 q 734 130 671 103 m 244 336 l 727 336 q 730 373 730 355 q 682 489 730 441 q 536 537 633 537 q 349 475 422 537 q 244 336 275 412 m 433 838 l 575 838 l 658 682 l 590 682 l 433 838 z "},"é":{"ha":814,"x_min":152,"x_max":803,"o":"m 734 130 l 753 69 q 745 65 753 69 l 726 56 q 578 2 662 23 q 426 -19 494 -19 q 226 45 300 -19 q 152 221 152 109 q 266 487 152 370 q 544 604 380 604 q 737 538 671 604 q 803 381 803 472 q 784 282 803 339 l 783 275 l 227 275 q 225 236 225 263 q 245 141 225 180 q 298 83 264 102 q 363 56 331 64 q 434 47 396 47 q 542 62 483 47 q 636 90 601 77 q 734 130 671 103 m 244 336 l 727 336 q 730 373 730 355 q 682 489 730 441 q 536 537 633 537 q 349 475 422 537 q 244 336 275 412 m 724 838 l 499 682 l 426 682 l 575 838 l 724 838 z "},"ê":{"ha":814,"x_min":152,"x_max":803,"o":"m 734 130 l 753 69 q 745 65 753 69 l 726 56 q 578 2 662 23 q 426 -19 494 -19 q 226 45 300 -19 q 152 221 152 109 q 266 487 152 370 q 544 604 380 604 q 737 538 671 604 q 803 381 803 472 q 784 282 803 339 l 783 275 l 227 275 q 225 236 225 263 q 245 141 225 180 q 298 83 264 102 q 363 56 331 64 q 434 47 396 47 q 542 62 483 47 q 636 90 601 77 q 734 130 671 103 m 244 336 l 727 336 q 730 373 730 355 q 682 489 730 441 q 536 537 633 537 q 349 475 422 537 q 244 336 275 412 m 534 841 l 637 841 l 739 713 l 692 682 l 571 769 l 433 682 l 395 716 l 534 841 z "},"ë":{"ha":814,"x_min":152,"x_max":803,"o":"m 734 130 l 753 69 q 745 65 753 69 l 726 56 q 578 2 662 23 q 426 -19 494 -19 q 226 45 300 -19 q 152 221 152 109 q 266 487 152 370 q 544 604 380 604 q 737 538 671 604 q 803 381 803 472 q 784 282 803 339 l 783 275 l 227 275 q 225 236 225 263 q 245 141 225 180 q 298 83 264 102 q 363 56 331 64 q 434 47 396 47 q 542 62 483 47 q 636 90 601 77 q 734 130 671 103 m 244 336 l 727 336 q 730 373 730 355 q 682 489 730 441 q 536 537 633 537 q 349 475 422 537 q 244 336 275 412 m 415 696 l 445 842 l 544 842 l 513 696 l 415 696 m 591 696 l 623 842 l 720 842 l 689 696 l 591 696 z "},"ì":{"ha":814,"x_min":134,"x_max":690,"o":"m 297 583 l 566 583 l 456 64 l 690 64 l 677 0 l 134 0 l 148 64 l 387 64 l 483 519 l 283 519 l 297 583 m 433 838 l 575 838 l 658 682 l 590 682 l 433 838 z "},"í":{"ha":814,"x_min":134,"x_max":724,"o":"m 297 583 l 566 583 l 456 64 l 690 64 l 677 0 l 134 0 l 148 64 l 387 64 l 483 519 l 283 519 l 297 583 m 724 838 l 499 682 l 426 682 l 575 838 l 724 838 z "},"î":{"ha":814,"x_min":134,"x_max":707,"o":"m 297 583 l 566 583 l 456 64 l 690 64 l 677 0 l 134 0 l 148 64 l 387 64 l 483 519 l 283 519 l 297 583 m 502 841 l 605 841 l 707 713 l 659 682 l 538 769 l 400 682 l 362 716 l 502 841 z "},"ï":{"ha":814,"x_min":134,"x_max":720,"o":"m 297 583 l 566 583 l 456 64 l 690 64 l 677 0 l 134 0 l 148 64 l 387 64 l 483 519 l 283 519 l 297 583 m 415 696 l 445 842 l 544 842 l 513 696 l 415 696 m 591 696 l 623 842 l 720 842 l 689 696 l 591 696 z "},"ð":{"ha":814,"x_min":125,"x_max":817,"o":"m 522 774 l 429 659 l 377 700 l 467 804 q 328 865 389 844 l 365 922 q 517 857 425 903 l 591 947 l 643 907 l 572 823 q 748 652 680 760 q 817 406 817 545 q 699 102 817 222 q 401 -19 582 -19 q 201 46 277 -19 q 125 229 125 111 q 240 494 125 377 q 528 610 355 610 q 719 549 648 610 l 722 552 q 686 614 700 591 q 626 687 673 636 q 522 774 579 738 m 526 547 q 290 450 381 547 q 198 237 198 354 q 250 102 198 160 q 414 45 301 45 q 644 141 553 45 q 735 354 735 237 q 680 492 735 438 q 526 547 625 547 z "},"ñ":{"ha":814,"x_min":43,"x_max":793,"o":"m 168 583 l 350 583 l 331 503 q 578 602 477 602 q 695 559 643 602 q 747 441 747 517 q 738 370 747 427 l 671 64 l 787 64 l 773 0 l 475 0 l 487 64 l 605 64 l 671 370 q 681 445 681 408 q 650 507 681 481 q 572 533 618 533 q 455 506 513 533 q 313 423 397 479 l 237 64 l 350 64 l 338 0 l 43 0 l 57 64 l 168 64 l 266 519 l 153 519 l 168 583 m 742 838 l 793 821 q 636 697 731 697 q 547 741 594 697 q 484 780 505 780 q 396 708 437 780 q 391 701 395 705 l 340 722 q 490 841 403 841 q 582 795 533 841 q 647 758 621 758 q 742 838 700 758 z "},"ò":{"ha":814,"x_min":123,"x_max":810,"o":"m 534 610 q 733 546 656 610 q 810 362 810 481 q 763 186 810 271 q 621 41 716 100 q 401 -19 525 -19 q 202 44 281 -19 q 123 229 123 107 q 236 491 123 372 q 534 610 349 610 m 525 547 q 288 450 380 547 q 197 237 197 354 q 250 101 197 157 q 412 45 304 45 q 646 142 555 45 q 736 353 736 240 q 681 492 736 438 q 525 547 625 547 m 433 838 l 575 838 l 658 682 l 590 682 l 433 838 z "},"ó":{"ha":814,"x_min":123,"x_max":810,"o":"m 534 610 q 733 546 656 610 q 810 362 810 481 q 763 186 810 271 q 621 41 716 100 q 401 -19 525 -19 q 202 44 281 -19 q 123 229 123 107 q 236 491 123 372 q 534 610 349 610 m 525 547 q 288 450 380 547 q 197 237 197 354 q 250 101 197 157 q 412 45 304 45 q 646 142 555 45 q 736 353 736 240 q 681 492 736 438 q 525 547 625 547 m 724 838 l 499 682 l 426 682 l 575 838 l 724 838 z "},"ô":{"ha":814,"x_min":123,"x_max":810,"o":"m 534 610 q 733 546 656 610 q 810 362 810 481 q 763 186 810 271 q 621 41 716 100 q 401 -19 525 -19 q 202 44 281 -19 q 123 229 123 107 q 236 491 123 372 q 534 610 349 610 m 525 547 q 288 450 380 547 q 197 237 197 354 q 250 101 197 157 q 412 45 304 45 q 646 142 555 45 q 736 353 736 240 q 681 492 736 438 q 525 547 625 547 m 534 841 l 637 841 l 739 713 l 692 682 l 571 769 l 433 682 l 395 716 l 534 841 z "},"õ":{"ha":814,"x_min":123,"x_max":810,"o":"m 534 610 q 733 546 656 610 q 810 362 810 481 q 763 186 810 271 q 621 41 716 100 q 401 -19 525 -19 q 202 44 281 -19 q 123 229 123 107 q 236 491 123 372 q 534 610 349 610 m 525 547 q 288 450 380 547 q 197 237 197 354 q 250 101 197 157 q 412 45 304 45 q 646 142 555 45 q 736 353 736 240 q 681 492 736 438 q 525 547 625 547 m 742 838 l 793 821 q 636 697 731 697 q 547 741 594 697 q 484 780 505 780 q 396 708 437 780 q 391 701 395 705 l 340 722 q 490 841 403 841 q 582 795 533 841 q 647 758 621 758 q 742 838 700 758 z "},"ö":{"ha":814,"x_min":123,"x_max":810,"o":"m 534 610 q 733 546 656 610 q 810 362 810 481 q 763 186 810 271 q 621 41 716 100 q 401 -19 525 -19 q 202 44 281 -19 q 123 229 123 107 q 236 491 123 372 q 534 610 349 610 m 525 547 q 288 450 380 547 q 197 237 197 354 q 250 101 197 157 q 412 45 304 45 q 646 142 555 45 q 736 353 736 240 q 681 492 736 438 q 525 547 625 547 m 415 696 l 445 842 l 544 842 l 513 696 l 415 696 m 591 696 l 623 842 l 720 842 l 689 696 l 591 696 z "},"÷":{"ha":814,"x_min":179,"x_max":814,"o":"m 454 699 q 463 708 454 699 q 496 716 472 716 q 539 699 521 716 q 557 655 557 681 q 540 612 557 631 q 496 594 522 594 q 453 612 471 594 q 435 655 435 631 q 454 699 435 682 m 179 445 l 814 445 l 814 377 l 179 377 l 179 445 m 496 228 q 538 210 519 228 q 557 167 557 193 q 539 123 557 141 q 496 106 521 106 q 454 123 472 106 q 435 167 435 141 q 454 210 435 193 q 496 228 472 228 z "},"ø":{"ha":814,"x_min":87,"x_max":850,"o":"m 206 43 l 129 -19 l 87 33 l 161 94 q 123 232 123 149 q 171 407 123 321 q 315 551 218 492 q 533 610 411 610 q 728 553 655 610 l 808 617 l 850 564 l 772 500 q 810 361 810 445 q 696 100 810 220 q 406 -19 582 -19 q 206 43 278 -19 m 712 453 l 263 88 q 415 45 319 45 q 644 142 552 45 q 736 357 736 239 q 712 453 736 401 m 222 144 l 669 505 q 524 548 612 548 q 290 451 384 548 q 197 235 197 354 q 222 144 197 184 z "},"ù":{"ha":814,"x_min":153,"x_max":765,"o":"m 167 583 l 345 583 l 269 224 q 259 148 259 157 q 284 81 259 115 q 363 47 309 47 q 610 168 483 47 l 685 519 l 570 519 l 583 583 l 765 583 l 656 64 l 765 64 l 751 0 l 575 0 l 590 71 q 527 28 551 43 q 456 -3 503 14 q 359 -19 408 -19 q 273 1 309 -19 q 220 50 236 20 q 198 104 205 80 q 191 151 191 129 q 201 224 191 176 l 263 519 l 153 519 l 167 583 m 433 838 l 575 838 l 658 682 l 590 682 l 433 838 z "},"ú":{"ha":814,"x_min":153,"x_max":765,"o":"m 167 583 l 345 583 l 269 224 q 259 148 259 157 q 284 81 259 115 q 363 47 309 47 q 610 168 483 47 l 685 519 l 570 519 l 583 583 l 765 583 l 656 64 l 765 64 l 751 0 l 575 0 l 590 71 q 527 28 551 43 q 456 -3 503 14 q 359 -19 408 -19 q 273 1 309 -19 q 220 50 236 20 q 198 104 205 80 q 191 151 191 129 q 201 224 191 176 l 263 519 l 153 519 l 167 583 m 724 838 l 499 682 l 426 682 l 575 838 l 724 838 z "},"û":{"ha":814,"x_min":153,"x_max":765,"o":"m 167 583 l 345 583 l 269 224 q 259 148 259 157 q 284 81 259 115 q 363 47 309 47 q 610 168 483 47 l 685 519 l 570 519 l 583 583 l 765 583 l 656 64 l 765 64 l 751 0 l 575 0 l 590 71 q 527 28 551 43 q 456 -3 503 14 q 359 -19 408 -19 q 273 1 309 -19 q 220 50 236 20 q 198 104 205 80 q 191 151 191 129 q 201 224 191 176 l 263 519 l 153 519 l 167 583 m 534 841 l 637 841 l 739 713 l 692 682 l 571 769 l 433 682 l 395 716 l 534 841 z "},"ü":{"ha":814,"x_min":153,"x_max":765,"o":"m 167 583 l 345 583 l 269 224 q 259 148 259 157 q 284 81 259 115 q 363 47 309 47 q 610 168 483 47 l 685 519 l 570 519 l 583 583 l 765 583 l 656 64 l 765 64 l 751 0 l 575 0 l 590 71 q 527 28 551 43 q 456 -3 503 14 q 359 -19 408 -19 q 273 1 309 -19 q 220 50 236 20 q 198 104 205 80 q 191 151 191 129 q 201 224 191 176 l 263 519 l 153 519 l 167 583 m 415 696 l 445 842 l 544 842 l 513 696 l 415 696 m 591 696 l 623 842 l 720 842 l 689 696 l 591 696 z "},"ý":{"ha":814,"x_min":153,"x_max":888,"o":"m 594 583 l 888 583 l 875 519 l 764 519 l 665 54 q 653 2 658 20 q 636 -50 648 -16 q 610 -102 624 -83 q 570 -148 595 -122 q 512 -187 544 -174 q 433 -211 480 -201 q 327 -221 385 -221 q 198 -209 277 -221 l 213 -136 q 342 -155 286 -155 q 443 -142 400 -155 q 510 -113 486 -129 q 552 -64 534 -96 q 576 -9 570 -31 q 594 54 583 12 l 610 122 l 608 125 q 385 20 494 20 q 249 74 300 20 q 198 220 198 127 q 206 279 198 243 l 256 519 l 153 519 l 165 583 l 461 583 l 449 519 l 326 519 l 274 274 q 269 222 269 244 q 307 120 269 153 q 397 87 345 87 q 632 222 495 87 l 694 519 l 579 519 l 594 583 m 724 838 l 499 682 l 426 682 l 575 838 l 724 838 z "},"þ":{"ha":814,"x_min":-22,"x_max":811,"o":"m 384 853 l 307 491 l 309 488 q 566 601 418 601 q 747 530 682 601 q 811 361 811 458 q 694 102 811 213 q 442 -9 576 -9 q 227 109 296 -9 l 171 -149 l 373 -149 l 361 -213 l -22 -213 l -8 -149 l 103 -149 l 301 783 l 180 777 l 191 841 l 384 853 m 563 534 q 346 446 437 534 q 255 241 255 358 q 313 107 255 157 q 445 57 372 57 q 648 148 559 57 q 738 354 738 239 q 689 486 738 438 q 563 534 640 534 z "},"ÿ":{"ha":814,"x_min":153,"x_max":888,"o":"m 594 583 l 888 583 l 875 519 l 764 519 l 665 54 q 653 2 658 20 q 636 -50 648 -16 q 610 -102 624 -83 q 570 -148 595 -122 q 512 -187 544 -174 q 433 -211 480 -201 q 327 -221 385 -221 q 198 -209 277 -221 l 213 -136 q 342 -155 286 -155 q 443 -142 400 -155 q 510 -113 486 -129 q 552 -64 534 -96 q 576 -9 570 -31 q 594 54 583 12 l 610 122 l 608 125 q 385 20 494 20 q 249 74 300 20 q 198 220 198 127 q 206 279 198 243 l 256 519 l 153 519 l 165 583 l 461 583 l 449 519 l 326 519 l 274 274 q 269 222 269 244 q 307 120 269 153 q 397 87 345 87 q 632 222 495 87 l 694 519 l 579 519 l 594 583 m 415 696 l 445 842 l 544 842 l 513 696 l 415 696 m 591 696 l 623 842 l 720 842 l 689 696 l 591 696 z "},"Ā":{"ha":814,"x_min":12,"x_max":812,"o":"m 313 764 l 605 764 l 743 64 l 812 64 l 799 0 l 521 0 l 534 64 l 673 64 l 635 252 l 283 252 l 165 64 l 302 64 l 290 0 l 12 0 l 26 64 l 96 64 l 494 700 l 302 700 l 313 764 m 625 312 l 552 684 l 320 312 l 625 312 m 342 983 l 803 983 l 788 916 l 327 916 l 342 983 z "},"ā":{"ha":814,"x_min":111,"x_max":803,"o":"m 709 401 l 640 64 l 758 64 l 745 0 l 556 0 l 572 77 q 486 31 518 47 q 399 -2 454 15 q 290 -19 343 -19 q 161 26 212 -19 q 111 140 111 72 q 199 302 111 227 q 449 377 288 377 q 633 359 536 377 l 640 401 q 647 460 647 435 q 614 519 647 492 q 509 545 582 545 q 264 488 416 545 l 251 551 q 525 610 412 610 q 663 574 608 610 q 719 471 719 538 q 709 401 719 458 m 590 161 l 620 297 q 450 312 530 312 q 319 294 374 312 q 236 249 263 277 q 197 195 209 221 q 184 146 184 170 q 220 73 184 100 q 300 46 256 46 q 448 82 363 46 q 590 161 533 118 m 342 803 l 803 803 l 788 735 l 327 735 l 342 803 z "},"Ă":{"ha":814,"x_min":12,"x_max":812,"o":"m 313 764 l 605 764 l 743 64 l 812 64 l 799 0 l 521 0 l 534 64 l 673 64 l 635 252 l 283 252 l 165 64 l 302 64 l 290 0 l 12 0 l 26 64 l 96 64 l 494 700 l 302 700 l 313 764 m 625 312 l 552 684 l 320 312 l 625 312 m 368 1027 l 430 1027 q 433 1021 431 1021 q 567 930 465 930 q 739 1023 671 930 q 743 1027 739 1023 l 807 1027 q 662 891 753 930 q 559 872 614 872 q 368 1027 396 872 z "},"ă":{"ha":814,"x_min":111,"x_max":807,"o":"m 709 401 l 640 64 l 758 64 l 745 0 l 556 0 l 572 77 q 486 31 518 47 q 399 -2 454 15 q 290 -19 343 -19 q 161 26 212 -19 q 111 140 111 72 q 199 302 111 227 q 449 377 288 377 q 633 359 536 377 l 640 401 q 647 460 647 435 q 614 519 647 492 q 509 545 582 545 q 264 488 416 545 l 251 551 q 525 610 412 610 q 663 574 608 610 q 719 471 719 538 q 709 401 719 458 m 590 161 l 620 297 q 450 312 530 312 q 319 294 374 312 q 236 249 263 277 q 197 195 209 221 q 184 146 184 170 q 220 73 184 100 q 300 46 256 46 q 448 82 363 46 q 590 161 533 118 m 368 846 l 430 846 q 433 841 431 841 q 567 750 465 750 q 739 842 671 750 q 743 846 739 842 l 807 846 q 662 711 753 750 q 559 692 614 692 q 368 846 396 692 z "},"Ą":{"ha":814,"x_min":12,"x_max":812,"o":"m 727 -53 l 699 -127 q 613 -159 650 -159 q 567 -142 586 -159 q 548 -95 548 -125 q 612 -3 548 -37 l 612 0 l 521 0 l 534 64 l 673 64 l 635 252 l 283 252 l 165 64 l 302 64 l 290 0 l 12 0 l 26 64 l 96 64 l 494 700 l 302 700 l 313 764 l 605 764 l 743 64 l 812 64 l 799 0 l 728 0 q 633 -71 633 -28 q 651 -88 633 -88 q 727 -53 669 -88 m 625 312 l 552 684 l 320 312 l 625 312 z "},"ą":{"ha":814,"x_min":111,"x_max":758,"o":"m 673 -53 l 643 -127 q 557 -159 594 -159 q 511 -142 530 -159 q 492 -95 492 -125 q 556 0 492 -42 l 572 77 q 486 31 518 47 q 399 -2 454 15 q 290 -19 343 -19 q 161 26 212 -19 q 111 140 111 72 q 199 302 111 227 q 449 377 288 377 q 633 359 536 377 l 640 401 q 647 460 647 435 q 614 519 647 492 q 509 545 582 545 q 264 488 416 545 l 251 551 q 525 610 412 610 q 663 574 608 610 q 719 471 719 538 q 709 401 719 458 l 640 64 l 758 64 l 745 0 l 673 0 q 578 -71 578 -28 q 597 -88 578 -88 q 673 -53 613 -88 m 590 161 l 620 297 q 450 311 538 311 q 320 293 376 311 q 237 248 264 275 q 197 195 209 221 q 184 146 184 170 q 220 73 184 100 q 300 46 256 46 q 448 82 363 46 q 590 161 533 118 z "},"Ć":{"ha":814,"x_min":159,"x_max":916,"o":"m 861 764 l 916 753 q 909 731 916 751 q 895 689 905 719 q 882 652 884 659 q 873 623 880 644 q 865 592 867 601 q 859 566 863 583 q 852 533 854 548 q 848 499 850 518 l 788 499 q 792 553 792 528 q 771 640 792 604 q 718 691 750 675 q 659 713 685 707 q 610 719 633 719 q 343 590 454 719 q 232 281 232 461 q 287 112 232 179 q 471 45 342 45 q 741 136 613 45 q 749 141 746 141 l 788 84 q 717 38 747 56 q 615 -1 686 20 q 467 -23 544 -23 q 233 62 308 -23 q 159 282 159 146 q 295 638 159 490 q 613 787 431 787 q 777 723 711 787 q 789 709 779 722 q 809 688 800 697 q 819 680 818 680 q 849 730 829 680 q 857 750 853 741 q 861 764 860 760 m 796 1019 l 571 863 l 498 863 l 647 1019 l 796 1019 z "},"ć":{"ha":814,"x_min":144,"x_max":818,"o":"m 769 606 l 818 595 q 769 378 777 491 l 711 370 q 711 413 709 391 q 703 458 712 435 q 678 498 694 480 q 626 526 662 515 q 538 537 590 537 q 305 442 393 537 q 217 235 217 347 q 243 130 217 172 q 309 73 269 88 q 373 52 349 57 q 420 47 397 47 q 700 149 528 47 l 727 94 q 640 43 675 62 q 535 3 605 24 q 401 -19 465 -19 q 317 -7 359 -19 q 235 33 275 5 q 169 110 194 60 q 144 228 144 160 q 257 488 144 372 q 536 604 370 604 q 712 536 644 604 q 724 529 719 529 q 769 606 742 529 m 724 838 l 499 682 l 426 682 l 575 838 l 724 838 z "},"Ĉ":{"ha":814,"x_min":159,"x_max":916,"o":"m 861 764 l 916 753 q 909 731 916 751 q 895 689 905 719 q 882 652 884 659 q 873 623 880 644 q 865 592 867 601 q 859 566 863 583 q 852 533 854 548 q 848 499 850 518 l 788 499 q 792 553 792 528 q 771 640 792 604 q 718 691 750 675 q 659 713 685 707 q 610 719 633 719 q 343 590 454 719 q 232 281 232 461 q 287 112 232 179 q 471 45 342 45 q 741 136 613 45 q 749 141 746 141 l 788 84 q 717 38 747 56 q 615 -1 686 20 q 467 -23 544 -23 q 233 62 308 -23 q 159 282 159 146 q 295 638 159 490 q 613 787 431 787 q 777 723 711 787 q 789 709 779 722 q 809 688 800 697 q 819 680 818 680 q 849 730 829 680 q 857 750 853 741 q 861 764 860 760 m 606 1021 l 709 1021 l 811 894 l 764 863 l 643 949 l 505 863 l 467 897 l 606 1021 z "},"ĉ":{"ha":814,"x_min":144,"x_max":818,"o":"m 769 606 l 818 595 q 769 378 777 491 l 711 370 q 711 413 709 391 q 703 458 712 435 q 678 498 694 480 q 626 526 662 515 q 538 537 590 537 q 305 442 393 537 q 217 235 217 347 q 243 130 217 172 q 309 73 269 88 q 373 52 349 57 q 420 47 397 47 q 700 149 528 47 l 727 94 q 640 43 675 62 q 535 3 605 24 q 401 -19 465 -19 q 317 -7 359 -19 q 235 33 275 5 q 169 110 194 60 q 144 228 144 160 q 257 488 144 372 q 536 604 370 604 q 712 536 644 604 q 724 529 719 529 q 769 606 742 529 m 534 844 l 637 844 l 739 716 l 692 685 l 571 772 l 433 685 l 395 719 l 534 844 z "},"Ċ":{"ha":814,"x_min":159,"x_max":916,"o":"m 861 764 l 916 753 q 909 731 916 751 q 895 689 905 719 q 882 652 884 659 q 873 623 880 644 q 865 592 867 601 q 859 566 863 583 q 852 533 854 548 q 848 499 850 518 l 788 499 q 792 553 792 528 q 771 640 792 604 q 718 691 750 675 q 659 713 685 707 q 610 719 633 719 q 343 590 454 719 q 232 281 232 461 q 287 112 232 179 q 471 45 342 45 q 741 136 613 45 q 749 141 746 141 l 788 84 q 717 38 747 56 q 615 -1 686 20 q 467 -23 544 -23 q 233 62 308 -23 q 159 282 159 146 q 295 638 159 490 q 613 787 431 787 q 777 723 711 787 q 789 709 779 722 q 809 688 800 697 q 819 680 818 680 q 849 730 829 680 q 857 750 853 741 q 861 764 860 760 m 575 876 l 606 1023 l 704 1023 l 674 876 l 575 876 z "},"ċ":{"ha":814,"x_min":144,"x_max":818,"o":"m 769 606 l 818 595 q 769 378 777 491 l 711 370 q 711 413 709 391 q 703 458 712 435 q 678 498 694 480 q 626 526 662 515 q 538 537 590 537 q 305 442 393 537 q 217 235 217 347 q 243 130 217 172 q 309 73 269 88 q 373 52 349 57 q 420 47 397 47 q 700 149 528 47 l 727 94 q 640 43 675 62 q 535 3 605 24 q 401 -19 465 -19 q 317 -7 359 -19 q 235 33 275 5 q 169 110 194 60 q 144 228 144 160 q 257 488 144 372 q 536 604 370 604 q 712 536 644 604 q 724 529 719 529 q 769 606 742 529 m 503 696 l 534 842 l 632 842 l 602 696 l 503 696 z "},"Č":{"ha":814,"x_min":159,"x_max":916,"o":"m 861 764 l 916 753 q 909 731 916 751 q 895 689 905 719 q 882 652 884 659 q 873 623 880 644 q 865 592 867 601 q 859 566 863 583 q 852 533 854 548 q 848 499 850 518 l 788 499 q 792 553 792 528 q 771 640 792 604 q 718 691 750 675 q 659 713 685 707 q 610 719 633 719 q 343 590 454 719 q 232 281 232 461 q 287 112 232 179 q 471 45 342 45 q 741 136 613 45 q 749 141 746 141 l 788 84 q 717 38 747 56 q 615 -1 686 20 q 467 -23 544 -23 q 233 62 308 -23 q 159 282 159 146 q 295 638 159 490 q 613 787 431 787 q 777 723 711 787 q 789 709 779 722 q 809 688 800 697 q 819 680 818 680 q 849 730 829 680 q 857 750 853 741 q 861 764 860 760 m 678 863 l 570 863 l 483 990 l 530 1021 l 637 935 l 773 1021 l 818 987 l 678 863 z "},"č":{"ha":814,"x_min":144,"x_max":818,"o":"m 769 606 l 818 595 q 769 378 777 491 l 711 370 q 711 413 709 391 q 703 458 712 435 q 678 498 694 480 q 626 526 662 515 q 538 537 590 537 q 305 442 393 537 q 217 235 217 347 q 243 130 217 172 q 309 73 269 88 q 373 52 349 57 q 420 47 397 47 q 700 149 528 47 l 727 94 q 640 43 675 62 q 535 3 605 24 q 401 -19 465 -19 q 317 -7 359 -19 q 235 33 275 5 q 169 110 194 60 q 144 228 144 160 q 257 488 144 372 q 536 604 370 604 q 712 536 644 604 q 724 529 719 529 q 769 606 742 529 m 606 682 l 498 682 l 411 810 l 458 841 l 566 754 l 701 841 l 746 807 l 606 682 z "},"Ď":{"ha":814,"x_min":43,"x_max":841,"o":"m 206 764 l 543 764 q 747 722 688 764 q 816 632 791 690 q 841 509 841 574 q 833 413 841 465 q 790 275 825 361 q 697 123 755 189 q 380 0 589 0 l 43 0 l 57 64 l 164 64 l 300 700 l 193 700 l 206 764 m 534 700 l 369 700 l 233 64 l 389 64 q 647 165 560 64 q 740 332 712 241 q 768 488 768 422 q 700 663 768 609 q 534 700 656 700 m 651 863 l 543 863 l 456 990 l 503 1021 l 610 935 l 746 1021 l 791 987 l 651 863 z "},"ď":{"ha":814,"x_min":127,"x_max":853,"o":"m 566 825 l 853 850 l 686 64 l 800 64 l 787 0 l 606 0 l 627 96 l 624 99 q 373 -14 514 -14 q 193 58 259 -14 q 127 228 127 129 q 241 477 127 369 q 492 586 355 586 q 615 556 557 586 q 700 472 673 526 l 703 472 l 770 777 l 544 764 l 566 825 m 376 53 q 584 141 498 53 q 670 338 670 229 q 620 469 670 419 q 491 519 570 519 q 288 433 373 519 q 203 232 203 346 q 256 99 203 145 q 376 53 309 53 m 633 929 l 525 929 l 438 1057 l 486 1088 l 593 1001 l 728 1088 l 773 1054 l 633 929 z "},"đ":{"ha":814,"x_min":127,"x_max":936,"o":"m 566 825 l 853 850 l 822 705 l 936 705 l 922 642 l 808 642 l 686 64 l 800 64 l 787 0 l 606 0 l 627 96 l 624 99 q 373 -14 514 -14 q 193 58 259 -14 q 127 228 127 129 q 241 477 127 369 q 492 586 355 586 q 615 556 557 586 q 700 472 673 526 l 703 472 l 742 642 l 412 642 l 426 705 l 755 705 l 770 777 l 544 764 l 566 825 m 376 53 q 584 141 498 53 q 670 338 670 229 q 620 469 670 419 q 491 519 570 519 q 288 433 373 519 q 203 232 203 346 q 256 99 203 145 q 376 53 309 53 z "},"Ē":{"ha":814,"x_min":75,"x_max":883,"o":"m 237 764 l 883 764 l 836 514 l 773 514 l 799 700 l 408 700 l 351 435 l 571 435 l 593 534 l 655 534 l 600 274 l 537 274 l 557 372 l 339 372 l 273 64 l 677 64 l 723 250 l 787 250 l 734 0 l 75 0 l 88 64 l 205 64 l 339 700 l 224 700 l 237 764 m 414 983 l 875 983 l 860 916 l 399 916 l 414 983 z "},"ē":{"ha":814,"x_min":152,"x_max":803,"o":"m 734 130 l 753 69 q 745 65 753 69 l 726 56 q 578 2 662 23 q 426 -19 494 -19 q 226 45 300 -19 q 152 221 152 109 q 266 487 152 370 q 544 604 380 604 q 737 538 671 604 q 803 381 803 472 q 784 282 803 339 l 783 275 l 227 275 q 225 236 225 263 q 245 141 225 180 q 298 83 264 102 q 363 56 331 64 q 434 47 396 47 q 542 62 483 47 q 636 90 601 77 q 734 130 671 103 m 244 336 l 727 336 q 730 373 730 355 q 682 489 730 441 q 536 537 633 537 q 349 475 422 537 q 244 336 275 412 m 342 803 l 803 803 l 788 735 l 327 735 l 342 803 z "},"Ė":{"ha":814,"x_min":75,"x_max":883,"o":"m 237 764 l 883 764 l 836 514 l 773 514 l 799 700 l 408 700 l 351 435 l 571 435 l 593 534 l 655 534 l 600 274 l 537 274 l 557 372 l 339 372 l 273 64 l 677 64 l 723 250 l 787 250 l 734 0 l 75 0 l 88 64 l 205 64 l 339 700 l 224 700 l 237 764 m 575 876 l 606 1023 l 704 1023 l 674 876 l 575 876 z "},"ė":{"ha":814,"x_min":152,"x_max":803,"o":"m 734 130 l 753 69 q 745 65 753 69 l 726 56 q 578 2 662 23 q 426 -19 494 -19 q 226 45 300 -19 q 152 221 152 109 q 266 487 152 370 q 544 604 380 604 q 737 538 671 604 q 803 381 803 472 q 784 282 803 339 l 783 275 l 227 275 q 225 236 225 263 q 245 141 225 180 q 298 83 264 102 q 363 56 331 64 q 434 47 396 47 q 542 62 483 47 q 636 90 601 77 q 734 130 671 103 m 244 336 l 727 336 q 730 373 730 355 q 682 489 730 441 q 536 537 633 537 q 349 475 422 537 q 244 336 275 412 m 503 696 l 534 842 l 632 842 l 602 696 l 503 696 z "},"Ę":{"ha":814,"x_min":75,"x_max":883,"o":"m 661 -53 l 632 -127 q 547 -159 583 -159 q 500 -142 519 -159 q 480 -95 480 -125 q 545 -3 480 -38 l 545 0 l 75 0 l 88 64 l 205 64 l 339 700 l 224 700 l 237 764 l 883 764 l 836 514 l 773 514 l 799 700 l 408 700 l 351 435 l 571 435 l 593 534 l 655 534 l 600 274 l 537 274 l 557 372 l 339 372 l 273 64 l 677 64 l 723 250 l 787 250 l 734 0 l 662 0 q 566 -71 566 -28 q 585 -88 566 -88 q 661 -53 602 -88 z "},"ę":{"ha":814,"x_min":152,"x_max":803,"o":"m 560 -53 l 530 -127 q 445 -159 487 -159 q 399 -142 419 -159 q 380 -95 380 -125 q 419 -19 380 -54 q 221 47 290 -18 q 152 221 152 113 q 266 487 152 370 q 544 604 380 604 q 737 538 671 604 q 803 381 803 472 q 783 275 803 347 l 227 275 q 225 236 225 263 q 272 105 225 160 q 433 50 319 50 q 734 130 551 50 l 753 69 q 556 -1 678 33 q 465 -71 465 -35 q 484 -88 465 -88 q 560 -53 500 -88 m 244 336 l 727 336 q 730 373 730 355 q 682 489 730 441 q 536 537 633 537 q 349 475 422 537 q 244 336 275 412 z "},"Ě":{"ha":814,"x_min":75,"x_max":883,"o":"m 237 764 l 883 764 l 836 514 l 773 514 l 799 700 l 408 700 l 351 435 l 571 435 l 593 534 l 655 534 l 600 274 l 537 274 l 557 372 l 339 372 l 273 64 l 677 64 l 723 250 l 787 250 l 734 0 l 75 0 l 88 64 l 205 64 l 339 700 l 224 700 l 237 764 m 678 863 l 570 863 l 483 990 l 530 1021 l 637 935 l 773 1021 l 818 987 l 678 863 z "},"ě":{"ha":814,"x_min":152,"x_max":803,"o":"m 734 130 l 753 69 q 745 65 753 69 l 726 56 q 578 2 662 23 q 426 -19 494 -19 q 226 45 300 -19 q 152 221 152 109 q 266 487 152 370 q 544 604 380 604 q 737 538 671 604 q 803 381 803 472 q 784 282 803 339 l 783 275 l 227 275 q 225 236 225 263 q 245 141 225 180 q 298 83 264 102 q 363 56 331 64 q 434 47 396 47 q 542 62 483 47 q 636 90 601 77 q 734 130 671 103 m 244 336 l 727 336 q 730 373 730 355 q 682 489 730 441 q 536 537 633 537 q 349 475 422 537 q 244 336 275 412 m 606 682 l 498 682 l 411 810 l 458 841 l 566 754 l 701 841 l 746 807 l 606 682 z "},"Ĝ":{"ha":814,"x_min":133,"x_max":894,"o":"m 518 335 l 853 335 l 840 273 l 774 273 l 726 42 q 434 -23 559 -23 q 212 58 290 -23 q 133 277 133 138 q 191 518 133 401 q 355 711 250 635 q 585 787 460 787 q 696 761 646 787 q 776 692 747 735 l 789 678 q 799 687 793 678 q 810 708 804 696 q 820 732 815 720 q 827 754 825 745 l 831 764 l 894 753 q 831 505 842 610 l 766 494 q 747 631 772 583 q 578 719 701 719 q 317 586 427 719 q 206 278 206 453 q 265 109 206 172 q 448 45 324 45 q 667 90 532 45 l 707 273 l 505 273 l 518 335 m 606 1021 l 709 1021 l 811 894 l 764 863 l 643 949 l 505 863 l 467 897 l 606 1021 z "},"ĝ":{"ha":814,"x_min":121,"x_max":872,"o":"m 693 583 l 872 583 l 859 519 l 747 519 l 646 35 q 547 -152 620 -91 q 320 -213 475 -213 q 205 -210 270 -213 l 221 -138 q 347 -146 300 -146 q 507 -102 453 -146 q 579 35 562 -57 l 594 114 l 591 117 q 357 15 484 15 q 185 81 250 15 q 121 245 121 148 q 229 482 121 376 q 480 589 338 589 q 587 564 533 589 q 671 483 642 538 l 693 583 m 363 81 q 558 165 477 81 q 639 355 639 248 q 591 477 639 431 q 475 522 543 522 q 278 439 362 522 q 194 252 194 357 q 249 123 194 165 q 363 81 304 81 m 521 841 l 624 841 l 726 713 l 678 682 l 557 769 l 419 682 l 381 716 l 521 841 z "},"Ğ":{"ha":814,"x_min":133,"x_max":894,"o":"m 518 335 l 853 335 l 840 273 l 774 273 l 726 42 q 434 -23 559 -23 q 212 58 290 -23 q 133 277 133 138 q 191 518 133 401 q 355 711 250 635 q 585 787 460 787 q 696 761 646 787 q 776 692 747 735 l 789 678 q 799 687 793 678 q 810 708 804 696 q 820 732 815 720 q 827 754 825 745 l 831 764 l 894 753 q 831 505 842 610 l 766 494 q 747 631 772 583 q 578 719 701 719 q 317 586 427 719 q 206 278 206 453 q 265 109 206 172 q 448 45 324 45 q 667 90 532 45 l 707 273 l 505 273 l 518 335 m 439 1027 l 502 1027 q 505 1021 503 1021 q 639 930 537 930 q 811 1023 743 930 q 815 1027 811 1023 l 879 1027 q 734 891 825 930 q 631 872 686 872 q 439 1027 468 872 z "},"ğ":{"ha":814,"x_min":121,"x_max":872,"o":"m 693 583 l 872 583 l 859 519 l 747 519 l 646 35 q 547 -152 620 -91 q 320 -213 475 -213 q 205 -210 270 -213 l 221 -138 q 347 -146 300 -146 q 507 -102 453 -146 q 579 35 562 -57 l 594 114 l 591 117 q 357 15 484 15 q 185 81 250 15 q 121 245 121 148 q 229 482 121 376 q 480 589 338 589 q 587 564 533 589 q 671 483 642 538 l 693 583 m 363 81 q 558 165 477 81 q 639 355 639 248 q 591 477 639 431 q 475 522 543 522 q 278 439 362 522 q 194 252 194 357 q 249 123 194 165 q 363 81 304 81 m 354 846 l 416 846 q 419 841 418 841 q 553 750 452 750 q 726 842 658 750 q 730 846 726 842 l 793 846 q 648 711 739 750 q 545 692 601 692 q 354 846 382 692 z "},"Ġ":{"ha":814,"x_min":133,"x_max":894,"o":"m 518 335 l 853 335 l 840 273 l 774 273 l 726 42 q 434 -23 559 -23 q 212 58 290 -23 q 133 277 133 138 q 191 518 133 401 q 355 711 250 635 q 585 787 460 787 q 696 761 646 787 q 776 692 747 735 l 789 678 q 799 687 793 678 q 810 708 804 696 q 820 732 815 720 q 827 754 825 745 l 831 764 l 894 753 q 831 505 842 610 l 766 494 q 747 631 772 583 q 578 719 701 719 q 317 586 427 719 q 206 278 206 453 q 265 109 206 172 q 448 45 324 45 q 667 90 532 45 l 707 273 l 505 273 l 518 335 m 575 948 l 606 1095 l 704 1095 l 674 948 l 575 948 z "},"ġ":{"ha":814,"x_min":121,"x_max":872,"o":"m 693 583 l 872 583 l 859 519 l 747 519 l 646 35 q 547 -152 620 -91 q 320 -213 475 -213 q 205 -210 270 -213 l 221 -138 q 347 -146 300 -146 q 507 -102 453 -146 q 579 35 562 -57 l 594 114 l 591 117 q 357 15 484 15 q 185 81 250 15 q 121 245 121 148 q 229 482 121 376 q 480 589 338 589 q 587 564 533 589 q 671 483 642 538 l 693 583 m 363 81 q 558 165 477 81 q 639 355 639 248 q 591 477 639 431 q 475 522 543 522 q 278 439 362 522 q 194 252 194 357 q 249 123 194 165 q 363 81 304 81 m 503 696 l 534 842 l 632 842 l 602 696 l 503 696 z "},"Ģ":{"ha":814,"x_min":133,"x_max":894,"o":"m 480 -20 l 477 -30 q 555 -106 555 -42 q 524 -168 555 -142 q 433 -193 494 -193 q 282 -172 384 -193 l 305 -113 q 437 -132 373 -132 q 491 -106 491 -132 q 488 -94 491 -98 q 463 -87 484 -91 q 399 -81 442 -83 l 418 -23 q 201 68 269 -18 q 133 277 133 153 q 191 518 133 401 q 355 711 250 635 q 585 787 460 787 q 755 719 688 787 q 764 706 757 718 q 779 686 772 694 q 789 678 785 678 q 799 687 793 678 q 810 708 804 696 q 820 732 815 720 q 827 754 825 745 l 831 764 l 894 753 q 831 505 842 610 l 766 494 q 747 631 772 583 q 578 719 701 719 q 317 587 427 719 q 206 279 206 454 q 265 109 206 174 q 448 45 324 45 q 667 90 532 45 l 707 273 l 505 273 l 518 335 l 853 335 l 840 273 l 774 273 l 726 42 q 480 -20 590 -9 z "},"Ĥ":{"ha":814,"x_min":50,"x_max":922,"o":"m 213 764 l 487 764 l 471 700 l 369 700 l 311 426 l 681 426 l 738 700 l 637 700 l 651 764 l 922 764 l 909 700 l 807 700 l 670 64 l 773 64 l 760 0 l 487 0 l 502 64 l 604 64 l 670 362 l 300 362 l 235 64 l 336 64 l 321 0 l 50 0 l 64 64 l 165 64 l 300 700 l 199 700 l 213 764 m 575 1021 l 678 1021 l 780 894 l 732 863 l 612 949 l 473 863 l 435 897 l 575 1021 z "},"ĥ":{"ha":814,"x_min":49,"x_max":792,"o":"m 209 837 l 412 853 l 340 505 q 585 602 487 602 q 700 559 648 602 q 751 442 751 517 q 743 370 751 419 l 677 64 l 792 64 l 777 0 l 480 0 l 492 64 l 610 64 l 677 370 q 685 445 685 403 q 654 508 685 483 q 581 533 623 533 q 320 420 479 533 l 244 64 l 355 64 l 340 0 l 49 0 l 61 64 l 176 64 l 330 783 l 201 773 l 209 837 m 534 1088 l 637 1088 l 739 960 l 692 929 l 571 1016 l 433 929 l 395 963 l 534 1088 z "},"Ħ":{"ha":814,"x_min":50,"x_max":922,"o":"m 349 604 l 716 604 l 738 700 l 636 700 l 650 764 l 922 764 l 909 700 l 806 700 l 787 604 l 890 604 l 875 540 l 773 540 l 669 64 l 773 64 l 760 0 l 486 0 l 502 64 l 604 64 l 669 362 l 300 362 l 235 64 l 336 64 l 321 0 l 50 0 l 64 64 l 165 64 l 267 540 l 164 540 l 179 604 l 281 604 l 300 700 l 198 700 l 213 764 l 486 764 l 471 700 l 369 700 l 349 604 m 704 540 l 336 540 l 311 426 l 681 426 l 704 540 z "},"ħ":{"ha":814,"x_min":49,"x_max":792,"o":"m 368 642 l 331 490 q 402 534 377 519 q 479 567 427 548 q 578 586 532 586 q 694 544 643 586 q 746 427 746 502 q 738 355 746 396 l 678 64 l 792 64 l 777 0 l 480 0 l 492 64 l 610 64 l 670 355 q 680 430 680 422 q 648 492 680 467 q 575 517 617 517 q 315 404 467 517 l 244 64 l 355 64 l 342 0 l 49 0 l 61 64 l 179 64 l 300 642 l 167 642 l 179 705 l 315 705 l 331 783 l 201 773 l 209 837 l 412 853 l 381 705 l 690 705 l 678 642 l 368 642 z "},"Ĩ":{"ha":814,"x_min":133,"x_max":838,"o":"m 296 764 l 838 764 l 825 700 l 587 700 l 453 64 l 689 64 l 675 0 l 133 0 l 146 64 l 384 64 l 518 700 l 282 700 l 296 764 m 783 1019 l 834 1001 q 677 878 772 878 q 587 921 635 878 q 525 960 545 960 q 437 888 477 960 q 431 882 435 886 l 381 902 q 530 1021 444 1021 q 623 975 574 1021 q 688 939 662 939 q 783 1019 741 939 z "},"ĩ":{"ha":814,"x_min":134,"x_max":793,"o":"m 297 583 l 566 583 l 456 64 l 690 64 l 677 0 l 134 0 l 148 64 l 387 64 l 483 519 l 283 519 l 297 583 m 742 838 l 793 821 q 636 697 731 697 q 547 741 594 697 q 484 780 505 780 q 396 708 437 780 q 391 701 395 705 l 340 722 q 490 841 403 841 q 582 795 533 841 q 647 758 621 758 q 742 838 700 758 z "},"Ī":{"ha":814,"x_min":133,"x_max":844,"o":"m 296 764 l 838 764 l 825 700 l 587 700 l 453 64 l 689 64 l 675 0 l 133 0 l 146 64 l 384 64 l 518 700 l 282 700 l 296 764 m 382 983 l 844 983 l 829 916 l 368 916 l 382 983 z "},"ī":{"ha":814,"x_min":134,"x_max":803,"o":"m 297 583 l 566 583 l 456 64 l 690 64 l 677 0 l 134 0 l 148 64 l 387 64 l 483 519 l 283 519 l 297 583 m 342 803 l 803 803 l 788 735 l 327 735 l 342 803 z "},"Į":{"ha":814,"x_min":133,"x_max":838,"o":"m 499 -53 l 471 -127 q 385 -159 422 -159 q 339 -142 358 -159 q 320 -95 320 -125 q 384 -3 320 -37 l 384 0 l 133 0 l 146 64 l 384 64 l 518 700 l 282 700 l 296 764 l 838 764 l 825 700 l 587 700 l 453 64 l 689 64 l 675 0 l 500 0 q 404 -71 404 -28 q 423 -88 404 -88 q 499 -53 441 -88 z "},"į":{"ha":814,"x_min":133,"x_max":689,"o":"m 503 -53 l 473 -127 q 388 -159 429 -159 q 342 -142 362 -159 q 323 -95 323 -125 q 388 -3 323 -38 l 388 0 l 133 0 l 146 64 l 385 64 l 481 519 l 282 519 l 296 583 l 564 583 l 454 64 l 689 64 l 675 0 l 505 0 q 442 -26 476 -7 q 408 -71 408 -46 q 427 -88 408 -88 q 503 -53 445 -88 m 496 728 l 530 890 l 629 890 l 595 728 l 496 728 z "},"İ":{"ha":814,"x_min":133,"x_max":838,"o":"m 296 764 l 838 764 l 825 700 l 587 700 l 453 64 l 689 64 l 675 0 l 133 0 l 146 64 l 384 64 l 518 700 l 282 700 l 296 764 m 544 876 l 575 1023 l 673 1023 l 643 876 l 544 876 z "},"ı":{"ha":814,"x_min":134,"x_max":690,"o":"m 297 583 l 566 583 l 456 64 l 690 64 l 677 0 l 134 0 l 148 64 l 387 64 l 483 519 l 283 519 l 297 583 z "},"Ĳ":{"ha":814,"x_min":50,"x_max":941,"o":"m 213 764 l 518 764 l 505 700 l 387 700 l 251 64 l 366 64 l 353 0 l 50 0 l 64 64 l 183 64 l 317 700 l 199 700 l 213 764 m 654 764 l 941 764 l 928 700 l 841 700 l 751 277 q 733 192 741 222 q 708 114 726 161 q 671 41 690 66 q 620 -3 652 16 q 547 -23 587 -23 q 411 64 450 -23 l 453 292 l 521 292 l 510 224 q 492 103 492 121 q 509 63 492 81 q 555 45 525 45 q 629 96 604 45 q 684 277 655 148 l 773 700 l 640 700 l 654 764 z "},"ĳ":{"ha":814,"x_min":157,"x_max":814,"o":"m 320 583 l 536 583 l 412 0 l 157 0 l 171 64 l 357 64 l 453 519 l 307 519 l 320 583 m 460 728 l 494 890 l 593 890 l 559 728 l 460 728 m 586 583 l 776 583 l 663 53 q 649 -4 655 18 q 621 -68 643 -26 q 568 -137 598 -111 q 483 -184 538 -163 q 355 -205 427 -205 q 175 -182 293 -205 l 205 -118 q 372 -138 307 -138 q 464 -123 425 -138 q 526 -90 503 -109 q 564 -39 548 -71 q 585 13 581 -7 q 597 64 590 33 l 694 519 l 572 519 l 586 583 m 681 728 l 715 890 l 814 890 l 780 728 l 681 728 z "},"Ĵ":{"ha":814,"x_min":103,"x_max":947,"o":"m 438 764 l 947 764 l 933 700 l 760 700 l 670 277 q 604 90 640 142 q 509 7 568 37 q 382 -23 450 -23 q 103 64 267 -23 l 153 357 l 220 357 l 197 224 q 195 207 197 220 q 191 180 193 194 q 190 156 190 167 q 250 74 190 103 q 376 45 311 45 q 463 59 426 45 q 522 92 500 73 q 561 146 544 111 q 585 206 578 180 q 601 277 591 232 l 690 700 l 425 700 l 438 764 m 667 1021 l 770 1021 l 872 894 l 825 863 l 704 949 l 566 863 l 528 897 l 667 1021 z "},"ĵ":{"ha":814,"x_min":50,"x_max":670,"o":"m 236 583 l 652 583 l 538 53 q 524 -4 530 18 q 496 -68 518 -26 q 444 -137 473 -111 q 359 -184 415 -163 q 232 -205 304 -205 q 50 -182 171 -205 l 80 -118 q 247 -138 182 -138 q 326 -130 290 -138 q 384 -102 361 -121 q 422 -66 407 -83 q 448 -21 438 -49 q 463 22 458 7 q 473 64 468 37 l 570 519 l 222 519 l 236 583 m 464 841 l 568 841 l 670 713 l 623 682 l 502 769 l 363 682 l 324 716 l 464 841 z "},"Ķ":{"ha":814,"x_min":79,"x_max":918,"o":"m 241 764 l 538 764 l 525 700 l 412 700 l 345 393 l 749 697 l 749 700 l 639 700 l 652 764 l 918 764 l 905 700 l 846 700 l 498 434 q 682 64 594 283 l 810 64 l 795 0 l 629 0 q 575 140 595 91 q 519 260 555 190 q 441 393 483 331 l 328 308 l 277 64 l 391 64 l 377 0 l 79 0 l 92 64 l 208 64 l 345 700 l 228 700 l 241 764 m 518 0 l 507 -30 q 586 -106 586 -42 q 555 -168 586 -142 q 464 -193 525 -193 q 313 -172 415 -193 l 335 -113 q 467 -132 407 -132 q 522 -106 522 -132 q 519 -94 522 -98 q 494 -87 515 -91 q 430 -81 473 -83 l 457 0 l 518 0 z "},"ķ":{"ha":814,"x_min":71,"x_max":836,"o":"m 225 836 l 431 853 l 319 327 l 612 517 l 612 519 l 537 519 l 551 583 l 836 583 l 822 519 l 716 519 l 449 343 q 661 64 579 201 l 776 64 l 762 0 l 480 0 l 494 64 l 582 64 q 392 305 534 141 l 302 247 l 250 0 l 71 0 l 83 64 l 195 64 l 349 783 l 218 772 l 225 836 m 426 0 l 416 -30 q 495 -106 495 -41 q 464 -168 495 -142 q 372 -193 433 -193 q 222 -172 324 -193 l 244 -113 q 376 -132 316 -132 q 430 -106 430 -132 q 427 -94 430 -98 q 403 -87 423 -91 q 339 -81 382 -83 l 366 0 l 426 0 z "},"ĸ":{"ha":814,"x_min":71,"x_max":836,"o":"m 319 327 l 610 517 l 610 519 l 537 519 l 551 583 l 836 583 l 822 519 l 716 519 l 449 343 q 661 64 586 191 l 774 64 l 761 0 l 480 0 l 494 64 l 581 64 q 392 305 528 151 l 301 247 l 250 0 l 71 0 l 83 64 l 195 64 l 292 519 l 159 519 l 172 583 l 373 583 l 319 327 z "},"Ĺ":{"ha":814,"x_min":77,"x_max":821,"o":"m 240 764 l 610 764 l 597 700 l 430 700 l 294 64 l 678 64 l 755 338 l 821 338 l 732 0 l 77 0 l 91 64 l 227 64 l 362 700 l 227 700 l 240 764 m 612 1019 l 387 863 l 313 863 l 463 1019 l 612 1019 z "},"ĺ":{"ha":814,"x_min":136,"x_max":724,"o":"m 316 810 l 613 829 l 450 64 l 688 64 l 674 0 l 136 0 l 149 64 l 387 64 l 534 764 l 309 747 l 316 810 m 724 1085 l 499 929 l 426 929 l 575 1085 l 724 1085 z "},"Ļ":{"ha":814,"x_min":77,"x_max":821,"o":"m 476 0 l 467 -30 q 545 -106 545 -42 q 514 -168 545 -142 q 422 -193 483 -193 q 273 -172 374 -193 l 294 -113 q 426 -132 366 -132 q 480 -106 480 -132 q 477 -94 480 -98 q 453 -87 473 -91 q 389 -81 433 -83 l 415 0 l 77 0 l 91 64 l 227 64 l 362 700 l 227 700 l 240 764 l 610 764 l 597 700 l 430 700 l 294 64 l 678 64 l 755 338 l 821 338 l 732 0 l 476 0 z "},"ļ":{"ha":814,"x_min":136,"x_max":688,"o":"m 439 0 l 430 -30 q 507 -106 507 -41 q 477 -168 507 -142 q 385 -193 446 -193 q 235 -172 336 -193 l 258 -113 q 389 -132 326 -132 q 444 -106 444 -132 q 440 -94 444 -98 q 416 -87 437 -91 q 353 -81 396 -83 l 378 0 l 136 0 l 149 64 l 387 64 l 534 764 l 309 747 l 316 810 l 613 829 l 450 64 l 688 64 l 674 0 l 439 0 z "},"Ľ":{"ha":814,"x_min":77,"x_max":821,"o":"m 240 764 l 610 764 l 597 700 l 430 700 l 294 64 l 678 64 l 755 338 l 821 338 l 732 0 l 77 0 l 91 64 l 227 64 l 362 700 l 227 700 l 240 764 m 494 863 l 385 863 l 298 990 l 346 1021 l 453 935 l 589 1021 l 633 987 l 494 863 z "},"ľ":{"ha":814,"x_min":136,"x_max":746,"o":"m 316 810 l 613 829 l 450 64 l 688 64 l 674 0 l 136 0 l 149 64 l 387 64 l 534 764 l 309 747 l 316 810 m 606 929 l 498 929 l 411 1057 l 458 1088 l 566 1001 l 701 1088 l 746 1054 l 606 929 z "},"Ŀ":{"ha":814,"x_min":77,"x_max":821,"o":"m 240 764 l 610 764 l 597 700 l 430 700 l 294 64 l 678 64 l 755 338 l 821 338 l 732 0 l 77 0 l 91 64 l 227 64 l 362 700 l 227 700 l 240 764 m 597 486 q 659 465 633 486 q 685 411 685 445 q 646 333 685 363 q 563 302 608 302 q 500 323 526 302 q 473 377 473 343 q 511 454 473 423 q 597 486 549 486 z "},"ŀ":{"ha":814,"x_min":136,"x_max":868,"o":"m 316 810 l 613 829 l 450 64 l 688 64 l 674 0 l 136 0 l 149 64 l 387 64 l 534 764 l 309 747 l 316 810 m 780 506 q 842 485 817 506 q 868 431 868 464 q 829 353 868 384 q 746 323 791 323 q 684 343 711 323 q 656 397 656 363 q 695 475 656 444 q 780 506 734 506 z "},"Ł":{"ha":814,"x_min":77,"x_max":821,"o":"m 374 437 l 663 583 l 684 528 l 358 359 l 294 64 l 678 64 l 755 338 l 821 338 l 734 0 l 77 0 l 91 64 l 227 64 l 283 328 l 165 269 l 144 328 l 300 406 l 362 700 l 227 700 l 240 764 l 612 764 l 597 700 l 430 700 l 374 437 z "},"ł":{"ha":814,"x_min":136,"x_max":765,"o":"m 540 479 l 745 583 l 765 528 l 524 403 l 452 64 l 688 64 l 674 0 l 136 0 l 149 64 l 387 64 l 452 374 l 247 269 l 225 326 l 468 450 l 534 764 l 309 747 l 316 810 l 613 829 l 540 479 z "},"Ń":{"ha":814,"x_min":35,"x_max":962,"o":"m 198 764 l 429 764 l 637 57 l 661 57 l 792 700 l 646 700 l 661 764 l 962 764 l 948 700 l 856 700 l 712 -18 l 589 -18 l 378 700 l 357 700 l 225 64 l 372 64 l 357 0 l 35 0 l 49 64 l 161 64 l 293 700 l 184 700 l 198 764 m 796 1019 l 571 863 l 498 863 l 647 1019 l 796 1019 z "},"ń":{"ha":814,"x_min":43,"x_max":787,"o":"m 168 583 l 350 583 l 331 503 q 578 602 477 602 q 695 559 643 602 q 747 441 747 517 q 738 370 747 427 l 671 64 l 787 64 l 773 0 l 475 0 l 487 64 l 605 64 l 671 370 q 681 445 681 408 q 650 507 681 481 q 572 533 618 533 q 455 506 513 533 q 313 423 397 479 l 237 64 l 350 64 l 338 0 l 43 0 l 57 64 l 168 64 l 266 519 l 153 519 l 168 583 m 724 838 l 499 682 l 426 682 l 575 838 l 724 838 z "},"Ņ":{"ha":814,"x_min":35,"x_max":962,"o":"m 198 764 l 429 764 l 637 57 l 661 57 l 792 700 l 646 700 l 661 764 l 962 764 l 948 700 l 856 700 l 712 -18 l 589 -18 l 378 700 l 357 700 l 225 64 l 372 64 l 357 0 l 35 0 l 49 64 l 161 64 l 293 700 l 184 700 l 198 764 m 491 0 l 480 -30 q 559 -106 559 -42 q 528 -168 559 -142 q 437 -193 498 -193 q 286 -172 388 -193 l 308 -113 q 439 -132 380 -132 q 495 -106 495 -132 q 492 -94 495 -98 q 467 -87 488 -91 q 403 -81 446 -83 l 430 0 l 491 0 z "},"ņ":{"ha":814,"x_min":43,"x_max":787,"o":"m 168 583 l 350 583 l 331 503 q 578 602 477 602 q 695 559 643 602 q 747 441 747 517 q 738 370 747 427 l 671 64 l 787 64 l 773 0 l 475 0 l 487 64 l 605 64 l 671 370 q 681 445 681 408 q 650 507 681 481 q 572 533 618 533 q 455 506 513 533 q 313 423 397 479 l 237 64 l 350 64 l 338 0 l 43 0 l 57 64 l 168 64 l 266 519 l 153 519 l 168 583 m 444 0 l 433 -30 q 511 -106 511 -41 q 480 -168 511 -142 q 388 -193 449 -193 q 239 -172 340 -193 l 260 -113 q 392 -132 332 -132 q 446 -106 446 -132 q 443 -94 446 -98 q 419 -87 439 -91 q 355 -81 399 -83 l 382 0 l 444 0 z "},"Ň":{"ha":814,"x_min":35,"x_max":962,"o":"m 198 764 l 429 764 l 637 57 l 661 57 l 792 700 l 646 700 l 661 764 l 962 764 l 948 700 l 856 700 l 712 -18 l 589 -18 l 378 700 l 357 700 l 225 64 l 372 64 l 357 0 l 35 0 l 49 64 l 161 64 l 293 700 l 184 700 l 198 764 m 678 863 l 570 863 l 483 990 l 530 1021 l 637 935 l 773 1021 l 818 987 l 678 863 z "},"ň":{"ha":814,"x_min":43,"x_max":787,"o":"m 168 583 l 350 583 l 331 503 q 578 602 477 602 q 695 559 643 602 q 747 441 747 517 q 738 370 747 427 l 671 64 l 787 64 l 773 0 l 475 0 l 487 64 l 605 64 l 671 370 q 681 445 681 408 q 650 507 681 481 q 572 533 618 533 q 455 506 513 533 q 313 423 397 479 l 237 64 l 350 64 l 338 0 l 43 0 l 57 64 l 168 64 l 266 519 l 153 519 l 168 583 m 606 682 l 498 682 l 411 810 l 458 841 l 566 754 l 701 841 l 746 807 l 606 682 z "},"Ŋ":{"ha":814,"x_min":57,"x_max":836,"o":"m 220 764 l 403 764 l 384 674 q 467 721 438 705 q 561 759 496 736 q 678 781 625 781 q 762 763 727 781 q 810 715 796 745 q 830 663 825 686 q 836 614 836 639 q 829 555 836 589 l 718 28 q 620 -130 696 -75 q 463 -186 544 -186 l 357 -186 l 370 -115 l 472 -115 q 549 -99 515 -115 q 604 -58 583 -83 q 635 -12 624 -34 q 650 28 646 9 l 761 560 q 766 610 766 585 q 738 686 766 662 q 662 711 709 711 q 510 673 593 711 q 365 583 427 635 l 254 64 l 370 64 l 357 0 l 57 0 l 71 64 l 186 64 l 320 700 l 206 700 l 220 764 z "},"ŋ":{"ha":814,"x_min":43,"x_max":746,"o":"m 315 426 l 237 64 l 350 64 l 338 0 l 43 0 l 57 64 l 168 64 l 266 519 l 153 519 l 168 583 l 350 583 l 331 509 q 410 555 384 540 q 486 587 435 570 q 583 604 537 604 q 704 556 662 604 q 746 435 746 509 q 739 378 746 406 l 665 28 q 566 -133 642 -77 q 408 -189 490 -189 l 315 -189 l 331 -119 l 418 -119 q 538 -72 492 -119 q 597 28 585 -24 l 670 378 q 677 430 677 412 q 648 507 677 479 q 575 534 620 534 q 456 507 514 534 q 315 426 397 480 z "},"Ō":{"ha":814,"x_min":125,"x_max":875,"o":"m 125 286 q 157 457 125 369 q 246 618 190 545 q 388 739 302 692 q 568 787 473 787 q 690 763 637 787 q 772 705 743 739 q 818 628 800 671 q 841 552 836 585 q 846 490 846 519 q 716 135 846 293 q 403 -23 586 -23 q 275 3 330 -23 q 193 66 221 30 q 149 149 165 102 q 129 227 133 197 q 125 286 125 258 m 198 292 q 208 213 198 252 q 238 133 217 174 q 304 66 259 92 q 410 41 349 41 q 593 106 509 41 q 726 273 678 172 q 773 481 773 374 q 756 587 773 536 q 689 680 739 637 q 562 723 639 723 q 375 654 461 723 q 243 488 289 586 q 198 292 198 389 m 414 983 l 875 983 l 860 916 l 399 916 l 414 983 z "},"ō":{"ha":814,"x_min":123,"x_max":810,"o":"m 534 610 q 733 546 656 610 q 810 362 810 481 q 763 186 810 271 q 621 41 716 100 q 401 -19 525 -19 q 202 44 281 -19 q 123 229 123 107 q 236 491 123 372 q 534 610 349 610 m 525 547 q 288 450 380 547 q 197 237 197 354 q 250 101 197 157 q 412 45 304 45 q 646 142 555 45 q 736 353 736 240 q 681 492 736 438 q 525 547 625 547 m 342 803 l 803 803 l 788 735 l 327 735 l 342 803 z "},"Ő":{"ha":814,"x_min":125,"x_max":887,"o":"m 125 286 q 157 457 125 369 q 246 618 190 545 q 388 739 302 692 q 568 787 473 787 q 690 763 637 787 q 772 705 743 739 q 818 628 800 671 q 841 552 836 585 q 846 490 846 519 q 716 135 846 293 q 403 -23 586 -23 q 275 3 330 -23 q 193 66 221 30 q 149 149 165 102 q 129 227 133 197 q 125 286 125 258 m 198 292 q 208 213 198 252 q 238 133 217 174 q 304 66 259 92 q 410 41 349 41 q 593 106 509 41 q 726 273 678 172 q 773 481 773 374 q 756 587 773 536 q 689 680 739 637 q 562 723 639 723 q 375 654 461 723 q 243 488 289 586 q 198 292 198 389 m 716 1017 l 518 864 l 457 864 l 612 1017 l 716 1017 m 887 1017 l 689 864 l 628 864 l 783 1017 l 887 1017 z "},"ő":{"ha":814,"x_min":123,"x_max":815,"o":"m 534 610 q 733 546 656 610 q 810 362 810 481 q 763 186 810 271 q 621 41 716 100 q 401 -19 525 -19 q 202 44 281 -19 q 123 229 123 107 q 236 491 123 372 q 534 610 349 610 m 525 547 q 288 450 380 547 q 197 237 197 354 q 250 101 197 157 q 412 45 304 45 q 646 142 555 45 q 736 353 736 240 q 681 492 736 438 q 525 547 625 547 m 644 837 l 446 684 l 385 684 l 540 837 l 644 837 m 815 837 l 617 684 l 556 684 l 711 837 l 815 837 z "},"Œ":{"ha":814,"x_min":90,"x_max":887,"o":"m 743 0 l 328 0 q 214 27 263 0 q 140 98 165 54 q 102 188 114 141 q 90 283 90 235 q 146 511 90 401 q 307 692 202 621 q 536 764 411 764 l 887 764 l 842 519 l 780 519 l 802 700 l 623 700 l 568 438 l 655 438 l 674 536 l 735 536 l 685 275 l 623 275 l 642 374 l 555 374 l 488 64 l 685 64 l 735 251 l 796 251 l 743 0 m 420 64 l 555 700 l 522 700 q 264 576 369 700 q 160 293 160 452 q 167 222 160 256 q 193 150 174 189 q 254 87 212 111 q 358 64 297 64 l 420 64 z "},"œ":{"ha":814,"x_min":54,"x_max":844,"o":"m 819 278 l 492 278 q 481 189 481 232 q 609 42 481 42 q 730 87 662 42 l 758 33 q 602 -19 674 -19 q 524 -8 556 -19 q 472 24 491 3 q 445 59 453 45 q 427 98 437 73 q 216 -19 345 -19 q 129 1 164 -19 q 79 52 94 20 q 60 106 65 83 q 54 152 54 129 q 73 289 54 214 q 126 437 91 363 q 224 561 161 511 q 362 610 286 610 q 444 589 408 610 q 492 552 480 568 q 518 510 503 536 q 701 610 605 610 q 769 593 741 610 q 811 554 798 576 q 833 501 825 532 q 842 454 841 471 q 844 419 844 437 q 822 285 844 347 q 819 278 822 281 m 502 338 l 768 338 q 777 423 777 385 q 696 549 777 549 q 583 495 643 549 q 502 338 524 441 m 403 175 l 453 415 q 458 464 458 442 q 433 519 458 492 q 359 547 407 547 q 231 474 288 547 q 151 316 175 401 q 127 161 127 231 q 149 81 127 118 q 227 45 170 45 q 345 94 293 45 q 403 175 396 144 z "},"Ŕ":{"ha":814,"x_min":60,"x_max":796,"o":"m 221 764 l 567 764 q 628 762 606 764 q 686 753 650 761 q 743 728 723 745 q 780 680 764 712 q 796 600 796 647 q 729 437 796 511 q 547 351 662 363 q 560 321 552 338 q 643 137 566 309 l 674 64 l 795 64 l 781 0 l 610 0 q 511 262 583 110 q 473 345 487 311 l 472 347 q 471 351 471 350 l 312 351 l 251 64 l 373 64 l 359 0 l 60 0 l 73 64 l 184 64 l 319 700 l 208 700 l 221 764 m 559 700 l 385 700 l 324 411 l 453 411 q 648 453 590 411 q 726 597 726 509 q 713 656 726 633 q 671 687 700 678 q 622 698 643 696 q 559 700 601 700 m 796 1019 l 571 863 l 498 863 l 647 1019 l 796 1019 z "},"ŕ":{"ha":814,"x_min":99,"x_max":857,"o":"m 235 583 l 461 583 l 434 461 l 437 458 q 505 524 476 499 q 589 573 534 548 q 700 598 643 598 q 730 595 715 598 q 773 581 745 593 q 825 538 802 570 q 857 458 848 507 l 781 450 q 768 489 774 475 q 741 517 761 503 q 690 532 720 532 q 543 471 620 532 q 410 339 465 411 l 351 64 l 608 64 l 594 0 l 99 0 l 113 64 l 282 64 l 380 519 l 221 519 l 235 583 m 724 838 l 499 682 l 426 682 l 575 838 l 724 838 z "},"Ŗ":{"ha":814,"x_min":60,"x_max":796,"o":"m 221 764 l 567 764 q 628 762 606 764 q 686 753 650 761 q 743 728 723 745 q 780 680 764 712 q 796 600 796 647 q 729 437 796 511 q 547 351 662 363 q 609 214 556 331 q 674 64 662 96 l 795 64 l 781 0 l 610 0 q 568 132 595 61 q 515 252 560 153 q 471 351 471 350 l 312 351 l 251 64 l 373 64 l 359 0 l 60 0 l 73 64 l 184 64 l 319 700 l 208 700 l 221 764 m 559 700 l 385 700 l 324 411 l 453 411 q 648 453 590 411 q 726 597 726 509 q 713 656 726 633 q 671 687 700 678 q 622 698 643 696 q 559 700 601 700 m 475 0 l 464 -30 q 543 -106 543 -42 q 511 -168 543 -142 q 419 -193 480 -193 q 270 -172 372 -193 l 292 -113 q 423 -132 363 -132 q 477 -106 477 -132 q 474 -94 477 -98 q 450 -87 471 -91 q 387 -81 430 -83 l 414 0 l 475 0 z "},"ŗ":{"ha":814,"x_min":99,"x_max":857,"o":"m 494 0 l 484 -30 q 563 -106 563 -42 q 532 -168 563 -142 q 439 -193 500 -193 q 290 -172 392 -193 l 312 -113 q 444 -132 384 -132 q 498 -106 498 -132 q 494 -94 498 -98 q 471 -87 491 -91 q 407 -81 450 -83 l 433 0 l 99 0 l 113 64 l 282 64 l 380 519 l 221 519 l 235 583 l 461 583 l 434 461 l 437 458 q 505 524 476 499 q 589 573 534 548 q 700 598 643 598 q 730 595 715 598 q 773 581 745 593 q 825 538 802 570 q 857 458 848 507 l 781 450 q 768 489 774 475 q 741 517 761 503 q 690 532 720 532 q 543 471 620 532 q 410 339 465 411 l 351 64 l 608 64 l 594 0 l 494 0 z "},"Ř":{"ha":814,"x_min":60,"x_max":800,"o":"m 221 764 l 567 764 q 628 762 606 764 q 686 753 650 761 q 743 728 723 745 q 780 680 764 712 q 796 600 796 647 q 729 437 796 511 q 547 351 662 363 q 560 321 552 338 q 643 137 566 309 l 674 64 l 795 64 l 781 0 l 610 0 q 511 262 583 110 q 473 345 487 311 l 472 347 q 471 351 471 350 l 312 351 l 251 64 l 373 64 l 359 0 l 60 0 l 73 64 l 184 64 l 319 700 l 208 700 l 221 764 m 559 700 l 385 700 l 324 411 l 453 411 q 648 453 590 411 q 726 597 726 509 q 713 656 726 633 q 671 687 700 678 q 622 698 643 696 q 559 700 601 700 m 661 863 l 552 863 l 465 990 l 513 1021 l 620 935 l 755 1021 l 800 987 l 661 863 z "},"ř":{"ha":814,"x_min":99,"x_max":857,"o":"m 235 583 l 461 583 l 434 461 l 437 458 q 505 524 476 499 q 589 573 534 548 q 700 598 643 598 q 730 595 715 598 q 773 581 745 593 q 825 538 802 570 q 857 458 848 507 l 781 450 q 768 489 774 475 q 741 517 761 503 q 690 532 720 532 q 543 471 620 532 q 410 339 465 411 l 351 64 l 608 64 l 594 0 l 99 0 l 113 64 l 282 64 l 380 519 l 221 519 l 235 583 m 606 682 l 498 682 l 411 810 l 458 841 l 566 754 l 701 841 l 746 807 l 606 682 z "},"Ś":{"ha":814,"x_min":91,"x_max":856,"o":"m 800 788 l 856 773 q 783 519 799 632 l 726 530 q 731 578 731 557 q 682 686 731 650 q 551 723 632 723 q 387 671 450 723 q 323 549 323 618 q 340 479 323 507 q 391 439 358 452 q 445 424 425 427 q 499 418 465 420 q 739 235 739 401 q 659 56 739 136 q 438 -23 578 -23 q 213 57 283 -23 q 198 69 205 69 q 149 -26 187 69 l 91 -16 q 129 110 118 66 q 149 228 140 153 l 209 228 q 216 169 208 198 q 245 109 224 140 q 315 60 267 79 q 430 41 362 41 q 605 98 544 41 q 666 229 666 156 q 654 281 666 259 q 627 314 642 302 q 581 334 612 326 q 532 345 551 342 q 476 350 514 347 q 324 396 373 359 q 270 463 290 422 q 250 548 250 505 q 330 711 250 636 q 545 787 411 787 q 726 715 669 787 q 741 703 738 703 q 795 779 760 703 l 798 783 q 800 788 800 787 m 796 1019 l 571 863 l 498 863 l 647 1019 l 796 1019 z "},"ś":{"ha":814,"x_min":138,"x_max":781,"o":"m 734 608 l 781 601 q 742 397 750 505 l 685 397 q 682 442 685 426 q 663 484 678 458 q 608 524 648 510 q 505 537 568 537 q 360 499 416 537 q 304 412 304 461 q 311 379 304 393 q 334 356 317 365 q 366 341 351 347 q 413 332 381 335 q 466 327 445 328 q 529 323 487 326 q 730 190 730 313 q 648 45 730 109 q 430 -19 567 -19 q 312 0 358 -19 q 247 38 266 19 q 233 49 240 49 q 190 -20 221 49 l 138 -12 q 144 4 138 -7 q 151 30 145 8 q 163 70 157 52 q 168 92 168 88 q 175 180 175 153 q 177 191 176 183 q 178 201 178 198 l 237 209 q 248 117 236 141 q 313 67 264 87 q 427 47 361 47 q 590 85 522 47 q 658 186 658 122 q 621 240 658 228 q 487 258 585 252 q 483 258 484 258 q 439 260 454 259 q 393 266 423 262 q 344 275 362 270 q 301 292 326 281 q 263 318 277 304 q 240 355 250 332 q 231 404 231 377 q 307 541 231 480 q 509 601 382 601 q 675 547 616 601 q 689 538 684 538 q 727 594 701 538 q 731 602 728 597 l 734 608 m 724 838 l 499 682 l 426 682 l 575 838 l 724 838 z "},"Ŝ":{"ha":814,"x_min":91,"x_max":856,"o":"m 800 788 l 856 773 q 783 519 799 632 l 726 530 q 731 578 731 557 q 682 686 731 650 q 551 723 632 723 q 387 671 450 723 q 323 549 323 618 q 340 479 323 507 q 391 439 358 452 q 445 424 425 427 q 499 418 465 420 q 739 235 739 401 q 659 56 739 136 q 438 -23 578 -23 q 213 57 283 -23 q 198 69 205 69 q 149 -26 187 69 l 91 -16 q 129 110 118 66 q 149 228 140 153 l 209 228 q 216 169 208 198 q 245 109 224 140 q 315 60 267 79 q 430 41 362 41 q 605 98 544 41 q 666 229 666 156 q 654 281 666 259 q 627 314 642 302 q 581 334 612 326 q 532 345 551 342 q 476 350 514 347 q 324 396 373 359 q 270 463 290 422 q 250 548 250 505 q 330 711 250 636 q 545 787 411 787 q 726 715 669 787 q 741 703 738 703 q 795 779 760 703 l 798 783 q 800 788 800 787 m 606 1021 l 709 1021 l 811 894 l 764 863 l 643 949 l 505 863 l 467 897 l 606 1021 z "},"ŝ":{"ha":814,"x_min":138,"x_max":781,"o":"m 734 608 l 781 601 q 742 397 750 505 l 685 397 q 682 442 685 426 q 663 484 678 458 q 608 524 648 510 q 505 537 568 537 q 360 499 416 537 q 304 412 304 461 q 311 379 304 393 q 334 356 317 365 q 366 341 351 347 q 413 332 381 335 q 466 327 445 328 q 529 323 487 326 q 730 190 730 313 q 648 45 730 109 q 430 -19 567 -19 q 312 0 358 -19 q 247 38 266 19 q 233 49 240 49 q 190 -20 221 49 l 138 -12 q 144 4 138 -7 q 151 30 145 8 q 163 70 157 52 q 168 92 168 88 q 175 180 175 153 q 177 191 176 183 q 178 201 178 198 l 237 209 q 248 117 236 141 q 313 67 264 87 q 427 47 361 47 q 590 85 522 47 q 658 186 658 122 q 621 240 658 228 q 487 258 585 252 q 483 258 484 258 q 439 260 454 259 q 393 266 423 262 q 344 275 362 270 q 301 292 326 281 q 263 318 277 304 q 240 355 250 332 q 231 404 231 377 q 307 541 231 480 q 509 601 382 601 q 675 547 616 601 q 689 538 684 538 q 727 594 701 538 q 731 602 728 597 l 734 608 m 534 841 l 637 841 l 739 713 l 692 682 l 571 769 l 433 682 l 395 716 l 534 841 z "},"Ş":{"ha":814,"x_min":91,"x_max":856,"o":"m 439 -23 l 437 -30 q 515 -106 515 -42 q 484 -168 515 -142 q 392 -193 453 -193 q 243 -172 345 -193 l 264 -113 q 396 -132 336 -132 q 450 -106 450 -132 q 447 -94 450 -98 q 423 -87 444 -91 q 359 -81 403 -83 l 380 -19 q 239 33 290 -7 q 227 44 236 34 q 210 62 218 54 q 198 69 202 69 q 149 -26 187 69 l 91 -16 q 129 110 118 66 q 149 228 140 153 l 209 228 q 254 96 205 151 q 429 41 304 41 q 604 98 543 41 q 666 228 666 155 q 651 289 666 264 q 604 326 636 313 q 547 342 571 338 q 476 350 522 346 q 324 396 373 359 q 270 463 290 422 q 250 548 250 505 q 330 711 250 636 q 545 787 411 787 q 705 738 652 787 q 715 727 707 736 q 730 710 723 718 q 741 703 738 703 q 800 788 754 703 l 856 773 q 783 519 799 632 l 726 530 q 731 578 731 557 q 682 686 731 650 q 551 723 632 723 q 387 671 450 723 q 323 549 323 618 q 340 479 323 507 q 391 439 358 452 q 445 424 425 427 q 499 418 465 420 q 739 235 739 401 q 723 153 739 194 q 673 71 707 111 q 579 5 640 31 q 439 -23 518 -22 z "},"ş":{"ha":814,"x_min":138,"x_max":781,"o":"m 454 -19 l 450 -30 q 529 -106 529 -42 q 498 -168 529 -142 q 406 -193 467 -193 q 256 -172 358 -193 l 278 -113 q 410 -132 350 -132 q 464 -106 464 -132 q 460 -94 464 -98 q 437 -87 457 -91 q 373 -81 416 -83 l 393 -18 q 267 22 323 -11 q 257 30 264 23 q 243 43 250 37 q 233 49 236 49 q 190 -20 221 49 l 138 -12 q 148 19 140 -7 q 162 67 156 45 q 168 92 168 90 q 173 152 171 129 q 176 186 175 175 q 178 201 178 197 l 237 209 q 248 117 236 141 q 313 67 264 87 q 427 47 361 47 q 590 85 522 47 q 658 186 658 122 q 621 240 658 228 q 487 258 585 252 q 483 258 484 258 q 439 260 454 259 q 393 266 423 262 q 344 275 362 270 q 301 292 326 281 q 263 318 277 304 q 240 355 250 332 q 231 404 231 377 q 307 541 231 480 q 509 601 382 601 q 656 562 597 601 q 672 549 658 560 q 689 538 686 538 q 704 549 697 538 q 734 608 711 560 l 781 601 q 742 397 750 505 l 685 397 q 682 442 685 426 q 663 484 678 458 q 608 524 648 510 q 505 537 568 537 q 360 499 416 537 q 304 412 304 461 q 311 379 304 393 q 334 356 317 365 q 366 341 351 347 q 413 332 381 335 q 466 327 445 328 q 529 323 487 326 q 730 190 730 313 q 661 54 730 118 q 454 -19 591 -11 z "},"Š":{"ha":814,"x_min":91,"x_max":856,"o":"m 800 788 l 856 773 q 783 519 799 632 l 726 530 q 731 578 731 557 q 682 686 731 650 q 551 723 632 723 q 387 671 450 723 q 323 549 323 618 q 340 479 323 507 q 391 439 358 452 q 445 424 425 427 q 499 418 465 420 q 739 235 739 401 q 659 56 739 136 q 438 -23 578 -23 q 213 57 283 -23 q 198 69 205 69 q 149 -26 187 69 l 91 -16 q 129 110 118 66 q 149 228 140 153 l 209 228 q 216 169 208 198 q 245 109 224 140 q 315 60 267 79 q 430 41 362 41 q 605 98 544 41 q 666 229 666 156 q 654 281 666 259 q 627 314 642 302 q 581 334 612 326 q 532 345 551 342 q 476 350 514 347 q 324 396 373 359 q 270 463 290 422 q 250 548 250 505 q 330 711 250 636 q 545 787 411 787 q 726 715 669 787 q 741 703 738 703 q 795 779 760 703 l 798 783 q 800 788 800 787 m 678 863 l 570 863 l 483 990 l 530 1021 l 637 935 l 773 1021 l 818 987 l 678 863 z "},"š":{"ha":814,"x_min":138,"x_max":781,"o":"m 734 608 l 781 601 q 742 397 750 505 l 685 397 q 682 442 685 426 q 663 484 678 458 q 608 524 648 510 q 505 537 568 537 q 360 499 416 537 q 304 412 304 461 q 311 379 304 393 q 334 356 317 365 q 366 341 351 347 q 413 332 381 335 q 466 327 445 328 q 529 323 487 326 q 730 190 730 313 q 648 45 730 109 q 430 -19 567 -19 q 312 0 358 -19 q 247 38 266 19 q 233 49 240 49 q 190 -20 221 49 l 138 -12 q 144 4 138 -7 q 151 30 145 8 q 163 70 157 52 q 168 92 168 88 q 175 180 175 153 q 177 191 176 183 q 178 201 178 198 l 237 209 q 248 117 236 141 q 313 67 264 87 q 427 47 361 47 q 590 85 522 47 q 658 186 658 122 q 621 240 658 228 q 487 258 585 252 q 483 258 484 258 q 439 260 454 259 q 393 266 423 262 q 344 275 362 270 q 301 292 326 281 q 263 318 277 304 q 240 355 250 332 q 231 404 231 377 q 307 541 231 480 q 509 601 382 601 q 675 547 616 601 q 689 538 684 538 q 727 594 701 538 q 731 602 728 597 l 734 608 m 606 682 l 498 682 l 411 810 l 458 841 l 566 754 l 701 841 l 746 807 l 606 682 z "},"Ţ":{"ha":814,"x_min":160,"x_max":892,"o":"m 445 0 l 435 -30 q 514 -106 514 -42 q 484 -168 514 -142 q 392 -193 453 -193 q 241 -172 343 -193 l 263 -113 q 395 -132 335 -132 q 450 -106 450 -132 q 447 -94 450 -98 q 422 -87 444 -91 q 358 -81 401 -83 l 385 0 l 208 0 l 222 64 l 385 64 l 521 700 l 290 700 l 227 479 l 160 479 l 241 764 l 892 764 l 852 479 l 787 479 l 818 700 l 586 700 l 452 64 l 617 64 l 604 0 l 445 0 z "},"ţ":{"ha":814,"x_min":248,"x_max":739,"o":"m 473 -19 l 469 -30 q 548 -106 548 -42 q 517 -168 548 -142 q 426 -193 486 -193 q 275 -172 377 -193 l 297 -113 q 429 -132 369 -132 q 484 -106 484 -132 q 481 -94 484 -98 q 456 -87 477 -91 q 392 -81 435 -83 l 412 -18 q 334 6 366 -12 q 288 47 301 24 q 271 86 275 71 q 266 114 266 102 q 286 244 266 142 l 340 500 l 248 500 l 262 564 l 353 564 l 396 764 l 461 764 l 419 564 l 722 564 l 708 500 l 407 500 l 353 244 q 336 129 336 171 q 338 116 336 123 q 345 96 339 109 q 362 73 351 83 q 395 55 373 62 q 449 47 418 47 q 739 125 548 47 l 739 57 q 473 -19 578 -9 z "},"Ť":{"ha":814,"x_min":160,"x_max":892,"o":"m 241 764 l 892 764 l 852 479 l 787 479 l 818 700 l 586 700 l 452 64 l 617 64 l 604 0 l 208 0 l 222 64 l 385 64 l 521 700 l 290 700 l 227 479 l 160 479 l 241 764 m 661 863 l 552 863 l 465 990 l 513 1021 l 620 935 l 755 1021 l 800 987 l 661 863 z "},"ť":{"ha":814,"x_min":248,"x_max":739,"o":"m 396 764 l 461 764 l 419 564 l 722 564 l 708 500 l 407 500 l 353 244 q 336 129 336 171 q 338 116 336 123 q 345 96 339 109 q 362 73 351 83 q 395 55 373 62 q 449 47 418 47 q 739 125 548 47 l 739 57 q 444 -19 556 -19 q 311 23 355 -19 q 266 113 266 65 q 286 244 266 142 l 340 500 l 248 500 l 262 564 l 353 564 l 396 764 m 518 842 l 410 842 l 323 970 l 370 1001 l 477 914 l 613 1001 l 658 967 l 518 842 z "},"Ŧ":{"ha":814,"x_min":160,"x_max":892,"o":"m 241 764 l 892 764 l 852 479 l 787 479 l 818 700 l 586 700 l 540 480 l 730 480 l 716 416 l 526 416 l 452 64 l 617 64 l 604 0 l 208 0 l 222 64 l 385 64 l 460 416 l 271 416 l 285 480 l 473 480 l 521 700 l 290 700 l 227 479 l 160 479 l 241 764 z "},"ŧ":{"ha":814,"x_min":216,"x_max":739,"o":"m 388 415 l 689 415 l 675 351 l 374 351 l 353 244 q 336 129 336 171 q 337 118 336 123 q 344 98 338 113 q 361 74 350 84 q 395 56 372 64 q 449 47 418 47 q 739 123 541 47 l 739 57 q 444 -19 551 -19 q 311 23 355 -19 q 266 113 266 65 q 286 244 266 142 l 309 351 l 216 351 l 229 415 l 323 415 l 340 500 l 248 500 l 262 564 l 353 564 l 396 764 l 461 764 l 420 564 l 722 564 l 708 500 l 407 500 l 388 415 z "},"Ũ":{"ha":814,"x_min":186,"x_max":947,"o":"m 201 764 l 506 764 l 492 700 l 355 700 l 273 317 q 255 176 255 229 q 260 142 255 160 q 279 100 264 125 q 330 61 294 76 q 419 46 366 46 q 528 63 481 46 q 600 101 574 80 q 645 163 625 122 q 671 231 665 205 q 689 308 678 258 l 773 700 l 633 700 l 647 764 l 947 764 l 933 700 l 837 700 l 751 300 q 703 138 728 190 q 639 54 678 87 q 408 -23 544 -23 q 252 23 319 -23 q 186 167 186 69 q 206 317 186 222 l 288 700 l 187 700 l 201 764 m 814 1019 l 865 1001 q 708 878 803 878 q 618 921 666 878 q 556 960 576 960 q 468 888 509 960 q 463 882 467 886 l 412 902 q 562 1021 475 1021 q 654 975 605 1021 q 719 939 693 939 q 814 1019 772 939 z "},"ũ":{"ha":814,"x_min":153,"x_max":793,"o":"m 167 583 l 345 583 l 269 224 q 259 148 259 157 q 284 81 259 115 q 363 47 309 47 q 610 168 483 47 l 685 519 l 570 519 l 583 583 l 765 583 l 656 64 l 765 64 l 751 0 l 575 0 l 590 71 q 527 28 551 43 q 456 -3 503 14 q 359 -19 408 -19 q 273 1 309 -19 q 220 50 236 20 q 198 104 205 80 q 191 151 191 129 q 201 224 191 176 l 263 519 l 153 519 l 167 583 m 742 838 l 793 821 q 636 697 731 697 q 547 741 594 697 q 484 780 505 780 q 396 708 437 780 q 391 701 395 705 l 340 722 q 490 841 403 841 q 582 795 533 841 q 647 758 621 758 q 742 838 700 758 z "},"Ū":{"ha":814,"x_min":186,"x_max":947,"o":"m 201 764 l 506 764 l 492 700 l 355 700 l 273 317 q 255 176 255 229 q 260 142 255 160 q 279 100 264 125 q 330 61 294 76 q 419 46 366 46 q 528 63 481 46 q 600 101 574 80 q 645 163 625 122 q 671 231 665 205 q 689 308 678 258 l 773 700 l 633 700 l 647 764 l 947 764 l 933 700 l 837 700 l 751 300 q 703 138 728 190 q 639 54 678 87 q 408 -23 544 -23 q 252 23 319 -23 q 186 167 186 69 q 206 317 186 222 l 288 700 l 187 700 l 201 764 m 414 983 l 875 983 l 860 916 l 399 916 l 414 983 z "},"ū":{"ha":814,"x_min":153,"x_max":803,"o":"m 167 583 l 345 583 l 269 224 q 259 148 259 157 q 284 81 259 115 q 363 47 309 47 q 610 168 483 47 l 685 519 l 570 519 l 583 583 l 765 583 l 656 64 l 765 64 l 751 0 l 575 0 l 590 71 q 527 28 551 43 q 456 -3 503 14 q 359 -19 408 -19 q 273 1 309 -19 q 220 50 236 20 q 198 104 205 80 q 191 151 191 129 q 201 224 191 176 l 263 519 l 153 519 l 167 583 m 342 803 l 803 803 l 788 735 l 327 735 l 342 803 z "},"Ŭ":{"ha":814,"x_min":186,"x_max":947,"o":"m 201 764 l 506 764 l 492 700 l 355 700 l 273 317 q 255 176 255 229 q 260 142 255 160 q 279 100 264 125 q 330 61 294 76 q 419 46 366 46 q 528 63 481 46 q 600 101 574 80 q 645 163 625 122 q 671 231 665 205 q 689 308 678 258 l 773 700 l 633 700 l 647 764 l 947 764 l 933 700 l 837 700 l 751 300 q 703 138 728 190 q 639 54 678 87 q 408 -23 544 -23 q 252 23 319 -23 q 186 167 186 69 q 206 317 186 222 l 288 700 l 187 700 l 201 764 m 439 1027 l 502 1027 q 505 1021 503 1021 q 639 930 537 930 q 811 1023 743 930 q 815 1027 811 1023 l 879 1027 q 734 891 825 930 q 631 872 686 872 q 439 1027 468 872 z "},"ŭ":{"ha":814,"x_min":153,"x_max":807,"o":"m 167 583 l 345 583 l 269 224 q 259 148 259 157 q 284 81 259 115 q 363 47 309 47 q 610 168 483 47 l 685 519 l 570 519 l 583 583 l 765 583 l 656 64 l 765 64 l 751 0 l 575 0 l 590 71 q 527 28 551 43 q 456 -3 503 14 q 359 -19 408 -19 q 273 1 309 -19 q 220 50 236 20 q 198 104 205 80 q 191 151 191 129 q 201 224 191 176 l 263 519 l 153 519 l 167 583 m 368 846 l 430 846 q 433 841 431 841 q 567 750 465 750 q 739 842 671 750 q 743 846 739 842 l 807 846 q 662 711 753 750 q 559 692 614 692 q 368 846 396 692 z "},"Ů":{"ha":814,"x_min":186,"x_max":947,"o":"m 201 764 l 506 764 l 492 700 l 355 700 l 273 317 q 255 176 255 229 q 260 142 255 160 q 279 100 264 125 q 330 61 294 76 q 419 46 366 46 q 528 63 481 46 q 600 101 574 80 q 645 163 625 122 q 671 231 665 205 q 689 308 678 258 l 773 700 l 633 700 l 647 764 l 947 764 l 933 700 l 837 700 l 751 300 q 703 138 728 190 q 639 54 678 87 q 408 -23 544 -23 q 252 23 319 -23 q 186 167 186 69 q 206 317 186 222 l 288 700 l 187 700 l 201 764 m 568 1021 q 583 1036 568 1021 q 640 1051 598 1051 q 713 1021 682 1051 q 743 948 743 991 q 713 875 743 905 q 640 845 682 845 q 568 875 598 845 q 537 948 537 905 q 568 1021 537 991 m 677 985 q 670 992 677 985 q 642 1000 663 1000 q 604 985 620 1000 q 589 948 589 971 q 604 911 589 926 q 642 897 620 897 q 677 911 663 897 q 692 948 692 926 q 677 985 692 970 z "},"ů":{"ha":814,"x_min":153,"x_max":765,"o":"m 167 583 l 345 583 l 269 224 q 259 148 259 157 q 284 81 259 115 q 363 47 309 47 q 610 168 483 47 l 685 519 l 570 519 l 583 583 l 765 583 l 656 64 l 765 64 l 751 0 l 575 0 l 590 71 q 527 28 551 43 q 456 -3 503 14 q 359 -19 408 -19 q 273 1 309 -19 q 220 50 236 20 q 198 104 205 80 q 191 151 191 129 q 201 224 191 176 l 263 519 l 153 519 l 167 583 m 455 841 q 470 856 455 841 q 528 871 486 871 q 600 841 570 871 q 631 768 631 811 q 600 694 631 724 q 528 665 570 665 q 455 694 486 665 q 425 768 425 724 q 455 841 425 811 m 565 804 q 558 812 565 804 q 529 819 551 819 q 492 805 507 819 q 476 768 476 791 q 492 731 476 746 q 529 716 507 716 q 565 731 551 716 q 579 768 579 746 q 565 804 579 789 z "},"Ű":{"ha":814,"x_min":186,"x_max":947,"o":"m 201 764 l 506 764 l 492 700 l 355 700 l 273 317 q 255 176 255 229 q 260 142 255 160 q 279 100 264 125 q 330 61 294 76 q 419 46 366 46 q 528 63 481 46 q 600 101 574 80 q 645 163 625 122 q 671 231 665 205 q 689 308 678 258 l 773 700 l 633 700 l 647 764 l 947 764 l 933 700 l 837 700 l 751 300 q 703 138 728 190 q 639 54 678 87 q 408 -23 544 -23 q 252 23 319 -23 q 186 167 186 69 q 206 317 186 222 l 288 700 l 187 700 l 201 764 m 716 1017 l 518 864 l 457 864 l 612 1017 l 716 1017 m 887 1017 l 689 864 l 628 864 l 783 1017 l 887 1017 z "},"ű":{"ha":814,"x_min":153,"x_max":815,"o":"m 167 583 l 345 583 l 269 224 q 259 148 259 157 q 284 81 259 115 q 363 47 309 47 q 610 168 483 47 l 685 519 l 570 519 l 583 583 l 765 583 l 656 64 l 765 64 l 751 0 l 575 0 l 590 71 q 527 28 551 43 q 456 -3 503 14 q 359 -19 408 -19 q 273 1 309 -19 q 220 50 236 20 q 198 104 205 80 q 191 151 191 129 q 201 224 191 176 l 263 519 l 153 519 l 167 583 m 644 837 l 446 684 l 385 684 l 540 837 l 644 837 m 815 837 l 617 684 l 556 684 l 711 837 l 815 837 z "},"Ų":{"ha":814,"x_min":186,"x_max":947,"o":"m 541 -53 l 511 -127 q 426 -159 463 -159 q 380 -142 399 -159 q 361 -95 361 -125 q 396 -23 361 -56 q 238 35 290 -16 q 186 167 186 87 q 206 317 186 222 l 288 700 l 187 700 l 201 764 l 506 764 l 492 700 l 355 700 l 273 317 q 255 176 255 229 q 260 142 255 160 q 279 100 264 125 q 330 61 294 76 q 419 46 366 46 q 528 63 481 46 q 600 101 574 80 q 645 163 625 122 q 671 231 665 205 q 689 308 678 258 l 773 700 l 633 700 l 647 764 l 947 764 l 933 700 l 837 700 l 751 300 q 734 227 743 256 q 707 151 726 197 q 659 71 689 104 q 590 22 629 38 q 473 -31 500 -15 q 446 -71 446 -47 q 465 -88 446 -88 q 541 -53 481 -88 z "},"ų":{"ha":814,"x_min":153,"x_max":765,"o":"m 680 -53 l 651 -127 q 566 -159 602 -159 q 519 -142 538 -159 q 500 -95 500 -125 q 527 -31 500 -57 q 576 7 553 -4 l 590 71 q 527 28 551 43 q 456 -3 503 14 q 359 -19 408 -19 q 273 1 309 -19 q 220 50 236 20 q 198 104 205 80 q 191 151 191 129 q 201 224 191 176 l 263 519 l 153 519 l 167 583 l 345 583 l 269 224 q 259 148 259 157 q 284 81 259 115 q 363 47 309 47 q 610 168 483 47 l 685 519 l 570 519 l 583 583 l 765 583 l 656 64 l 765 64 l 751 0 l 681 0 q 618 -26 652 -7 q 585 -71 585 -46 q 604 -88 585 -88 q 680 -53 621 -88 z "},"Ÿ":{"ha":814,"x_min":190,"x_max":932,"o":"m 203 764 l 471 764 l 456 700 l 353 700 l 486 363 l 758 700 l 654 700 l 667 764 l 932 764 l 918 700 l 834 700 l 503 296 l 456 64 l 614 64 l 601 0 l 212 0 l 225 64 l 387 64 l 437 296 l 277 700 l 190 700 l 203 764 m 487 876 l 517 1023 l 616 1023 l 585 876 l 487 876 m 663 876 l 694 1023 l 792 1023 l 761 876 l 663 876 z "},"Ź":{"ha":814,"x_min":113,"x_max":830,"o":"m 283 764 l 830 764 l 818 707 l 209 64 l 648 64 l 697 283 l 758 283 l 697 0 l 113 0 l 126 64 l 727 700 l 334 700 l 292 502 l 228 502 l 283 764 m 779 1019 l 553 863 l 480 863 l 629 1019 l 779 1019 z "},"ź":{"ha":814,"x_min":138,"x_max":796,"o":"m 277 583 l 796 583 l 783 524 l 247 64 l 620 64 l 646 189 l 712 189 l 671 0 l 138 0 l 152 64 l 684 519 l 328 519 l 302 399 l 237 399 l 277 583 m 724 838 l 499 682 l 426 682 l 575 838 l 724 838 z "},"Ż":{"ha":814,"x_min":113,"x_max":830,"o":"m 283 764 l 830 764 l 818 707 l 209 64 l 648 64 l 697 283 l 758 283 l 697 0 l 113 0 l 126 64 l 727 700 l 334 700 l 292 502 l 228 502 l 283 764 m 557 876 l 589 1023 l 686 1023 l 656 876 l 557 876 z "},"ż":{"ha":814,"x_min":138,"x_max":796,"o":"m 277 583 l 796 583 l 783 524 l 247 64 l 620 64 l 646 189 l 712 189 l 671 0 l 138 0 l 152 64 l 684 519 l 328 519 l 302 399 l 237 399 l 277 583 m 503 696 l 534 842 l 632 842 l 602 696 l 503 696 z "},"Ž":{"ha":814,"x_min":113,"x_max":830,"o":"m 283 764 l 830 764 l 818 707 l 209 64 l 648 64 l 697 283 l 758 283 l 697 0 l 113 0 l 126 64 l 727 700 l 334 700 l 292 502 l 228 502 l 283 764 m 661 863 l 552 863 l 465 990 l 513 1021 l 620 935 l 755 1021 l 800 987 l 661 863 z "},"ž":{"ha":814,"x_min":138,"x_max":796,"o":"m 277 583 l 796 583 l 783 524 l 247 64 l 620 64 l 646 189 l 712 189 l 671 0 l 138 0 l 152 64 l 684 519 l 328 519 l 302 399 l 237 399 l 277 583 m 606 682 l 498 682 l 411 810 l 458 841 l 566 754 l 701 841 l 746 807 l 606 682 z "},"ƒ":{"ha":814,"x_min":-19,"x_max":860,"o":"m 335 618 l 477 618 l 510 700 q 534 755 525 736 q 565 807 543 774 q 612 856 587 840 q 680 886 637 872 q 777 899 723 899 q 860 891 799 899 l 818 825 q 742 836 764 836 q 673 824 703 836 q 625 786 644 812 q 596 743 605 760 q 574 690 587 726 l 545 618 l 692 618 l 665 555 l 521 555 l 331 64 q 310 14 319 33 q 279 -37 301 -5 q 233 -87 258 -69 q 166 -120 209 -106 q 72 -134 123 -134 q -19 -127 38 -134 l 23 -60 q 91 -71 61 -71 q 163 -59 133 -71 q 214 -22 194 -47 q 243 22 233 4 q 266 76 252 41 l 453 555 l 309 555 l 335 618 z "},"ǵ":{"ha":814,"x_min":121,"x_max":872,"o":"m 693 583 l 872 583 l 859 519 l 747 519 l 646 35 q 547 -152 620 -91 q 320 -213 475 -213 q 205 -210 270 -213 l 221 -138 q 347 -146 300 -146 q 507 -102 453 -146 q 579 35 562 -57 l 594 114 l 591 117 q 357 15 484 15 q 185 81 250 15 q 121 245 121 148 q 229 482 121 376 q 480 589 338 589 q 587 564 533 589 q 671 483 642 538 l 693 583 m 363 81 q 558 165 477 81 q 639 355 639 248 q 591 477 639 431 q 475 522 543 522 q 278 439 362 522 q 194 252 194 357 q 249 123 194 165 q 363 81 304 81 m 711 838 l 486 682 l 412 682 l 562 838 l 711 838 z "},"ˆ":{"ha":814,"x_min":395,"x_max":739,"o":"m 534 841 l 637 841 l 739 713 l 692 682 l 571 769 l 433 682 l 395 716 l 534 841 z "},"ˇ":{"ha":814,"x_min":411,"x_max":746,"o":"m 606 682 l 498 682 l 411 810 l 458 841 l 566 754 l 701 841 l 746 807 l 606 682 z "},"˘":{"ha":814,"x_min":368,"x_max":807,"o":"m 368 846 l 430 846 q 433 841 431 841 q 567 750 465 750 q 739 842 671 750 q 743 846 739 842 l 807 846 q 662 711 753 750 q 559 692 614 692 q 368 846 396 692 z "},"˙":{"ha":814,"x_min":503,"x_max":632,"o":"m 503 696 l 534 842 l 632 842 l 602 696 l 503 696 z "},"˚":{"ha":814,"x_min":465,"x_max":671,"o":"m 496 841 q 511 856 496 841 q 568 871 526 871 q 641 841 610 871 q 671 768 671 811 q 641 694 671 724 q 568 665 610 665 q 496 694 526 665 q 465 768 465 724 q 496 841 465 811 m 606 804 q 598 812 606 804 q 570 819 591 819 q 532 805 548 819 q 517 768 517 791 q 532 731 517 746 q 570 716 548 716 q 606 731 591 716 q 620 768 620 746 q 606 804 620 789 z "},"˛":{"ha":814,"x_min":301,"x_max":537,"o":"m 481 -53 l 452 -127 q 366 -159 407 -159 q 320 -142 339 -159 q 301 -95 301 -125 q 332 -27 301 -58 q 408 19 362 4 l 537 19 l 537 12 q 461 -8 469 -5 q 446 -14 460 -8 q 425 -24 431 -20 q 407 -35 418 -27 q 391 -51 396 -42 q 387 -71 387 -60 q 406 -88 387 -88 q 452 -71 420 -88 q 463 -64 454 -69 q 481 -53 471 -58 z "},"˜":{"ha":814,"x_min":340,"x_max":793,"o":"m 742 838 l 793 821 q 636 697 731 697 q 547 741 594 697 q 484 780 505 780 q 396 708 437 780 q 391 701 395 705 l 340 722 q 490 841 403 841 q 582 795 533 841 q 647 758 621 758 q 742 838 700 758 z "},"˝":{"ha":814,"x_min":385,"x_max":815,"o":"m 644 837 l 446 684 l 385 684 l 540 837 l 644 837 m 815 837 l 617 684 l 556 684 l 711 837 l 815 837 z "},"Γ":{"ha":814,"x_min":85,"x_max":883,"o":"m 231 764 l 883 764 l 836 515 l 772 515 l 799 700 l 408 700 l 274 64 l 452 64 l 438 0 l 85 0 l 99 64 l 205 64 l 340 700 l 217 700 l 231 764 z "},"Θ":{"ha":814,"x_min":125,"x_max":844,"o":"m 327 511 l 391 511 l 372 420 l 613 420 l 632 511 l 696 511 l 644 266 l 581 266 l 600 357 l 358 357 l 339 266 l 274 266 l 327 511 m 125 281 q 178 517 125 401 q 335 709 232 632 q 563 787 438 787 q 773 695 703 787 q 844 477 844 604 q 789 243 844 358 q 631 53 734 129 q 406 -23 529 -23 q 199 66 273 -23 q 125 281 125 155 m 198 286 q 252 111 198 182 q 408 41 307 41 q 593 107 509 41 q 724 273 678 174 q 770 476 770 373 q 717 651 770 579 q 557 723 663 723 q 410 682 479 723 q 295 575 340 640 q 224 434 250 510 q 198 286 198 358 z "},"Σ":{"ha":814,"x_min":140,"x_max":834,"o":"m 302 764 l 834 764 l 784 515 l 720 515 l 746 700 l 361 700 l 543 401 l 232 64 l 620 64 l 670 250 l 734 250 l 680 0 l 140 0 l 155 73 l 461 407 l 288 700 l 302 764 z "},"Φ":{"ha":814,"x_min":133,"x_max":841,"o":"m 707 764 l 693 700 l 587 700 l 575 643 q 750 601 692 637 q 841 431 841 543 q 838 392 841 415 q 814 317 836 369 q 758 227 793 266 q 645 155 722 187 q 464 121 568 122 l 452 64 l 575 64 l 563 0 l 264 0 l 278 64 l 384 64 l 396 121 q 225 161 285 125 q 155 237 178 190 q 133 331 133 283 q 136 375 133 350 q 161 450 140 400 q 218 539 182 500 q 330 610 255 578 q 507 643 406 642 l 519 700 l 396 700 l 410 764 l 707 764 m 563 583 l 477 183 q 614 210 556 186 q 701 264 673 235 q 746 334 730 294 q 765 394 762 373 q 768 434 768 415 q 563 583 768 578 m 410 183 l 494 583 q 309 533 374 579 q 231 439 255 495 q 206 332 206 382 q 410 183 206 187 z "},"Ω":{"ha":814,"x_min":42,"x_max":872,"o":"m 42 0 l 75 140 l 138 140 l 119 64 l 290 64 l 302 115 q 254 136 274 125 q 198 174 233 146 q 142 251 163 201 q 122 369 122 301 q 245 659 122 532 q 553 787 369 787 q 783 706 694 787 q 872 503 872 625 q 871 479 872 492 q 865 433 871 467 q 848 368 859 399 q 813 296 837 336 q 758 223 789 255 q 673 161 726 191 q 557 115 621 132 l 547 64 l 719 64 l 738 140 l 802 140 l 769 0 l 469 0 l 503 160 q 562 174 541 168 q 620 199 583 180 q 686 244 656 217 q 768 357 736 289 q 800 498 800 426 q 734 656 800 591 q 551 722 667 722 q 298 616 400 722 q 195 363 195 510 q 214 267 195 307 q 268 205 233 227 q 323 175 302 183 q 376 160 345 167 l 342 0 l 42 0 z "},"α":{"ha":814,"x_min":46,"x_max":811,"o":"m 621 64 l 727 64 l 713 0 l 551 0 q 547 16 547 8 q 548 28 547 16 q 549 54 548 41 q 551 71 551 66 l 551 165 l 548 165 q 515 125 537 149 q 454 64 494 100 q 362 4 415 28 q 256 -20 309 -20 q 102 53 157 -20 q 46 225 46 126 q 146 491 46 370 q 377 612 245 612 q 529 546 465 612 q 612 351 593 480 q 742 608 689 473 l 811 608 q 739 446 776 515 q 621 248 701 377 l 621 64 m 551 264 q 502 468 548 389 q 373 547 456 547 q 196 446 273 547 q 119 225 119 345 q 159 94 119 144 q 264 45 199 45 q 551 264 385 45 z "},"δ":{"ha":814,"x_min":160,"x_max":814,"o":"m 814 834 l 800 770 l 412 770 l 629 575 q 696 511 673 536 q 744 434 719 486 q 769 327 769 382 q 661 90 769 201 q 407 -20 553 -20 q 224 54 289 -20 q 160 224 160 129 q 267 462 160 355 q 502 568 374 568 q 524 568 510 568 q 540 567 537 567 l 399 690 q 339 757 362 722 l 357 834 l 814 834 m 515 502 q 315 416 397 502 q 233 218 233 330 q 282 95 233 144 q 408 46 331 46 q 611 134 526 46 q 696 330 696 222 q 676 418 696 381 q 626 471 656 454 q 568 495 595 488 q 515 502 541 502 z "},"ε":{"ha":814,"x_min":168,"x_max":764,"o":"m 704 620 l 764 620 q 709 406 723 515 l 648 395 q 643 484 652 461 q 583 532 628 518 q 495 545 538 545 q 375 512 416 545 q 334 437 334 479 q 522 339 334 339 l 509 273 q 309 231 376 273 q 241 134 241 190 q 247 111 241 123 q 267 82 252 98 q 313 56 281 66 q 391 46 345 46 q 479 56 437 46 q 547 75 522 65 q 613 104 571 84 l 617 37 q 612 34 617 34 q 377 -20 487 -20 q 227 20 285 -20 q 168 133 168 61 q 357 308 168 260 l 357 311 q 294 345 328 311 q 260 430 260 378 q 328 558 260 505 q 496 612 395 612 q 600 595 553 612 q 669 556 647 578 q 675 551 674 551 q 704 620 688 551 z "},"μ":{"ha":814,"x_min":115,"x_max":772,"o":"m 170 583 l 349 583 l 281 264 q 266 165 266 190 q 305 84 266 121 q 400 47 345 47 q 490 66 444 47 q 564 111 537 84 q 610 176 595 142 q 637 264 625 209 l 692 526 l 581 526 l 594 583 l 772 583 l 661 56 l 772 56 l 760 0 l 581 0 l 594 66 l 591 69 q 395 -19 507 -19 q 240 69 296 -19 l 183 -202 l 115 -202 l 270 526 l 157 526 l 170 583 z "},"π":{"ha":814,"x_min":50,"x_max":848,"o":"m 848 583 l 834 519 l 731 519 l 633 64 l 754 64 l 741 0 l 464 0 l 477 64 l 566 64 l 662 519 l 332 519 l 235 64 l 340 64 l 327 0 l 50 0 l 64 64 l 167 64 l 263 519 l 142 519 l 156 583 l 848 583 z "},"σ":{"ha":814,"x_min":87,"x_max":868,"o":"m 868 610 l 854 544 l 602 563 l 600 560 q 724 345 724 491 q 610 90 724 201 q 347 -20 495 -20 q 156 55 225 -20 q 87 239 87 130 q 142 421 87 339 q 266 547 197 503 q 574 610 368 610 l 868 610 m 464 544 q 252 450 345 544 q 160 235 160 355 q 210 104 160 161 q 354 46 259 46 q 560 138 469 46 q 651 349 651 229 q 596 492 651 439 q 464 544 541 544 z "},"τ":{"ha":814,"x_min":175,"x_max":684,"o":"m 463 519 l 373 102 q 370 80 370 91 q 406 54 370 54 q 536 92 456 54 l 541 27 q 392 -12 458 -12 q 302 65 302 -12 q 307 102 302 90 l 393 519 l 312 519 q 175 506 235 519 l 189 572 q 307 583 232 583 l 684 583 l 670 519 l 463 519 z "},"φ":{"ha":814,"x_min":123,"x_max":812,"o":"m 416 590 l 401 522 q 302 463 345 500 q 238 382 259 425 q 207 305 217 340 q 197 241 197 270 q 345 53 197 92 l 406 342 q 420 405 414 381 q 444 471 426 429 q 481 538 461 514 q 538 583 502 563 q 621 604 575 604 q 758 536 704 604 q 812 366 812 468 q 694 95 812 214 q 397 -20 576 -24 l 357 -212 l 288 -212 l 331 -12 q 176 69 229 5 q 123 229 123 133 q 157 375 123 302 q 256 506 191 448 q 329 557 297 541 q 416 590 361 572 m 473 339 l 411 45 q 650 146 562 45 q 739 362 739 247 q 705 484 739 431 q 612 537 671 537 q 563 525 585 537 q 528 495 541 513 q 503 448 514 477 q 486 395 492 418 q 473 339 480 373 z "},"،":{"ha":385,"x_min":26,"x_max":255,"o":"m 251 126 q 246 75 260 96 q 199 53 232 53 q 106 90 149 53 q 38 199 58 130 q 34 332 18 266 q 92 434 50 397 l 111 418 q 72 332 81 376 q 77 240 62 288 q 94 203 83 222 q 114 178 104 183 q 157 201 132 201 q 214 178 187 201 q 251 126 241 156 z "},"؛":{"ha":385,"x_min":-24,"x_max":254,"o":"m 201 305 q 196 254 210 275 q 151 232 182 232 q 56 270 100 232 q -12 380 8 309 q -17 511 -33 445 q 42 613 -1 578 l 62 597 q 22 512 31 556 q 27 419 12 468 q 43 382 33 401 q 64 357 54 363 q 107 381 80 381 q 164 358 136 381 q 201 305 193 335 m 250 83 q 244 35 258 54 q 202 15 231 15 q 148 35 174 15 q 114 83 122 54 q 119 131 104 111 q 161 151 133 151 q 215 131 190 151 q 250 83 240 111 z "},"؟":{"ha":833,"x_min":-11,"x_max":541,"o":"m 480 604 l 411 604 l 384 693 q 217 727 286 727 q 84 677 114 727 q 71 571 54 628 q 106 505 83 534 q 153 459 129 476 q 218 427 178 442 q 281 405 258 411 q 346 389 305 399 q 374 382 358 388 l 415 247 l 347 247 l 323 331 q 235 356 273 343 q 145 395 197 369 q 56 466 94 422 q 0 567 18 510 q 22 728 -27 661 q 198 795 72 795 q 275 789 236 795 q 342 774 315 783 q 438 746 370 766 l 480 604 m 415 148 q 490 123 454 148 q 536 62 525 98 q 526 1 547 26 q 467 -23 506 -23 q 391 1 427 -23 q 345 62 355 26 q 354 123 334 98 q 415 148 374 148 z "},"ء":{"ha":864,"x_min":251,"x_max":556,"o":"m 293 119 q 360 90 321 100 q 450 79 399 79 q 538 95 476 79 q 555 100 545 98 l 537 20 q 494 9 526 18 q 400 -22 442 -4 q 361 -39 373 -33 l 288 -81 q 286 -72 288 -81 q 307 -23 286 -54 q 328 5 317 -7 l 345 24 l 315 38 q 288 52 294 47 q 258 92 264 69 q 274 220 240 149 q 368 292 309 292 q 434 273 399 292 q 452 260 438 270 l 431 194 q 419 197 426 195 q 414 198 415 197 q 345 208 370 208 q 309 187 330 208 l 309 186 l 309 186 l 271 133 l 293 119 z "},"آ":{"ha":864,"x_min":-38,"x_max":496,"o":"m 496 11 l 464 -16 q 418 104 448 28 q 297 382 374 210 q 179 633 225 541 l 205 743 q 312 532 252 674 q 434 202 369 399 q 496 11 472 92 m 301 1004 q 302 913 300 1000 l 304 825 q 289 868 301 837 q 267 910 275 898 q 164 854 228 869 q 69 845 123 845 l 50 845 l 43 845 q 38 812 41 840 q 35 785 37 803 q 30 787 34 787 q 23 788 24 788 q 18 785 18 788 l -37 967 q 27 943 -9 951 q 98 935 62 935 q 199 955 146 935 q 301 1004 250 979 z "},"أ":{"ha":864,"x_min":54,"x_max":522,"o":"m 264 817 q 232 798 263 817 q 167 753 189 769 q 115 704 127 724 l 109 727 q 110 769 104 739 q 114 798 110 780 q 87 817 98 804 q 60 860 68 834 q 69 970 46 907 q 141 1038 95 1038 q 175 1024 161 1038 q 195 990 189 1010 q 198 955 199 972 q 191 933 197 937 q 178 943 184 940 q 149 952 164 952 q 106 929 130 952 q 87 887 81 906 q 119 868 91 876 q 171 860 148 860 q 227 882 191 860 q 266 910 247 895 l 264 817 m 522 11 l 505 -18 q 461 95 487 33 q 346 358 410 221 q 216 600 274 507 l 241 709 q 346 507 288 642 q 463 191 399 381 q 522 11 499 87 z "},"ؤ":{"ha":864,"x_min":107,"x_max":616,"o":"m 556 68 l 403 68 q 389 69 396 68 q 376 73 382 71 q 354 94 363 81 q 334 132 343 113 q 317 172 324 152 q 301 247 307 210 q 300 321 298 285 q 317 392 302 359 q 334 410 324 403 q 359 416 346 415 q 387 410 373 415 q 412 395 400 403 q 475 328 446 365 q 526 248 502 289 q 570 142 552 195 l 590 75 q 616 -65 610 4 q 601 -186 614 -129 q 545 -270 581 -233 q 446 -297 502 -296 q 401 -286 423 -293 q 343 -252 372 -273 q 435 -205 392 -232 q 513 -140 477 -175 q 570 -46 549 -98 q 572 -3 574 -24 q 563 45 570 22 l 556 68 m 334 244 q 334 216 332 231 q 338 202 335 209 q 347 187 342 194 q 357 180 351 183 q 368 179 362 179 l 522 179 q 509 208 517 194 q 484 240 498 225 q 444 273 465 258 q 403 297 425 286 q 374 304 389 302 q 355 297 363 302 q 343 279 347 289 q 334 244 336 263 m 317 530 l 286 511 q 221 467 243 483 q 168 418 182 438 l 161 441 q 163 483 159 453 q 167 513 164 494 q 140 530 151 518 q 114 574 122 548 q 122 684 99 621 q 194 751 148 751 q 228 738 214 751 q 248 704 241 726 q 252 669 254 686 q 245 647 251 651 q 231 656 237 654 q 203 666 217 666 q 159 643 183 666 q 141 601 136 620 q 174 583 144 591 q 227 574 202 574 q 279 597 245 574 q 320 624 300 609 l 317 530 z "},"إ":{"ha":864,"x_min":151,"x_max":617,"o":"m 469 11 l 437 -16 q 391 104 420 28 q 270 382 347 210 q 152 633 198 541 l 178 743 q 285 532 225 674 q 407 202 342 399 q 469 11 445 92 m 614 -334 q 582 -354 613 -334 q 515 -399 538 -382 q 464 -446 479 -427 l 457 -423 q 460 -382 456 -411 q 464 -353 460 -372 q 435 -334 449 -346 q 410 -290 418 -316 q 420 -182 396 -244 q 491 -114 446 -114 q 525 -126 511 -114 q 544 -160 538 -140 q 548 -195 549 -178 q 540 -217 548 -214 q 529 -209 533 -210 q 499 -199 514 -199 q 456 -222 479 -199 q 438 -264 431 -244 q 470 -282 441 -274 q 521 -290 499 -290 q 576 -269 543 -290 q 616 -240 597 -255 l 614 -334 z "},"ئ":{"ha":864,"x_min":-39,"x_max":675,"o":"m 422 239 q 543 203 448 227 q 648 144 637 180 l 667 81 q 642 -48 690 3 q 512 -121 593 -99 q 361 -142 431 -142 q 182 -98 241 -142 q 95 49 123 -53 q 77 198 77 113 l 99 194 q 190 3 127 41 q 337 -34 252 -34 q 532 -9 422 -34 q 635 46 597 4 l 643 65 l 623 83 q 521 110 617 87 q 403 152 425 133 q 393 181 403 152 q 382 264 384 210 q 435 505 378 408 q 514 570 475 570 q 571 557 553 570 q 613 431 605 536 q 613 410 613 422 q 539 454 582 454 q 464 418 496 454 q 406 262 406 351 l 404 247 l 422 239 m 171 461 l 138 441 q 72 396 96 412 q 20 349 35 368 l 14 372 q 16 412 12 384 q 20 442 16 423 q -8 461 4 449 q -34 505 -26 479 q -23 613 -47 552 q 47 681 3 681 q 81 669 68 681 q 100 635 95 655 q 104 598 106 617 q 96 578 104 581 q 85 586 88 585 q 57 597 69 597 q 12 574 35 597 q -7 530 -12 551 q 26 513 -3 521 q 79 505 56 505 q 132 526 99 505 l 172 553 l 171 461 z "},"ا":{"ha":864,"x_min":176,"x_max":495,"o":"m 495 11 l 463 -16 q 416 104 446 28 q 296 382 373 210 q 178 633 224 541 l 203 743 q 311 532 251 674 q 433 202 368 399 q 495 11 471 92 z "},"ب":{"ha":864,"x_min":-18,"x_max":812,"o":"m 203 20 q 76 54 127 20 q -7 176 18 95 q -15 297 -23 228 q 1 363 -11 336 q 1 254 -12 297 q 60 170 18 199 q 199 133 113 133 l 735 133 l 728 153 q 677 240 716 195 l 675 241 l 675 241 l 628 288 l 632 389 q 694 304 662 354 q 779 132 754 214 l 811 20 l 203 20 m 543 -149 l 488 -225 l 380 -142 l 433 -65 l 543 -149 z "},"ة":{"ha":864,"x_min":54,"x_max":563,"o":"m 308 568 q 536 197 495 335 q 555 18 578 60 q 442 -23 532 -23 q 228 92 263 -23 q 260 332 197 197 q 311 418 281 377 l 323 437 l 254 490 l 308 568 m 411 111 q 495 198 541 106 q 361 313 431 326 q 277 179 290 301 q 411 111 283 118 m 217 712 l 163 635 l 56 719 l 110 796 l 217 712 m 467 715 l 412 637 l 302 720 l 357 799 l 467 715 z "},"ت":{"ha":864,"x_min":-18,"x_max":812,"o":"m 203 20 q 76 54 127 20 q -7 176 18 95 q -15 297 -23 228 q 1 363 -11 336 q 1 254 -12 297 q 60 170 18 199 q 199 133 113 133 l 735 133 l 728 153 q 677 240 716 195 l 675 241 l 675 241 l 628 288 l 632 389 q 694 304 662 354 q 779 132 754 214 l 811 20 l 203 20 m 262 414 l 208 336 l 100 420 l 155 498 l 262 414 m 511 416 l 457 339 l 349 422 l 401 500 l 511 416 z "},"ث":{"ha":864,"x_min":-18,"x_max":812,"o":"m 203 20 q 76 54 127 20 q -7 176 18 95 q -15 297 -23 228 q 1 363 -11 336 q 1 254 -12 297 q 60 170 18 199 q 199 133 113 133 l 735 133 l 728 153 q 677 240 716 195 l 675 241 l 675 241 l 628 288 l 632 389 q 694 304 662 354 q 779 132 754 214 l 811 20 l 203 20 m 263 416 l 209 339 l 100 423 l 155 500 l 263 416 m 511 419 l 457 342 l 349 425 l 401 503 l 511 419 m 335 575 l 282 498 l 172 582 l 227 659 l 335 575 z "},"ج":{"ha":864,"x_min":94,"x_max":799,"o":"m 349 199 q 250 262 298 236 q 146 296 186 296 q 100 279 122 296 q 94 273 98 275 q 95 312 94 296 q 152 403 100 403 q 260 353 191 403 l 400 251 q 552 190 483 190 l 633 190 l 610 84 l 433 84 q 256 21 321 84 q 217 -126 191 -42 q 371 -286 243 -213 q 643 -359 499 -359 l 799 -359 q 723 -438 758 -406 q 662 -471 688 -471 q 374 -399 500 -471 q 193 -176 236 -319 q 187 -20 171 -103 q 252 110 203 64 q 285 132 262 119 q 353 165 315 148 l 380 178 l 349 199 m 541 -141 l 487 -217 l 380 -134 l 434 -57 l 541 -141 z "},"ح":{"ha":864,"x_min":94,"x_max":799,"o":"m 349 199 q 250 262 298 236 q 146 296 186 296 q 100 279 122 296 q 94 273 98 275 q 95 312 94 296 q 152 403 100 403 q 260 353 191 403 l 400 251 q 552 190 483 190 l 633 190 l 610 84 l 433 84 q 256 21 321 84 q 217 -126 191 -42 q 371 -286 243 -213 q 643 -359 499 -359 l 799 -359 q 723 -438 758 -406 q 662 -471 688 -471 q 374 -399 500 -471 q 193 -176 236 -319 q 187 -20 171 -103 q 252 110 203 64 q 285 132 262 119 q 353 165 315 148 l 380 178 l 349 199 z "},"خ":{"ha":864,"x_min":8,"x_max":799,"o":"m 349 199 q 250 262 298 236 q 146 296 186 296 q 100 279 122 296 q 94 273 98 275 q 95 312 94 296 q 152 403 100 403 q 260 353 191 403 l 400 251 q 552 190 483 190 l 633 190 l 610 84 l 433 84 q 256 21 321 84 q 217 -126 191 -42 q 371 -286 243 -213 q 643 -359 499 -359 l 799 -359 q 723 -438 758 -406 q 662 -471 688 -471 q 374 -399 500 -471 q 193 -176 236 -319 q 187 -20 171 -103 q 252 110 203 64 q 285 132 262 119 q 353 165 315 148 l 380 178 l 349 199 m 170 621 l 115 544 l 8 627 l 62 704 l 170 621 z "},"د":{"ha":864,"x_min":203,"x_max":594,"o":"m 583 104 q 593 68 589 85 q 594 42 594 54 q 586 26 591 33 q 576 22 582 23 q 566 20 572 20 l 282 20 q 273 22 278 20 q 264 27 269 23 q 245 46 254 35 q 229 79 236 61 q 214 117 221 98 q 212 125 213 121 q 208 144 209 134 q 205 156 205 151 l 203 183 l 208 180 q 232 160 218 170 q 259 145 244 152 q 283 136 271 140 q 309 133 297 133 l 480 133 q 485 134 483 133 q 490 134 487 134 q 496 137 494 136 q 503 142 500 140 q 511 152 509 148 q 517 167 515 159 q 510 198 517 182 q 487 236 500 217 q 425 298 458 270 q 351 354 388 327 q 301 395 326 374 l 275 525 q 313 499 294 511 q 346 473 330 486 q 392 434 370 454 q 433 395 414 415 q 479 336 457 366 q 521 262 502 300 q 555 186 540 224 q 579 117 568 151 q 583 104 582 110 z "},"ذ":{"ha":864,"x_min":64,"x_max":594,"o":"m 583 104 q 593 68 589 85 q 594 42 594 54 q 586 26 591 33 q 576 22 582 23 q 566 20 572 20 l 282 20 q 273 22 278 20 q 264 27 269 23 q 245 46 254 35 q 229 79 236 61 q 214 117 221 98 q 212 125 213 121 q 208 144 209 134 q 205 156 205 151 l 203 183 l 208 180 q 232 160 218 170 q 259 145 244 152 q 283 136 271 140 q 309 133 297 133 l 480 133 q 485 134 483 133 q 490 134 487 134 q 496 137 494 136 q 503 142 500 140 q 511 152 509 148 q 517 167 515 159 q 510 198 517 182 q 487 236 500 217 q 425 298 458 270 q 351 354 388 327 q 301 395 326 374 l 275 525 q 313 499 294 511 q 346 473 330 486 q 392 434 370 454 q 433 395 414 415 q 479 336 457 366 q 521 262 502 300 q 555 186 540 224 q 579 117 568 151 q 583 104 582 110 m 228 736 l 174 659 l 65 742 l 119 819 l 228 736 z "},"ر":{"ha":864,"x_min":334,"x_max":623,"o":"m 448 -317 q 422 -313 435 -316 q 391 -301 406 -308 q 359 -285 374 -293 q 335 -270 347 -277 q 438 -212 391 -245 q 507 -142 475 -179 q 576 -16 551 -85 q 574 58 582 20 q 571 68 572 64 q 552 106 563 87 q 509 160 533 134 q 461 208 486 184 q 435 232 448 220 l 439 369 l 444 365 q 487 309 467 338 q 526 252 507 282 q 571 170 551 212 q 602 85 589 127 q 620 0 614 42 q 621 -88 624 -45 q 606 -176 617 -133 q 574 -248 594 -214 q 519 -300 551 -278 q 453 -317 490 -315 q 448 -317 450 -317 z "},"ز":{"ha":864,"x_min":195,"x_max":623,"o":"m 448 -317 q 422 -313 435 -316 q 391 -301 406 -308 q 359 -285 374 -293 q 335 -270 347 -277 q 438 -212 391 -245 q 507 -142 475 -179 q 576 -16 551 -85 q 574 58 582 20 q 571 68 572 64 q 552 106 563 87 q 509 160 533 134 q 461 208 486 184 q 435 232 448 220 l 439 369 l 444 365 q 487 309 467 338 q 526 252 507 282 q 571 170 551 212 q 602 85 589 127 q 620 0 614 42 q 621 -88 624 -45 q 606 -176 617 -133 q 574 -248 594 -214 q 519 -300 551 -278 q 453 -317 490 -315 q 448 -317 450 -317 m 338 559 l 293 495 l 195 571 l 241 633 l 338 559 z "},"س":{"ha":864,"x_min":39,"x_max":800,"o":"m 456 152 q 507 165 484 153 q 541 205 528 182 q 552 237 547 220 q 557 277 556 256 q 587 236 571 255 q 617 203 601 220 q 669 168 642 183 q 713 156 690 159 q 720 156 718 156 q 727 157 724 156 q 751 172 742 161 q 755 186 754 179 q 751 202 754 194 l 751 203 q 749 208 750 206 q 747 212 749 210 q 747 214 747 213 q 746 214 747 214 q 731 236 739 225 q 705 262 719 250 q 694 273 700 267 q 682 282 688 278 l 692 370 q 715 338 704 354 q 734 308 724 323 q 764 248 750 278 q 788 178 777 213 q 799 121 795 149 q 795 85 800 102 q 777 57 788 71 q 768 50 773 53 q 755 49 762 49 l 745 49 q 723 52 734 49 q 700 58 712 54 q 658 80 678 68 q 620 115 637 96 l 591 148 l 585 113 q 576 91 582 102 q 562 69 570 80 q 537 49 551 57 q 495 37 517 39 q 435 42 465 35 l 450 -7 q 461 -65 458 -37 q 458 -121 463 -94 q 439 -182 452 -153 q 400 -231 423 -209 q 363 -258 384 -245 q 328 -269 347 -264 q 286 -274 308 -273 q 285 -274 285 -274 q 281 -274 282 -274 q 210 -259 245 -271 q 142 -214 175 -241 q 90 -148 113 -183 q 50 -54 65 -102 q 41 4 43 -24 q 41 76 38 41 l 53 66 q 62 -7 52 31 q 92 -61 73 -35 q 160 -125 122 -98 q 216 -152 187 -141 q 282 -161 250 -160 q 283 -161 282 -161 q 283 -161 283 -161 q 313 -159 298 -161 q 345 -149 330 -155 q 382 -129 363 -140 q 408 -107 396 -119 q 423 -76 418 -92 q 431 -38 429 -57 l 433 -34 l 431 -30 q 407 26 422 -1 q 350 92 381 61 q 327 115 338 104 q 296 142 312 129 l 307 254 q 330 229 319 241 q 355 206 342 217 q 412 165 382 183 q 456 152 434 156 z "},"ش":{"ha":864,"x_min":39,"x_max":800,"o":"m 456 152 q 507 165 484 153 q 541 205 528 182 q 552 237 547 220 q 557 277 556 256 q 587 236 571 255 q 617 203 601 220 q 669 168 642 183 q 713 156 690 159 q 720 156 718 156 q 727 157 724 156 q 751 172 742 161 q 755 186 754 179 q 751 202 754 194 l 751 203 q 749 208 750 206 q 747 212 749 210 q 747 214 747 213 q 746 214 747 214 q 731 236 739 225 q 705 262 719 250 q 694 273 700 267 q 682 282 688 278 l 692 370 q 715 338 704 354 q 734 308 724 323 q 764 248 750 278 q 788 178 777 213 q 799 121 795 149 q 795 85 800 102 q 777 57 788 71 q 768 50 773 53 q 755 49 762 49 l 745 49 q 723 52 734 49 q 700 58 712 54 q 658 80 678 68 q 620 115 637 96 l 591 148 l 585 113 q 576 91 582 102 q 562 69 570 80 q 537 49 551 57 q 495 37 517 39 q 435 42 465 35 l 450 -7 q 461 -65 458 -37 q 458 -121 463 -94 q 439 -182 452 -153 q 400 -231 423 -209 q 363 -258 384 -245 q 328 -269 347 -264 q 286 -274 308 -273 q 285 -274 285 -274 q 281 -274 282 -274 q 210 -259 245 -271 q 142 -214 175 -241 q 90 -148 113 -183 q 50 -54 65 -102 q 41 4 43 -24 q 41 76 38 41 l 53 66 q 62 -7 52 31 q 92 -61 73 -35 q 160 -125 122 -98 q 216 -152 187 -141 q 282 -161 250 -160 q 283 -161 282 -161 q 283 -161 283 -161 q 313 -159 298 -161 q 345 -149 330 -155 q 382 -129 363 -140 q 408 -107 396 -119 q 423 -76 418 -92 q 431 -38 429 -57 l 433 -34 l 431 -30 q 407 26 422 -1 q 350 92 381 61 q 327 115 338 104 q 296 142 312 129 l 307 254 q 330 229 319 241 q 355 206 342 217 q 412 165 382 183 q 456 152 434 156 m 439 480 l 385 403 l 277 487 l 331 564 l 439 480 m 688 483 l 633 406 l 525 488 l 578 567 l 688 483 m 510 639 l 458 562 l 349 646 l 403 723 l 510 639 z "},"ص":{"ha":864,"x_min":43,"x_max":817,"o":"m 457 -20 q 469 -95 467 -58 q 445 -194 465 -148 q 408 -241 429 -220 q 373 -267 393 -256 q 330 -282 353 -277 q 282 -286 307 -286 q 274 -286 282 -286 q 213 -273 244 -283 q 152 -231 182 -255 q 96 -163 121 -198 q 61 -81 75 -122 q 57 -68 61 -81 q 47 -8 50 -38 q 45 52 43 22 l 60 52 q 72 -11 64 20 q 76 -24 72 -11 q 99 -75 84 -50 q 167 -138 127 -111 q 222 -165 194 -155 q 281 -174 252 -172 q 288 -174 283 -174 q 362 -157 328 -170 q 423 -109 397 -138 q 437 -84 431 -98 q 445 -49 442 -68 l 444 -45 q 433 -16 439 -30 q 415 11 423 -1 q 355 80 385 47 q 331 104 343 92 q 301 129 331 104 l 313 241 q 336 218 324 229 q 374 180 354 199 q 415 152 395 164 q 435 144 426 146 q 456 140 446 141 q 467 144 461 141 q 472 151 471 146 q 477 175 472 151 q 494 254 486 214 q 517 330 503 293 q 536 369 525 350 q 560 400 547 385 q 585 412 571 407 q 600 415 585 412 q 616 412 608 414 q 639 404 627 410 q 674 382 658 395 q 718 340 697 363 q 750 286 735 315 q 777 212 766 250 q 781 201 777 212 q 808 83 796 141 q 814 54 811 69 q 817 33 815 43 q 814 26 815 30 q 810 22 812 24 q 806 20 808 22 q 791 20 798 20 l 444 20 l 457 -20 m 738 129 q 745 130 742 129 q 751 132 749 130 q 761 142 751 132 q 768 157 766 149 q 766 178 769 168 q 745 222 758 201 q 705 264 727 244 q 661 296 684 282 q 621 308 642 304 q 572 302 594 309 q 547 275 556 292 q 534 244 540 260 q 524 213 528 229 l 499 129 l 738 129 z "},"ض":{"ha":864,"x_min":43,"x_max":817,"o":"m 457 -20 q 469 -95 467 -58 q 445 -194 465 -148 q 408 -241 429 -220 q 373 -267 393 -256 q 330 -282 353 -277 q 282 -286 307 -286 q 274 -286 282 -286 q 213 -273 244 -283 q 152 -231 182 -255 q 96 -163 121 -198 q 61 -81 75 -122 q 57 -68 61 -81 q 47 -8 50 -38 q 45 52 43 22 l 60 52 q 72 -11 64 20 q 76 -24 72 -11 q 99 -75 84 -50 q 167 -138 127 -111 q 222 -165 194 -155 q 281 -174 252 -172 q 288 -174 283 -174 q 362 -157 328 -170 q 423 -109 397 -138 q 437 -84 431 -98 q 445 -49 442 -68 l 444 -45 q 433 -16 439 -30 q 415 11 423 -1 q 355 80 385 47 q 331 104 343 92 q 301 129 331 104 l 313 241 q 336 218 324 229 q 374 180 354 199 q 415 152 395 164 q 435 144 426 146 q 456 140 446 141 q 467 144 461 141 q 472 151 471 146 q 477 175 472 151 q 494 254 486 214 q 517 330 503 293 q 536 369 525 350 q 560 400 547 385 q 585 412 571 407 q 600 415 585 412 q 616 412 608 414 q 639 404 627 410 q 674 382 658 395 q 718 340 697 363 q 750 286 735 315 q 777 212 766 250 q 781 201 777 212 q 808 83 796 141 q 814 54 811 69 q 817 33 815 43 q 814 26 815 30 q 810 22 812 24 q 806 20 808 22 q 791 20 798 20 l 444 20 l 457 -20 m 738 129 q 745 130 742 129 q 751 132 749 130 q 761 142 751 132 q 768 157 766 149 q 766 178 769 168 q 745 222 758 201 q 705 264 727 244 q 661 296 684 282 q 621 308 642 304 q 572 302 594 309 q 547 275 556 292 q 534 244 540 260 q 524 213 528 229 l 499 129 l 738 129 m 407 439 l 363 377 l 266 453 l 311 515 l 407 439 z "},"ط":{"ha":864,"x_min":61,"x_max":726,"o":"m 620 133 q 646 134 632 133 q 665 138 655 136 q 675 149 671 144 q 681 168 680 159 q 674 202 680 184 q 648 237 663 221 q 620 262 635 251 q 586 282 604 273 q 538 300 563 292 q 494 308 515 307 q 456 301 473 307 q 416 282 435 293 q 368 236 389 262 q 331 179 349 208 l 301 133 l 620 133 m 700 237 q 709 210 705 224 q 724 130 720 170 q 724 83 726 106 q 712 37 722 58 q 697 23 705 28 q 674 20 686 20 l 202 20 q 183 23 193 20 q 164 31 174 26 q 125 62 142 45 q 90 104 106 83 q 64 149 75 126 l 61 152 q 103 138 83 145 q 138 133 121 134 l 199 133 q 232 134 216 133 q 251 141 243 137 q 270 165 263 152 q 281 190 277 176 l 286 205 l 277 228 q 229 336 254 282 q 167 476 198 407 q 109 594 142 529 q 62 670 80 640 l 76 799 q 107 742 92 770 q 141 673 125 707 q 187 567 165 620 q 229 461 209 514 q 258 385 244 423 q 289 301 273 343 l 312 244 l 354 312 q 389 361 370 338 q 411 384 400 373 q 449 415 429 401 q 486 425 465 422 q 488 425 487 425 q 540 412 513 422 q 598 374 570 396 q 658 313 631 346 q 700 237 684 277 z "},"ظ":{"ha":864,"x_min":61,"x_max":726,"o":"m 620 133 q 646 134 632 133 q 665 138 655 136 q 675 149 671 144 q 681 168 680 159 q 674 202 680 184 q 648 237 663 221 q 620 262 635 251 q 586 282 604 273 q 538 300 563 292 q 494 308 515 307 q 456 301 473 307 q 416 282 435 293 q 368 236 389 262 q 331 179 349 208 l 301 133 l 620 133 m 700 237 q 709 210 705 224 q 724 130 720 170 q 724 83 726 106 q 712 37 722 58 q 697 23 705 28 q 674 20 686 20 l 202 20 q 183 23 193 20 q 164 31 174 26 q 125 62 142 45 q 90 104 106 83 q 64 149 75 126 l 61 152 q 103 138 83 145 q 138 133 121 134 l 199 133 q 232 134 216 133 q 251 141 243 137 q 270 165 263 152 q 281 190 277 176 l 286 205 l 277 228 q 229 336 254 282 q 167 476 198 407 q 109 594 142 529 q 62 670 80 640 l 76 799 q 107 742 92 770 q 141 673 125 707 q 187 567 165 620 q 229 461 209 514 q 258 385 244 423 q 289 301 273 343 l 312 244 l 354 312 q 389 361 370 338 q 411 384 400 373 q 449 415 429 401 q 486 425 465 422 q 488 425 487 425 q 540 412 513 422 q 598 374 570 396 q 658 313 631 346 q 700 237 684 277 m 479 631 l 425 553 l 317 637 l 372 715 l 479 631 z "},"ع":{"ha":864,"x_min":57,"x_max":796,"o":"m 796 -359 q 713 -442 757 -403 q 661 -469 689 -458 q 624 -473 643 -473 q 604 -473 614 -473 q 544 -458 574 -468 q 475 -431 510 -446 q 380 -385 427 -411 q 296 -323 336 -358 q 229 -245 259 -286 q 189 -159 205 -203 q 175 -90 179 -123 q 176 -18 174 -53 q 189 50 180 18 q 212 107 198 80 l 220 123 l 199 137 q 155 168 176 152 q 114 202 134 184 q 83 237 98 218 q 64 279 72 256 q 57 346 56 313 q 77 412 64 381 q 115 461 94 439 q 157 477 134 473 q 165 477 161 477 q 198 473 182 477 q 240 456 220 467 q 327 391 286 427 q 275 401 301 397 q 229 406 252 404 q 227 406 228 406 q 184 399 205 404 q 151 377 165 389 q 125 346 136 362 q 110 320 117 334 q 100 296 104 308 q 119 271 109 282 q 153 247 136 258 q 193 222 174 233 q 235 205 213 213 q 277 195 255 199 q 309 193 293 193 q 338 201 324 195 l 494 266 l 495 159 l 467 148 q 373 109 419 130 q 307 73 339 92 q 262 31 282 54 q 231 -23 244 7 q 218 -83 222 -52 q 224 -136 218 -109 q 275 -214 244 -180 q 378 -288 323 -256 q 510 -342 444 -319 q 642 -359 576 -357 l 796 -359 z "},"غ":{"ha":864,"x_min":-39,"x_max":796,"o":"m 796 -359 q 713 -442 757 -403 q 661 -469 689 -458 q 624 -473 643 -473 q 604 -473 614 -473 q 544 -458 574 -468 q 475 -431 510 -446 q 380 -385 427 -411 q 296 -323 336 -358 q 229 -245 259 -286 q 189 -159 205 -203 q 175 -90 179 -123 q 176 -18 174 -53 q 189 50 180 18 q 212 107 198 80 l 220 123 l 199 137 q 155 168 176 152 q 114 202 134 184 q 83 237 98 218 q 64 279 72 256 q 57 346 56 313 q 77 412 64 381 q 115 461 94 439 q 157 477 134 473 q 165 477 161 477 q 198 473 182 477 q 240 456 220 467 q 327 391 286 427 q 275 401 301 397 q 229 406 252 404 q 227 406 228 406 q 184 399 205 404 q 151 377 165 389 q 125 346 136 362 q 110 320 117 334 q 100 296 104 308 q 119 271 109 282 q 153 247 136 258 q 193 222 174 233 q 235 205 213 213 q 277 195 255 199 q 309 193 293 193 q 338 201 324 195 l 494 266 l 495 159 l 467 148 q 373 109 419 130 q 307 73 339 92 q 262 31 282 54 q 231 -23 244 7 q 218 -83 222 -52 q 224 -136 218 -109 q 275 -214 244 -180 q 378 -288 323 -256 q 510 -342 444 -319 q 642 -359 576 -357 l 796 -359 m 125 677 l 71 601 l -39 684 l 15 761 l 125 677 z "},"ـ":{"ha":864,"x_min":-56,"x_max":871,"o":"m 869 22 l -22 20 l -54 133 l 837 133 l 869 22 z "},"ف":{"ha":864,"x_min":-28,"x_max":822,"o":"m 486 20 l 180 20 q 55 55 104 20 q -19 171 5 90 q -24 270 -33 216 q -9 349 -16 324 q 56 165 -23 225 q 187 133 99 133 l 195 133 l 452 133 l 650 133 l 515 183 q 437 232 453 208 q 435 235 435 235 l 415 359 l 412 376 q 408 541 399 477 q 460 612 420 612 q 617 494 519 612 q 783 182 731 357 l 818 66 q 817 31 826 41 q 768 20 808 20 l 486 20 m 454 331 l 461 326 l 719 231 q 571 416 655 355 q 486 453 524 450 q 454 331 431 456 m 283 746 l 229 669 l 119 751 l 174 829 l 283 746 z "},"ق":{"ha":864,"x_min":61,"x_max":738,"o":"m 224 609 l 170 532 l 61 616 l 115 693 l 224 609 m 472 612 l 418 534 l 309 617 l 362 696 l 472 612 m 422 -262 q 148 -49 209 -262 q 127 102 123 41 q 141 102 137 102 q 155 30 146 58 q 263 -115 186 -72 q 425 -148 323 -148 q 507 -136 467 -145 q 590 -111 548 -127 q 659 -64 632 -94 q 689 4 686 -34 q 646 64 686 45 q 562 74 631 73 q 445 72 494 75 q 403 80 416 72 q 378 104 389 88 q 332 208 350 149 q 313 317 315 266 q 331 403 311 368 q 392 437 351 438 q 627 231 498 437 q 687 119 656 184 q 731 -7 718 54 q 703 -136 750 -80 q 568 -228 652 -194 q 422 -262 484 -262 m 395 183 l 430 183 l 600 183 q 528 275 571 232 q 444 319 486 317 q 387 285 400 320 q 378 198 373 250 q 395 183 381 183 z "},"ك":{"ha":864,"x_min":20,"x_max":774,"o":"m 338 389 q 319 387 330 389 q 304 385 309 385 q 252 401 275 385 q 222 441 229 418 q 217 471 217 458 q 224 511 217 484 q 260 576 233 547 q 326 613 292 613 l 331 530 q 286 517 301 522 q 252 479 247 498 q 271 463 255 468 q 289 461 281 461 q 308 462 294 461 q 330 463 321 463 q 365 458 351 463 q 382 438 378 453 q 389 354 396 391 q 324 300 378 300 l 225 300 q 279 332 270 326 q 338 389 327 363 m 689 156 q 562 434 636 283 q 426 677 477 600 l 454 792 q 526 661 483 749 q 647 389 586 538 q 736 144 708 239 l 773 20 l 194 20 q 110 46 146 20 q 39 152 62 76 q 20 275 20 218 q 27 334 22 307 q 38 250 26 288 q 94 167 53 199 q 206 133 138 133 l 699 133 l 689 156 z "},"ل":{"ha":864,"x_min":174,"x_max":715,"o":"m 184 18 q 438 -161 239 -161 q 581 -126 511 -161 q 681 -45 650 -91 l 678 -37 q 587 187 659 28 q 363 631 480 419 l 382 749 q 557 385 467 613 q 680 49 647 157 l 707 -42 q 648 -202 734 -132 q 423 -273 563 -273 q 285 -226 346 -273 q 195 -84 224 -179 q 174 64 174 -15 q 184 18 178 39 z "},"م":{"ha":864,"x_min":209,"x_max":532,"o":"m 285 60 l 340 -50 q 407 -186 384 -134 q 460 -320 444 -264 q 460 -380 467 -342 q 382 -209 430 -296 q 281 -42 368 -183 q 218 75 229 39 q 221 157 208 115 q 275 227 236 205 q 323 245 298 240 q 343 250 328 247 q 366 255 358 254 l 403 264 l 363 290 q 330 313 340 307 q 286 327 304 327 q 212 304 248 327 l 210 302 l 210 328 q 224 418 213 387 q 263 458 239 458 q 339 420 288 458 l 445 336 q 530 286 495 300 l 521 157 q 431 149 488 156 q 343 127 373 141 q 296 101 307 111 q 283 81 286 91 q 283 64 282 72 l 283 61 l 285 60 z "},"ن":{"ha":864,"x_min":99,"x_max":712,"o":"m 671 106 q 609 191 647 144 q 556 258 559 250 l 557 353 q 629 252 601 297 q 689 127 671 183 l 707 68 q 671 -38 724 11 q 533 -110 624 -81 q 391 -133 457 -133 q 208 -79 278 -133 q 123 45 146 -33 q 99 221 98 133 q 113 157 104 183 q 227 12 144 56 q 387 -20 290 -20 q 579 12 490 -20 q 680 77 665 42 l 684 87 l 671 106 m 378 416 l 324 339 l 216 423 l 269 500 l 378 416 z "},"ه":{"ha":864,"x_min":217,"x_max":563,"o":"m 308 568 q 536 197 495 335 q 555 18 578 60 q 442 -23 532 -23 q 228 92 263 -23 q 260 332 197 197 q 311 418 281 377 l 323 437 l 254 490 l 308 568 m 411 111 q 495 198 541 106 q 361 313 431 326 q 277 179 290 301 q 411 111 283 118 z "},"و":{"ha":864,"x_min":298,"x_max":616,"o":"m 556 68 l 403 68 q 389 69 396 68 q 376 73 382 71 q 354 94 363 81 q 334 132 343 113 q 317 172 324 152 q 301 247 307 210 q 300 321 298 285 q 317 392 302 359 q 334 410 324 403 q 359 416 346 415 q 387 410 373 415 q 412 395 400 403 q 475 328 446 365 q 526 248 502 289 q 570 142 552 195 l 590 75 q 616 -65 610 4 q 601 -186 614 -129 q 545 -270 581 -233 q 446 -297 502 -296 q 401 -286 423 -293 q 343 -252 372 -273 q 435 -205 392 -232 q 513 -140 477 -175 q 570 -46 549 -98 q 572 -3 574 -24 q 563 45 570 22 l 556 68 m 334 244 q 334 216 332 231 q 338 202 335 209 q 347 187 342 194 q 357 180 351 183 q 368 179 362 179 l 522 179 q 509 208 517 194 q 484 240 498 225 q 444 273 465 258 q 403 297 425 286 q 374 304 389 302 q 355 297 363 302 q 343 279 347 289 q 334 244 336 263 z "},"ى":{"ha":864,"x_min":77,"x_max":675,"o":"m 422 239 q 543 203 448 227 q 648 144 637 180 l 667 81 q 642 -48 690 3 q 512 -121 593 -99 q 361 -142 431 -142 q 182 -98 241 -142 q 95 49 123 -53 q 77 198 77 113 l 99 194 q 190 3 127 41 q 337 -34 252 -34 q 532 -9 422 -34 q 635 46 597 4 l 643 65 l 623 83 q 521 110 617 87 q 403 152 425 133 q 393 181 403 152 q 382 264 384 210 q 435 505 378 408 q 514 570 475 570 q 571 557 553 570 q 613 431 605 536 q 613 410 613 422 q 539 454 582 454 q 464 418 496 454 q 406 262 406 351 l 404 247 l 422 239 z "},"ي":{"ha":864,"x_min":77,"x_max":690,"o":"m 422 239 q 543 203 448 227 q 648 144 637 180 l 667 81 q 642 -48 690 3 q 512 -121 593 -99 q 361 -142 431 -142 q 182 -98 241 -142 q 95 49 123 -53 q 77 198 77 113 l 99 194 q 190 3 127 41 q 337 -34 252 -34 q 532 -9 422 -34 q 635 46 597 4 l 643 65 l 623 83 q 521 110 617 87 q 403 152 425 133 q 393 181 403 152 q 382 264 384 210 q 435 505 378 408 q 514 570 475 570 q 571 557 553 570 q 613 431 605 536 q 613 410 613 422 q 539 454 582 454 q 464 418 496 454 q 406 262 406 351 l 404 247 l 422 239 m 441 -339 l 387 -416 l 279 -332 l 334 -255 l 441 -339 m 690 -336 l 636 -414 l 526 -331 l 581 -252 l 690 -336 z "},"ً":{"ha":0,"x_min":-347,"x_max":-28,"o":"m -66 1309 q -77 1252 -73 1265 q -117 1211 -90 1225 l -347 1095 q -335 1153 -343 1135 q -297 1196 -324 1181 l -66 1309 m -28 1160 q -42 1104 -33 1120 q -80 1062 -52 1076 l -307 944 q -296 1002 -304 983 q -258 1046 -283 1031 l -28 1160 z "},"ٌ":{"ha":0,"x_min":-366,"x_max":5,"o":"m 0 1036 q 5 1008 5 1019 q -7 997 4 997 q -21 1002 -11 997 q -43 1015 -31 1006 l -65 1029 l -85 1042 q -129 989 -107 1013 q -172 948 -151 964 q -212 923 -193 932 q -248 914 -232 914 q -261 917 -256 914 q -267 923 -266 920 q -265 937 -267 926 q -260 962 -263 948 q -258 994 -258 977 q -262 1024 -258 1010 q -268 1040 -263 1031 q -279 1057 -273 1050 q -294 1069 -285 1065 q -313 1073 -302 1073 q -333 1064 -328 1073 q -339 1044 -338 1055 q -339 1023 -340 1032 q -340 1013 -338 1013 q -349 1017 -346 1013 q -355 1029 -353 1021 q -363 1066 -359 1044 q -366 1108 -366 1088 q -357 1143 -365 1128 q -330 1158 -349 1158 q -280 1143 -300 1158 q -244 1096 -260 1128 q -227 1046 -236 1077 q -213 991 -218 1015 q -166 1023 -187 1001 q -132 1067 -145 1044 q -155 1082 -142 1076 q -179 1097 -167 1088 q -200 1118 -191 1105 q -216 1149 -209 1130 q -221 1196 -222 1172 q -211 1238 -220 1219 q -185 1270 -202 1257 q -144 1282 -168 1282 q -115 1274 -129 1282 q -90 1257 -102 1267 q -71 1233 -79 1246 q -60 1207 -62 1219 q -55 1184 -56 1196 q -55 1160 -54 1172 q -58 1135 -56 1147 q -61 1112 -60 1122 q -23 1080 -38 1096 q 0 1036 -8 1063 m -110 1142 q -111 1168 -107 1154 q -122 1192 -114 1181 q -142 1211 -130 1203 q -167 1218 -153 1218 q -178 1213 -174 1218 q -179 1199 -182 1207 q -159 1174 -175 1187 q -110 1142 -144 1161 z "},"ٍ":{"ha":0,"x_min":149,"x_max":471,"o":"m 431 -351 q 419 -410 423 -395 q 381 -450 408 -435 l 149 -566 q 168 -496 157 -515 q 201 -467 179 -476 l 431 -351 m 469 -502 q 458 -557 465 -540 q 419 -600 446 -586 l 191 -716 q 202 -659 194 -678 q 240 -616 213 -629 l 469 -502 z "},"َ":{"ha":0,"x_min":-275,"x_max":4,"o":"m 4 1169 q -14 1101 -3 1120 q -46 1072 -26 1082 l -275 956 q -266 1013 -271 996 q -225 1057 -252 1043 l 4 1169 z "},"ُ":{"ha":0,"x_min":-328,"x_max":-52,"o":"m -64 1085 q -60 1069 -61 1080 q -60 1047 -60 1059 q -54 1019 -56 1031 q -54 1006 -52 1006 q -92 1020 -69 1006 q -140 1051 -115 1034 q -201 954 -170 986 q -263 922 -232 922 q -296 927 -277 922 q -328 937 -315 932 q -289 964 -309 948 q -250 999 -269 981 q -214 1037 -231 1017 q -190 1080 -198 1057 q -238 1114 -220 1096 q -263 1156 -256 1131 q -269 1202 -270 1176 q -260 1252 -267 1229 q -239 1291 -254 1275 q -206 1308 -225 1308 q -175 1301 -189 1308 q -151 1282 -161 1294 q -132 1255 -140 1271 q -118 1223 -123 1240 q -110 1168 -110 1194 q -114 1120 -110 1143 q -100 1111 -109 1116 q -83 1100 -91 1105 l -69 1090 q -64 1085 -64 1088 m -163 1181 q -185 1212 -168 1199 q -220 1225 -202 1225 q -229 1221 -225 1225 q -231 1213 -232 1217 q -211 1187 -228 1204 q -165 1150 -194 1169 q -162 1165 -164 1158 q -163 1181 -160 1172 z "},"ِ":{"ha":0,"x_min":186,"x_max":467,"o":"m 467 -464 q 448 -532 460 -514 q 415 -563 437 -551 l 186 -677 q 198 -621 190 -637 q 236 -578 209 -591 l 467 -464 z "},"ّ":{"ha":0,"x_min":-338,"x_max":-1,"o":"m -15 1165 q -71 1017 30 1017 q -104 1021 -91 1017 q -141 1036 -118 1024 q -161 977 -137 1004 q -221 951 -184 951 q -284 972 -259 951 q -324 1044 -309 994 q -334 1091 -331 1063 q -338 1141 -338 1119 l -315 1143 q -279 1065 -298 1089 q -237 1042 -260 1042 q -195 1080 -203 1042 q -202 1196 -186 1119 l -186 1202 q -155 1143 -171 1172 q -99 1108 -133 1108 q -58 1168 -50 1108 q -76 1237 -61 1187 l -56 1246 q -35 1208 -47 1230 q -15 1165 -22 1187 z "},"ْ":{"ha":0,"x_min":-312,"x_max":-52,"o":"m -64 1108 q -157 962 -19 962 q -248 988 -209 962 q -300 1061 -286 1015 q -301 1200 -323 1135 q -220 1264 -279 1264 q -127 1217 -174 1264 q -64 1108 -81 1171 m -100 1090 q -145 1152 -109 1119 q -228 1190 -189 1190 q -269 1165 -252 1190 q -277 1109 -286 1141 q -161 1044 -256 1044 q -111 1057 -127 1044 q -100 1090 -94 1070 z "},"٠":{"ha":864,"x_min":283,"x_max":414,"o":"m 412 288 q 407 252 408 267 l 403 182 q 342 216 373 197 q 283 255 313 233 q 286 306 283 277 q 294 361 289 335 q 353 320 323 339 q 412 288 382 301 z "},"١":{"ha":864,"x_min":199,"x_max":499,"o":"m 476 133 q 499 54 487 94 l 483 54 q 456 122 483 54 q 302 365 414 228 q 210 464 264 411 l 199 600 l 236 563 q 296 496 262 537 q 339 438 319 468 q 416 291 380 374 q 476 133 453 208 z "},"٢":{"ha":864,"x_min":80,"x_max":441,"o":"m 403 31 q 353 165 378 106 q 283 299 324 235 q 186 422 241 363 q 88 511 141 469 l 81 646 l 113 617 q 194 563 149 585 q 289 538 243 538 q 384 574 358 538 q 418 656 404 604 l 430 656 q 410 499 456 559 q 298 444 366 444 l 273 444 l 286 418 q 338 305 312 369 q 382 182 363 241 q 403 100 400 122 l 419 31 l 403 31 z "},"٣":{"ha":864,"x_min":56,"x_max":476,"o":"m 301 625 q 324 587 312 604 q 380 537 354 548 q 400 533 389 533 q 452 623 473 536 q 463 623 457 623 q 475 503 477 541 q 425 438 472 438 q 327 484 381 438 l 326 460 q 308 435 326 444 q 275 427 292 427 l 251 427 l 263 403 q 308 298 285 361 q 350 168 331 236 q 369 94 369 99 l 381 37 q 365 37 373 37 q 319 160 343 103 q 244 297 286 231 q 161 410 206 357 q 64 511 117 463 l 57 635 q 110 583 81 609 q 225 522 180 522 q 290 574 273 522 q 301 625 298 595 z "},"٤":{"ha":864,"x_min":145,"x_max":544,"o":"m 544 113 q 529 79 536 94 q 480 20 499 20 q 425 26 457 20 q 355 46 393 31 q 286 85 315 61 q 252 122 256 110 q 255 218 240 164 q 293 300 269 260 l 305 319 l 277 331 l 241 346 q 190 369 208 361 q 151 396 160 384 q 172 515 136 444 q 275 642 206 582 l 271 533 q 210 502 236 519 q 189 486 191 490 q 186 467 182 476 q 187 460 186 465 q 198 446 189 454 q 285 400 239 418 q 361 365 345 377 q 358 346 361 359 q 351 317 354 326 q 311 264 336 300 q 286 213 286 228 q 288 203 286 208 q 319 163 294 182 q 380 130 351 138 q 454 118 410 122 q 544 113 499 114 z "},"٥":{"ha":864,"x_min":163,"x_max":536,"o":"m 509 321 q 526 114 552 178 q 391 47 499 47 q 260 87 307 47 q 206 180 225 117 q 170 378 182 264 q 168 575 159 491 q 199 655 178 655 q 293 616 235 655 q 415 499 359 570 q 509 321 480 415 m 255 216 q 366 160 297 160 q 469 201 434 160 q 488 298 505 243 q 376 441 471 358 q 229 525 282 525 q 208 518 213 525 q 197 429 195 498 q 218 298 198 361 q 255 216 239 236 z "},"٦":{"ha":864,"x_min":38,"x_max":600,"o":"m 583 152 l 598 37 q 456 197 517 92 q 335 495 392 305 l 324 533 l 298 511 q 264 502 292 506 q 218 498 237 498 q 151 506 180 498 q 100 529 121 514 q 75 566 91 536 q 38 655 57 601 q 110 617 66 633 q 214 597 167 597 q 281 604 244 597 q 340 625 317 612 q 351 555 346 586 q 370 484 359 521 q 458 303 395 403 q 583 152 521 203 z "},"٧":{"ha":864,"x_min":35,"x_max":498,"o":"m 498 534 q 456 463 469 509 q 435 351 444 422 q 434 199 430 292 q 448 60 438 130 q 410 126 431 92 q 330 248 376 184 q 248 355 292 300 q 152 455 205 411 q 52 522 99 499 l 35 654 q 115 606 79 635 q 212 509 161 570 q 280 410 241 472 q 353 281 319 349 q 378 264 361 264 q 392 281 395 264 q 387 378 387 334 q 391 465 387 423 q 419 589 399 547 q 461 652 439 631 l 498 534 z "},"٨":{"ha":864,"x_min":163,"x_max":627,"o":"m 163 144 q 205 216 191 168 q 224 327 216 255 q 227 480 232 392 q 213 620 222 549 q 252 551 229 587 q 331 430 288 490 q 411 323 368 378 q 508 223 454 267 q 609 156 562 179 l 625 24 q 547 73 583 43 q 449 170 498 111 q 380 269 419 206 q 308 397 340 331 q 283 414 300 414 q 267 397 266 414 q 274 302 273 343 q 270 213 275 262 q 241 88 260 129 q 198 24 222 47 l 163 144 z "},"٩":{"ha":864,"x_min":110,"x_max":576,"o":"m 559 152 l 575 37 q 460 151 509 81 q 370 339 403 229 q 358 377 370 339 q 275 320 335 334 q 180 347 216 320 q 125 441 145 374 q 119 594 100 522 q 191 669 138 669 q 262 631 225 669 q 324 533 293 597 q 372 422 345 494 q 450 277 400 350 q 559 152 503 198 m 255 403 q 298 427 285 403 q 302 476 311 452 q 264 536 296 503 q 186 579 224 579 q 144 547 159 579 q 138 486 130 514 q 185 427 149 452 q 255 403 221 403 z "},"٪":{"ha":640,"x_min":-184,"x_max":560,"o":"m 559 103 q 555 69 555 83 l 551 -3 q 490 31 519 12 q 431 71 460 50 q 433 122 430 94 q 441 176 435 151 q 500 136 471 155 q 559 103 530 118 m -56 838 q -60 803 -60 817 l -64 732 q -126 766 -95 747 q -183 806 -155 784 q -182 857 -184 827 q -174 911 -179 886 q -114 871 -144 890 q -56 838 -84 852 m 315 922 l 129 0 l 58 0 l 243 922 l 315 922 z "},"٭":{"ha":864,"x_min":-53,"x_max":433,"o":"m 431 807 l 316 697 l 425 522 l 244 629 l 125 522 l 127 697 l -53 807 l 132 807 l 137 983 l 248 807 l 431 807 z "},"ٮ":{"ha":864,"x_min":-18,"x_max":812,"o":"m 203 20 q 76 54 127 20 q -7 176 18 95 q -15 297 -23 228 q 1 363 -11 336 q 1 254 -12 297 q 60 170 18 199 q 199 133 113 133 l 735 133 l 728 153 q 677 240 716 195 l 675 241 l 675 241 l 628 288 l 632 389 q 694 304 662 354 q 779 132 754 214 l 811 20 l 203 20 z "},"ٹ":{"ha":864,"x_min":-18,"x_max":812,"o":"m 203 20 q 76 54 127 20 q -7 176 18 95 q -15 297 -23 228 q 1 363 -11 336 q 1 254 -12 297 q 60 170 18 199 q 199 133 113 133 l 735 133 l 728 153 q 677 240 716 195 l 675 241 l 675 241 l 628 288 l 632 389 q 694 304 662 354 q 779 132 754 214 l 811 20 l 203 20 m 412 387 q 423 387 418 387 q 433 389 429 387 q 437 393 435 391 q 439 401 439 397 q 437 416 439 410 q 426 433 431 425 q 412 444 419 438 q 397 452 406 448 q 377 460 388 456 q 357 463 366 463 q 340 460 349 463 q 323 452 331 457 q 301 431 311 442 q 285 407 293 419 l 273 387 l 412 387 m 448 431 q 452 420 450 426 q 458 385 457 403 q 458 365 460 374 q 453 343 457 353 q 446 338 450 340 q 437 336 442 336 l 229 336 q 221 338 225 336 q 212 342 216 339 q 194 355 203 347 q 179 373 186 363 q 168 393 172 384 l 167 395 q 186 388 176 391 q 201 387 193 387 l 228 387 q 241 387 235 387 q 251 389 247 388 q 259 400 255 395 q 263 411 262 406 l 266 418 l 262 427 q 240 476 251 452 q 213 537 227 506 q 187 589 202 560 q 167 623 175 609 l 174 680 q 187 654 180 667 q 202 624 195 639 q 222 578 213 601 q 240 530 232 553 q 254 498 247 514 q 267 460 260 479 l 277 435 l 296 464 q 312 487 302 476 q 321 496 316 492 q 338 510 328 505 q 354 514 345 513 q 354 514 354 514 q 377 509 366 513 q 403 492 391 502 q 430 465 418 480 q 448 431 441 449 z "},"ټ":{"ha":864,"x_min":-18,"x_max":812,"o":"m 203 20 q 76 54 127 20 q -7 176 18 95 q -15 297 -23 228 q 1 363 -11 336 q 1 254 -12 297 q 60 170 18 199 q 199 133 113 133 l 735 133 l 728 153 q 677 240 716 195 l 675 241 l 675 241 l 628 288 l 632 389 q 694 304 662 354 q 779 132 754 214 l 811 20 l 203 20 m 540 -62 q 545 -119 548 -92 q 530 -167 543 -146 q 495 -199 517 -187 q 442 -212 473 -212 q 366 -180 399 -212 q 311 -79 332 -148 q 304 -24 302 -50 q 318 22 307 1 q 351 54 330 42 q 401 65 372 65 q 444 53 422 65 q 484 22 465 41 q 518 -20 503 3 q 540 -62 533 -42 m 495 -90 q 477 -65 491 -79 q 447 -39 464 -52 q 412 -20 430 -27 q 380 -12 393 -12 q 346 -31 355 -12 q 343 -71 336 -49 q 355 -91 346 -81 q 378 -107 365 -100 q 407 -117 391 -114 q 437 -121 423 -121 q 457 -118 446 -121 q 477 -111 468 -115 q 491 -100 486 -106 q 495 -90 496 -95 m 262 414 l 208 336 l 100 420 l 155 498 l 262 414 m 511 416 l 457 339 l 349 422 l 401 500 l 511 416 z "},"پ":{"ha":864,"x_min":-18,"x_max":812,"o":"m 203 20 q 76 54 127 20 q -7 176 18 95 q -15 297 -23 228 q 1 363 -11 336 q 1 254 -12 297 q 60 170 18 199 q 199 133 113 133 l 735 133 l 728 153 q 677 240 716 195 l 675 241 l 675 241 l 628 288 l 632 389 q 694 304 662 354 q 779 132 754 214 l 811 20 l 203 20 m 452 -141 l 395 -225 l 294 -146 l 351 -62 l 452 -141 m 703 -144 l 643 -228 l 543 -149 l 602 -65 l 703 -144 m 618 -298 l 562 -382 l 461 -307 l 519 -222 l 618 -298 z "},"ځ":{"ha":864,"x_min":94,"x_max":799,"o":"m 349 199 q 250 262 298 236 q 146 296 186 296 q 100 279 122 296 q 94 273 98 275 q 95 312 94 296 q 152 403 100 403 q 260 353 191 403 l 400 251 q 552 190 483 190 l 633 190 l 610 84 l 433 84 q 256 21 321 84 q 217 -126 191 -42 q 371 -286 243 -213 q 643 -359 499 -359 l 799 -359 q 723 -438 758 -406 q 662 -471 688 -471 q 374 -399 500 -471 q 193 -176 236 -319 q 187 -20 171 -103 q 252 110 203 64 q 285 132 262 119 q 353 165 315 148 l 380 178 l 349 199 m 395 562 l 362 541 q 296 496 319 513 q 243 449 258 468 l 236 472 q 239 513 236 484 q 244 543 240 524 q 216 562 228 549 q 190 605 198 579 q 201 713 175 652 q 271 781 227 781 q 305 769 292 781 q 324 735 319 755 q 328 699 330 718 q 320 678 328 681 q 309 686 312 685 q 279 697 292 697 q 236 674 258 697 q 217 631 212 651 q 250 613 220 621 q 302 605 279 605 q 355 627 323 605 l 396 654 l 395 562 z "},"څ":{"ha":864,"x_min":94,"x_max":799,"o":"m 349 199 q 250 262 298 236 q 146 296 186 296 q 100 279 122 296 q 94 273 98 275 q 95 312 94 296 q 152 403 100 403 q 260 353 191 403 l 400 251 q 552 190 483 190 l 633 190 l 610 84 l 433 84 q 256 21 321 84 q 217 -126 191 -42 q 371 -286 243 -213 q 643 -359 499 -359 l 799 -359 q 723 -438 758 -406 q 662 -471 688 -471 q 374 -399 500 -471 q 193 -176 236 -319 q 187 -20 171 -103 q 252 110 203 64 q 285 132 262 119 q 353 165 315 148 l 380 178 l 349 199 m 324 505 l 270 426 l 163 510 l 217 589 l 324 505 m 532 507 l 477 429 l 369 513 l 422 591 l 532 507 m 381 635 l 328 559 l 220 643 l 274 719 l 381 635 z "},"چ":{"ha":864,"x_min":94,"x_max":799,"o":"m 349 199 q 250 262 298 236 q 146 296 186 296 q 100 279 122 296 q 94 273 98 275 q 95 312 94 296 q 152 403 100 403 q 260 353 191 403 l 400 251 q 552 190 483 190 l 633 190 l 610 84 l 433 84 q 256 21 321 84 q 217 -126 191 -42 q 371 -286 243 -213 q 643 -359 499 -359 l 799 -359 q 723 -438 758 -406 q 662 -471 688 -471 q 374 -399 500 -471 q 193 -176 236 -319 q 187 -20 171 -103 q 252 110 203 64 q 285 132 262 119 q 353 165 315 148 l 380 178 l 349 199 m 500 -75 l 442 -159 l 342 -81 l 399 3 l 500 -75 m 708 -77 l 650 -161 l 548 -83 l 608 0 l 708 -77 m 636 -206 l 578 -290 l 477 -213 l 537 -129 l 636 -206 z "},"ڈ":{"ha":864,"x_min":69,"x_max":594,"o":"m 583 104 q 593 68 589 85 q 594 42 594 54 q 586 26 591 33 q 576 22 582 23 q 566 20 572 20 l 282 20 q 273 22 278 20 q 264 27 269 23 q 245 46 254 35 q 229 79 236 61 q 214 117 221 98 q 212 125 213 121 q 208 144 209 134 q 205 156 205 151 l 203 183 l 208 180 q 232 160 218 170 q 259 145 244 152 q 283 136 271 140 q 309 133 297 133 l 480 133 q 485 134 483 133 q 490 134 487 134 q 496 137 494 136 q 503 142 500 140 q 511 152 509 148 q 517 167 515 159 q 510 198 517 182 q 487 236 500 217 q 425 298 458 270 q 351 354 388 327 q 301 395 326 374 l 275 525 q 313 499 294 511 q 346 473 330 486 q 392 434 370 454 q 433 395 414 415 q 479 336 457 366 q 521 262 502 300 q 555 186 540 224 q 579 117 568 151 q 583 104 582 110 m 316 644 q 327 644 321 644 q 336 647 332 644 q 340 651 339 648 q 343 659 342 655 q 340 674 343 667 q 328 690 335 682 q 316 701 323 696 q 301 709 309 705 q 281 718 292 713 q 260 720 270 720 q 244 718 252 720 q 227 709 235 715 q 205 689 214 700 q 189 665 197 677 l 176 644 l 316 644 m 351 689 q 355 678 354 684 q 362 643 361 661 q 362 623 362 632 q 357 601 361 610 q 350 595 354 598 q 340 594 346 594 l 133 594 q 125 595 129 594 q 115 600 119 597 q 98 613 106 605 q 83 631 90 621 q 71 651 76 642 l 71 652 q 88 646 80 648 q 104 644 96 644 l 130 644 q 145 644 138 644 q 153 647 151 646 q 163 658 159 652 q 167 669 165 663 l 170 675 l 165 685 q 144 734 155 709 q 117 795 130 764 q 91 846 106 818 q 71 880 79 867 l 76 937 q 91 911 84 925 q 106 882 98 897 q 126 836 117 859 q 144 788 136 811 q 157 755 151 772 q 171 718 164 736 l 180 693 l 199 722 q 214 745 206 734 q 224 754 220 750 q 241 768 232 762 q 256 772 248 770 q 258 772 258 772 q 281 766 270 770 q 307 750 294 760 q 332 723 321 738 q 351 689 345 707 z "},"ډ":{"ha":864,"x_min":203,"x_max":594,"o":"m 583 104 q 593 68 589 85 q 594 42 594 54 q 586 26 591 33 q 576 22 582 23 q 566 20 572 20 l 282 20 q 273 22 278 20 q 264 27 269 23 q 245 46 254 35 q 229 79 236 61 q 214 117 221 98 q 212 125 213 121 q 208 144 209 134 q 205 156 205 151 l 203 183 l 208 180 q 232 160 218 170 q 259 145 244 152 q 283 136 271 140 q 309 133 297 133 l 480 133 q 485 134 483 133 q 490 134 487 134 q 496 137 494 136 q 503 142 500 140 q 511 152 509 148 q 517 167 515 159 q 510 198 517 182 q 487 236 500 217 q 425 298 458 270 q 351 354 388 327 q 301 395 326 374 l 275 525 q 313 499 294 511 q 346 473 330 486 q 392 434 370 454 q 433 395 414 415 q 479 336 457 366 q 521 262 502 300 q 555 186 540 224 q 579 117 568 151 q 583 104 582 110 m 582 -68 q 589 -125 591 -98 q 573 -172 586 -152 q 538 -205 560 -193 q 484 -217 515 -217 q 408 -184 441 -217 q 354 -84 374 -152 q 347 -28 346 -54 q 360 18 349 -3 q 393 49 372 38 q 444 60 414 60 q 486 47 464 60 q 528 16 509 35 q 562 -24 547 -3 q 582 -68 576 -46 m 537 -95 q 521 -71 534 -84 q 490 -45 507 -57 q 454 -24 473 -33 q 422 -16 435 -16 q 388 -35 397 -16 q 385 -76 378 -54 q 399 -96 389 -87 q 421 -113 408 -106 q 450 -122 434 -119 q 479 -125 465 -125 q 499 -122 488 -125 q 519 -115 510 -119 q 534 -106 529 -111 q 537 -95 540 -100 z "},"ڑ":{"ha":864,"x_min":199,"x_max":623,"o":"m 448 -317 q 422 -313 435 -316 q 391 -301 406 -308 q 359 -285 374 -293 q 335 -270 347 -277 q 438 -212 391 -245 q 507 -142 475 -179 q 576 -16 551 -85 q 574 58 582 20 q 571 68 572 64 q 552 106 563 87 q 509 160 533 134 q 461 208 486 184 q 435 232 448 220 l 439 369 l 444 365 q 487 309 467 338 q 526 252 507 282 q 571 170 551 212 q 602 85 589 127 q 620 0 614 42 q 621 -88 624 -45 q 606 -176 617 -133 q 574 -248 594 -214 q 519 -300 551 -278 q 453 -317 490 -315 q 448 -317 450 -317 m 445 544 q 457 544 450 544 q 465 547 461 544 q 469 551 468 548 q 472 559 472 555 q 469 574 472 567 q 458 590 464 582 q 445 601 452 595 q 430 609 438 605 q 410 617 420 613 q 389 620 400 620 q 373 617 381 620 q 355 609 363 614 q 335 589 345 600 q 319 564 326 576 l 305 544 l 445 544 m 480 589 q 484 578 483 583 q 491 543 490 560 q 491 522 492 532 q 486 500 490 510 q 479 495 483 498 q 469 494 475 494 l 262 494 q 254 495 258 494 q 245 499 250 496 q 228 513 236 505 q 212 530 220 521 q 201 551 206 541 l 199 552 q 218 545 209 548 q 233 544 225 544 l 260 544 q 274 544 267 544 q 283 547 279 545 q 292 557 288 552 q 297 568 294 563 l 298 575 l 294 585 q 274 633 285 609 q 247 694 260 663 q 220 746 236 718 q 199 780 208 766 l 206 837 q 220 811 213 825 q 235 781 228 796 q 255 735 245 758 q 274 688 264 711 q 286 655 279 671 q 300 617 293 636 l 309 593 l 328 621 q 345 644 335 633 q 354 654 349 650 q 370 667 361 662 q 387 671 377 670 q 388 671 387 671 q 410 666 399 670 q 435 650 423 659 q 463 623 450 637 q 480 589 473 606 z "},"ړ":{"ha":864,"x_min":334,"x_max":757,"o":"m 448 -317 q 422 -313 435 -316 q 391 -301 406 -308 q 359 -285 374 -293 q 335 -270 347 -277 q 438 -212 391 -245 q 507 -142 475 -179 q 576 -16 551 -85 q 574 58 582 20 q 571 68 572 64 q 552 106 563 87 q 509 160 533 134 q 461 208 486 184 q 435 232 448 220 l 439 369 l 444 365 q 487 309 467 338 q 526 252 507 282 q 571 170 551 212 q 602 85 589 127 q 620 0 614 42 q 621 -88 624 -45 q 606 -176 617 -133 q 574 -248 594 -214 q 519 -300 551 -278 q 453 -317 490 -315 q 448 -317 450 -317 m 749 -298 q 755 -355 758 -328 q 740 -403 753 -382 q 705 -435 727 -423 q 651 -448 682 -448 q 574 -416 608 -448 q 521 -315 541 -384 q 513 -260 511 -286 q 527 -214 515 -235 q 559 -182 538 -194 q 610 -171 581 -171 q 652 -183 631 -171 q 694 -214 674 -195 q 728 -256 713 -233 q 749 -298 743 -278 m 704 -326 q 688 -301 701 -315 q 656 -275 674 -288 q 621 -256 639 -263 q 589 -248 602 -248 q 555 -267 564 -248 q 552 -307 545 -285 q 565 -327 555 -317 q 588 -343 575 -336 q 616 -353 601 -350 q 646 -357 632 -357 q 666 -354 655 -357 q 686 -347 677 -351 q 701 -336 696 -342 q 704 -326 705 -331 z "},"ږ":{"ha":864,"x_min":245,"x_max":856,"o":"m 448 -317 q 422 -313 435 -316 q 391 -301 406 -308 q 359 -285 374 -293 q 335 -270 347 -277 q 438 -212 391 -245 q 507 -142 475 -179 q 576 -16 551 -85 q 574 58 582 20 q 571 68 572 64 q 552 106 563 87 q 509 160 533 134 q 461 208 486 184 q 435 232 448 220 l 439 369 l 444 365 q 487 309 467 338 q 526 252 507 282 q 571 170 551 212 q 602 85 589 127 q 620 0 614 42 q 621 -88 624 -45 q 606 -176 617 -133 q 574 -248 594 -214 q 519 -300 551 -278 q 453 -317 490 -315 q 448 -317 450 -317 m 854 -316 l 800 -392 l 692 -309 l 745 -232 l 854 -316 m 410 60 l 355 -16 l 247 68 l 300 144 l 410 60 z "},"ژ":{"ha":864,"x_min":205,"x_max":623,"o":"m 448 -317 q 422 -313 435 -316 q 391 -301 406 -308 q 359 -285 374 -293 q 335 -270 347 -277 q 438 -212 391 -245 q 507 -142 475 -179 q 576 -16 551 -85 q 574 58 582 20 q 571 68 572 64 q 552 106 563 87 q 509 160 533 134 q 461 208 486 184 q 435 232 448 220 l 439 369 l 444 365 q 487 309 467 338 q 526 252 507 282 q 571 170 551 212 q 602 85 589 127 q 620 0 614 42 q 621 -88 624 -45 q 606 -176 617 -133 q 574 -248 594 -214 q 519 -300 551 -278 q 453 -317 490 -315 q 448 -317 450 -317 m 368 505 l 313 426 l 206 510 l 260 589 l 368 505 m 575 507 l 521 429 l 412 513 l 465 591 l 575 507 m 425 635 l 372 559 l 263 643 l 317 719 l 425 635 z "},"ښ":{"ha":864,"x_min":39,"x_max":800,"o":"m 456 152 q 507 165 484 153 q 541 205 528 182 q 552 237 547 220 q 557 277 556 256 q 587 236 571 255 q 617 203 601 220 q 669 168 642 183 q 713 156 690 159 q 720 156 718 156 q 727 157 724 156 q 751 172 742 161 q 755 186 754 179 q 751 202 754 194 l 751 203 q 749 208 750 206 q 747 212 749 210 q 747 214 747 213 q 746 214 747 214 q 731 236 739 225 q 705 262 719 250 q 694 273 700 267 q 682 282 688 278 l 692 370 q 715 338 704 354 q 734 308 724 323 q 764 248 750 278 q 788 178 777 213 q 799 121 795 149 q 795 85 800 102 q 777 57 788 71 q 768 50 773 53 q 755 49 762 49 l 745 49 q 723 52 734 49 q 700 58 712 54 q 658 80 678 68 q 620 115 637 96 l 591 148 l 585 113 q 576 91 582 102 q 562 69 570 80 q 537 49 551 57 q 495 37 517 39 q 435 42 465 35 l 450 -7 q 461 -65 458 -37 q 458 -121 463 -94 q 439 -182 452 -153 q 400 -231 423 -209 q 363 -258 384 -245 q 328 -269 347 -264 q 286 -274 308 -273 q 285 -274 285 -274 q 281 -274 282 -274 q 210 -259 245 -271 q 142 -214 175 -241 q 90 -148 113 -183 q 50 -54 65 -102 q 41 4 43 -24 q 41 76 38 41 l 53 66 q 62 -7 52 31 q 92 -61 73 -35 q 160 -125 122 -98 q 216 -152 187 -141 q 282 -161 250 -160 q 283 -161 282 -161 q 283 -161 283 -161 q 313 -159 298 -161 q 345 -149 330 -155 q 382 -129 363 -140 q 408 -107 396 -119 q 423 -76 418 -92 q 431 -38 429 -57 l 433 -34 l 431 -30 q 407 26 422 -1 q 350 92 381 61 q 327 115 338 104 q 296 142 312 129 l 307 254 q 330 229 319 241 q 355 206 342 217 q 412 165 382 183 q 456 152 434 156 m 761 -141 l 707 -217 l 598 -134 l 652 -57 l 761 -141 m 514 483 l 460 407 l 351 491 l 406 567 l 514 483 z "},"ڤ":{"ha":864,"x_min":-28,"x_max":822,"o":"m 183 750 l 129 673 l 20 757 l 75 834 l 183 750 m 431 753 l 377 675 l 269 758 l 323 837 l 431 753 m 255 909 l 202 831 l 92 916 l 146 993 l 255 909 m 486 20 l 180 20 q 55 55 104 20 q -19 171 5 90 q -24 270 -33 216 q -9 349 -16 324 q 56 165 -23 225 q 187 133 99 133 l 195 133 l 452 133 l 650 133 l 515 183 q 437 232 453 208 q 435 235 435 235 l 415 359 l 412 376 q 408 541 399 477 q 460 612 420 612 q 617 494 519 612 q 783 182 731 357 l 818 66 q 817 31 826 41 q 768 20 808 20 l 486 20 m 454 331 l 461 326 l 719 231 q 571 416 655 355 q 486 453 524 450 q 454 331 431 456 z "},"ک":{"ha":864,"x_min":-33,"x_max":723,"o":"m 186 20 q 63 70 110 20 q -31 274 16 119 q -29 281 -33 278 q -20 285 -26 285 q -7 271 -11 283 q 20 201 8 232 q 46 156 31 171 q 73 140 58 145 q 106 135 88 136 q 152 133 125 134 l 680 133 l 656 163 q 564 248 623 205 q 438 321 506 290 q 371 346 400 339 q 317 353 342 353 q 267 345 286 353 q 250 338 262 342 q 206 389 236 349 q 167 452 176 430 q 241 613 184 517 q 389 810 302 720 q 559 944 477 901 l 595 823 q 452 738 526 795 q 332 618 387 686 q 258 502 289 563 l 245 479 l 278 471 q 338 453 328 457 q 407 423 376 439 q 623 271 549 351 q 715 114 689 201 q 722 56 724 79 q 697 20 718 20 l 186 20 z "},"ګ":{"ha":864,"x_min":-33,"x_max":723,"o":"m 186 20 q 63 70 110 20 q -31 274 16 119 q -29 281 -33 278 q -20 285 -26 285 q -7 271 -11 283 q 20 201 8 232 q 46 156 31 171 q 73 140 58 145 q 106 135 88 136 q 152 133 125 134 l 680 133 l 656 163 q 564 248 623 205 q 438 321 506 290 q 371 346 400 339 q 317 353 342 353 q 267 345 286 353 q 250 338 262 342 q 206 389 236 349 q 167 452 176 430 q 241 613 184 517 q 389 810 302 720 q 559 944 477 901 l 595 823 q 452 738 526 795 q 332 618 387 686 q 258 502 289 563 l 245 479 l 278 471 q 338 453 328 457 q 407 423 376 439 q 623 271 549 351 q 715 114 689 201 q 722 56 724 79 q 697 20 718 20 l 186 20 m 591 651 q 598 594 601 621 q 583 547 595 567 q 547 514 570 526 q 494 502 525 502 q 417 534 450 502 q 363 635 384 566 q 356 689 354 663 q 370 735 358 715 q 402 767 381 755 q 453 779 423 779 q 495 766 473 779 q 536 735 517 754 q 571 694 556 716 q 591 651 586 671 m 547 624 q 530 648 544 635 q 499 674 517 662 q 463 694 481 686 q 431 701 445 701 q 397 683 407 701 q 395 643 388 665 q 408 623 397 632 q 431 606 418 613 q 459 596 444 600 q 488 593 475 593 q 509 595 498 593 q 529 603 519 598 q 543 613 538 608 q 547 624 548 618 z "},"گ":{"ha":864,"x_min":-33,"x_max":723,"o":"m 186 20 q 63 70 110 20 q -31 274 16 119 q -29 281 -33 278 q -20 285 -26 285 q -7 271 -11 283 q 20 201 8 232 q 46 156 31 171 q 73 140 58 145 q 106 135 88 136 q 152 133 125 134 l 680 133 l 656 163 q 564 248 623 205 q 438 321 506 290 q 371 346 400 339 q 317 353 342 353 q 267 345 286 353 q 250 338 262 342 q 206 389 236 349 q 167 452 176 430 q 241 613 184 517 q 389 810 302 720 q 559 944 477 901 l 595 823 q 452 738 526 795 q 332 618 387 686 q 258 502 289 563 l 245 479 l 278 471 q 338 453 328 457 q 407 423 376 439 q 623 271 549 351 q 715 114 689 201 q 722 56 724 79 q 697 20 718 20 l 186 20 m 473 1090 q 488 1005 481 1054 q 255 798 358 922 q 107 532 152 673 l 65 595 q 223 884 109 749 q 473 1090 338 1019 z "},"ں":{"ha":864,"x_min":99,"x_max":712,"o":"m 671 106 q 609 191 647 144 q 556 258 559 250 l 557 353 q 629 252 601 297 q 689 127 671 183 l 707 68 q 671 -38 724 11 q 533 -110 624 -81 q 391 -133 457 -133 q 208 -79 278 -133 q 123 45 146 -33 q 99 221 98 133 q 113 157 104 183 q 227 12 144 56 q 387 -20 290 -20 q 579 12 490 -20 q 680 77 665 42 l 684 87 l 671 106 z "}}}
